{"glyphs":{"0":{"ha":907,"x_min":70,"x_max":836,"o":"m 453 -13 q 170 115 269 -13 q 70 514 70 243 q 169 913 70 785 q 453 1041 269 1041 q 737 913 638 1041 q 836 514 836 785 q 737 115 836 243 q 453 -13 638 -13 m 453 140 q 563 175 519 140 q 630 292 606 210 q 653 513 653 374 q 630 735 653 653 q 563 853 606 818 q 453 888 519 888 q 344 853 388 888 q 277 736 301 818 q 253 515 253 654 q 277 292 253 375 q 344 175 300 210 q 453 140 388 140 z "},"1":{"ha":553,"x_min":19,"x_max":444,"o":"m 326 1031 l 444 1031 l 444 0 l 259 0 l 259 808 l 19 640 l 19 815 l 326 1031 z "},"2":{"ha":724,"x_min":24,"x_max":684,"o":"m 684 153 l 684 0 l 36 0 l 36 99 l 325 469 q 422 618 393 556 q 450 735 450 679 q 402 853 450 816 q 251 890 354 890 q 132 880 190 890 q 24 850 73 869 l 24 1002 q 138 1030 69 1019 q 269 1041 206 1041 q 542 971 450 1041 q 633 754 633 901 q 600 593 633 672 q 483 410 566 514 l 280 153 l 684 153 z "},"3":{"ha":737,"x_min":33,"x_max":692,"o":"m 478 533 q 637 447 582 511 q 692 283 692 383 q 591 64 692 141 q 294 -13 490 -13 q 33 24 155 -13 l 33 165 q 159 137 92 147 q 287 127 226 127 q 517 293 517 127 q 462 414 517 373 q 289 456 407 456 l 148 456 l 148 597 l 247 597 q 423 638 365 597 q 480 756 480 678 q 282 901 480 901 q 164 891 224 901 q 53 863 105 881 l 53 1003 q 169 1031 101 1020 q 301 1041 236 1041 q 567 971 476 1041 q 658 771 658 901 q 611 621 658 683 q 478 533 563 558 z "},"4":{"ha":861,"x_min":28,"x_max":836,"o":"m 836 369 l 836 224 l 699 224 l 699 0 l 531 0 l 531 224 l 28 224 l 28 325 l 401 1028 l 581 1028 l 235 369 l 531 369 l 551 681 l 699 681 l 699 369 l 836 369 z "},"5":{"ha":744,"x_min":51,"x_max":710,"o":"m 283 612 q 528 567 433 603 q 666 464 622 530 q 710 301 710 399 q 609 67 709 147 q 313 -13 508 -13 q 51 26 175 -13 l 51 167 q 177 139 110 149 q 306 128 244 128 q 478 170 422 128 q 534 297 534 213 q 506 389 534 353 q 408 446 477 425 q 217 474 339 467 l 85 481 l 120 1028 l 667 1028 l 667 884 l 285 884 l 267 613 l 283 612 z "},"6":{"ha":843,"x_min":78,"x_max":804,"o":"m 481 608 q 649 575 576 608 q 763 473 722 542 q 804 302 804 404 q 762 132 804 203 q 643 24 720 61 q 463 -13 567 -13 q 180 106 282 -13 q 78 481 78 226 q 199 902 78 763 q 551 1041 319 1041 q 753 1010 673 1041 l 753 866 q 560 898 669 898 q 335 812 410 898 q 258 544 261 726 q 360 591 301 574 q 481 608 419 608 m 464 123 q 589 166 542 123 q 635 297 635 210 q 585 430 635 386 q 446 473 535 473 q 347 458 396 473 q 259 413 298 443 q 289 240 263 304 q 358 150 315 176 q 464 123 401 123 z "},"7":{"ha":690,"x_min":8,"x_max":650,"o":"m 8 1028 l 650 1028 l 650 928 l 303 0 l 113 0 l 451 874 l 8 874 l 8 1028 z "},"8":{"ha":907,"x_min":60,"x_max":845,"o":"m 649 535 q 800 428 755 490 q 845 276 845 366 q 801 125 845 190 q 670 24 757 60 q 458 -13 583 -13 q 236 20 325 -13 q 104 113 147 53 q 60 256 60 174 q 109 409 60 342 q 249 513 158 476 q 128 618 165 557 q 90 762 90 680 q 133 909 90 846 q 259 1007 176 972 q 463 1041 343 1041 q 651 1010 572 1041 q 773 920 731 978 q 815 781 815 861 q 774 639 815 701 q 649 535 734 576 m 460 910 q 315 873 364 910 q 267 769 267 835 q 287 690 267 722 q 360 632 308 658 q 512 581 413 606 l 520 578 q 622 659 590 615 q 653 765 653 703 q 603 873 653 835 q 460 910 553 910 m 458 117 q 617 156 564 117 q 671 265 671 194 q 649 344 671 312 q 575 401 627 376 q 427 449 523 426 l 373 464 q 270 386 305 435 q 235 276 235 337 q 291 158 235 199 q 458 117 347 117 z "},"9":{"ha":843,"x_min":39,"x_max":765,"o":"m 380 1041 q 663 922 561 1041 q 765 547 765 802 q 644 126 765 265 q 292 -13 524 -13 q 90 18 170 -13 l 90 162 q 283 130 174 130 q 508 216 433 130 q 585 484 582 301 q 483 436 542 453 q 363 419 424 419 q 194 453 267 419 q 80 555 121 486 q 39 726 39 624 q 81 895 39 824 q 200 1004 123 967 q 380 1041 276 1041 m 208 731 q 258 598 208 642 q 397 555 308 555 q 496 570 447 555 q 584 615 545 585 q 554 788 580 724 q 485 878 528 851 q 379 905 442 905 q 254 861 301 905 q 208 731 208 818 z "},"\u0000":{"ha":0,"x_min":0,"x_max":0,"o":""},"\r":{"ha":346,"x_min":0,"x_max":0,"o":""}," ":{"ha":346,"x_min":0,"x_max":0,"o":""},"A":{"ha":986,"x_min":13,"x_max":973,"o":"m 790 0 l 693 296 l 292 296 l 195 0 l 13 0 l 359 1028 l 627 1028 l 973 0 l 790 0 m 340 444 l 644 444 l 492 911 l 340 444 z "},"Á":{"ha":986,"x_min":13,"x_max":973,"o":"m 790 0 l 693 296 l 292 296 l 195 0 l 13 0 l 359 1028 l 627 1028 l 973 0 l 790 0 m 340 444 l 644 444 l 492 911 l 340 444 m 410 1111 l 534 1317 l 726 1317 l 574 1111 l 410 1111 z "},"Ă":{"ha":986,"x_min":13,"x_max":973,"o":"m 790 0 l 693 296 l 292 296 l 195 0 l 13 0 l 359 1028 l 627 1028 l 973 0 l 790 0 m 340 444 l 644 444 l 492 911 l 340 444 m 494 1115 q 317 1166 380 1115 q 243 1308 253 1217 l 357 1308 q 398 1232 365 1257 q 494 1208 431 1208 q 589 1232 557 1208 q 629 1308 621 1257 l 743 1308 q 670 1166 733 1217 q 494 1115 608 1115 z "},"Ắ":{"ha":986,"x_min":13,"x_max":973,"o":"m 790 0 l 693 296 l 292 296 l 195 0 l 13 0 l 359 1028 l 627 1028 l 973 0 l 790 0 m 340 444 l 644 444 l 492 911 l 340 444 m 441 1275 l 532 1444 l 662 1444 l 545 1275 l 441 1275 m 493 1115 q 324 1161 384 1115 q 253 1291 265 1208 l 353 1291 q 393 1219 363 1242 q 493 1196 424 1196 q 593 1219 562 1196 q 636 1291 624 1242 l 733 1291 q 662 1161 722 1208 q 493 1115 602 1115 z "},"Ặ":{"ha":986,"x_min":13,"x_max":973,"o":"m 790 0 l 693 296 l 292 296 l 195 0 l 13 0 l 359 1028 l 627 1028 l 973 0 l 790 0 m 340 444 l 644 444 l 492 911 l 340 444 m 494 -273 q 408 -250 438 -273 q 379 -185 379 -227 q 408 -121 379 -144 q 494 -98 438 -98 q 579 -121 550 -98 q 608 -185 608 -144 q 579 -250 608 -227 q 494 -273 550 -273 m 494 1115 q 317 1166 380 1115 q 243 1308 253 1217 l 357 1308 q 398 1232 365 1257 q 494 1208 431 1208 q 589 1232 557 1208 q 629 1308 621 1257 l 743 1308 q 670 1166 733 1217 q 494 1115 608 1115 z "},"Ằ":{"ha":986,"x_min":13,"x_max":973,"o":"m 790 0 l 693 296 l 292 296 l 195 0 l 13 0 l 359 1028 l 627 1028 l 973 0 l 790 0 m 340 444 l 644 444 l 492 911 l 340 444 m 441 1275 l 324 1444 l 454 1444 l 545 1275 l 441 1275 m 493 1115 q 324 1161 384 1115 q 253 1291 265 1208 l 350 1291 q 393 1219 362 1242 q 493 1196 424 1196 q 592 1219 561 1196 q 633 1291 624 1242 l 733 1291 q 661 1161 722 1208 q 493 1115 601 1115 z "},"Ẳ":{"ha":986,"x_min":13,"x_max":973,"o":"m 790 0 l 693 296 l 292 296 l 195 0 l 13 0 l 359 1028 l 627 1028 l 973 0 l 790 0 m 340 444 l 644 444 l 492 911 l 340 444 m 445 1275 q 457 1308 446 1294 q 481 1330 467 1322 q 518 1347 495 1338 q 551 1363 540 1356 q 561 1381 561 1370 q 483 1408 561 1408 q 349 1390 413 1408 l 349 1454 q 417 1468 377 1463 q 495 1473 457 1473 q 660 1392 660 1473 q 643 1350 660 1365 q 594 1320 626 1335 q 556 1299 569 1309 q 541 1275 543 1290 l 445 1275 m 492 1115 q 324 1161 383 1115 q 253 1291 265 1208 l 353 1291 q 393 1219 363 1242 q 492 1196 424 1196 q 592 1219 560 1196 q 636 1291 624 1242 l 733 1291 q 661 1161 722 1208 q 492 1115 601 1115 z "},"Ẵ":{"ha":986,"x_min":13,"x_max":973,"o":"m 790 0 l 693 296 l 292 296 l 195 0 l 13 0 l 359 1028 l 627 1028 l 973 0 l 790 0 m 340 444 l 644 444 l 492 911 l 340 444 m 595 1331 q 542 1337 567 1331 q 481 1355 517 1343 q 431 1370 452 1365 q 390 1376 410 1376 q 323 1365 353 1376 q 253 1328 292 1354 l 253 1413 q 319 1447 287 1438 q 391 1457 351 1457 q 443 1451 419 1457 q 506 1432 467 1444 q 556 1416 535 1422 q 597 1410 577 1410 q 663 1422 633 1410 q 733 1458 694 1433 l 733 1373 q 668 1340 700 1349 q 595 1331 636 1331 m 492 1115 q 324 1161 383 1115 q 253 1291 265 1208 l 353 1291 q 393 1219 363 1242 q 492 1196 424 1196 q 592 1219 561 1196 q 633 1291 624 1242 l 733 1291 q 661 1161 722 1208 q 492 1115 601 1115 z "},"Â":{"ha":986,"x_min":13,"x_max":973,"o":"m 790 0 l 693 296 l 292 296 l 195 0 l 13 0 l 359 1028 l 627 1028 l 973 0 l 790 0 m 340 444 l 644 444 l 492 911 l 340 444 m 747 1111 l 604 1111 l 493 1247 l 382 1111 l 239 1111 l 414 1317 l 572 1317 l 747 1111 z "},"Ấ":{"ha":986,"x_min":13,"x_max":973,"o":"m 790 0 l 693 296 l 292 296 l 195 0 l 13 0 l 359 1028 l 627 1028 l 973 0 l 790 0 m 340 444 l 644 444 l 492 911 l 340 444 m 751 1433 l 881 1433 l 765 1258 l 660 1258 l 751 1433 m 414 1300 l 572 1300 l 747 1111 l 604 1111 l 493 1238 l 382 1111 l 239 1111 l 414 1300 z "},"Ậ":{"ha":986,"x_min":13,"x_max":973,"o":"m 790 0 l 693 296 l 292 296 l 195 0 l 13 0 l 359 1028 l 627 1028 l 973 0 l 790 0 m 340 444 l 644 444 l 492 911 l 340 444 m 494 -273 q 408 -250 438 -273 q 379 -185 379 -227 q 408 -121 379 -144 q 494 -98 438 -98 q 579 -121 550 -98 q 608 -185 608 -144 q 579 -250 608 -227 q 494 -273 550 -273 m 747 1111 l 604 1111 l 493 1247 l 382 1111 l 239 1111 l 414 1317 l 572 1317 l 747 1111 z "},"Ầ":{"ha":986,"x_min":13,"x_max":973,"o":"m 790 0 l 693 296 l 292 296 l 195 0 l 13 0 l 359 1028 l 627 1028 l 973 0 l 790 0 m 340 444 l 644 444 l 492 911 l 340 444 m 786 1258 l 682 1258 l 565 1433 l 695 1433 l 786 1258 m 414 1300 l 572 1300 l 747 1111 l 604 1111 l 493 1238 l 382 1111 l 239 1111 l 414 1300 z "},"Ẩ":{"ha":986,"x_min":13,"x_max":973,"o":"m 790 0 l 693 296 l 292 296 l 195 0 l 13 0 l 359 1028 l 627 1028 l 973 0 l 790 0 m 340 444 l 644 444 l 492 911 l 340 444 m 711 1456 q 876 1374 876 1456 q 859 1333 876 1348 q 809 1303 842 1318 q 771 1282 784 1292 q 756 1258 758 1272 l 660 1258 q 672 1291 661 1277 q 697 1312 683 1304 q 733 1330 710 1320 q 766 1346 756 1339 q 776 1364 776 1353 q 698 1390 776 1390 q 564 1372 628 1390 l 564 1437 q 632 1451 592 1446 q 711 1456 672 1456 m 414 1300 l 572 1300 l 747 1111 l 604 1111 l 493 1238 l 382 1111 l 239 1111 l 414 1300 z "},"Ẫ":{"ha":986,"x_min":13,"x_max":973,"o":"m 790 0 l 693 296 l 292 296 l 195 0 l 13 0 l 359 1028 l 627 1028 l 973 0 l 790 0 m 340 444 l 644 444 l 492 911 l 340 444 m 607 1410 q 677 1422 644 1410 q 747 1458 709 1433 l 747 1373 q 682 1340 715 1349 q 606 1331 649 1331 q 547 1337 574 1331 q 479 1355 519 1343 q 425 1370 448 1365 q 379 1376 402 1376 q 309 1365 341 1376 q 239 1328 277 1354 l 239 1413 q 305 1447 272 1437 q 381 1457 338 1457 q 438 1451 411 1457 q 507 1432 465 1444 q 562 1416 540 1421 q 607 1410 585 1410 m 414 1300 l 572 1300 l 747 1111 l 604 1111 l 493 1238 l 382 1111 l 239 1111 l 414 1300 z "},"Ȁ":{"ha":986,"x_min":13,"x_max":973,"o":"m 790 0 l 693 296 l 292 296 l 195 0 l 13 0 l 359 1028 l 627 1028 l 973 0 l 790 0 m 340 444 l 644 444 l 492 911 l 340 444 m 294 1111 l 192 1317 l 338 1317 l 429 1111 l 294 1111 m 557 1111 l 455 1317 l 601 1317 l 692 1111 l 557 1111 z "},"Ä":{"ha":986,"x_min":13,"x_max":973,"o":"m 790 0 l 693 296 l 292 296 l 195 0 l 13 0 l 359 1028 l 627 1028 l 973 0 l 790 0 m 340 444 l 644 444 l 492 911 l 340 444 m 321 1128 q 245 1151 272 1128 q 219 1216 219 1174 q 245 1281 219 1258 q 321 1303 272 1303 q 397 1281 370 1303 q 423 1216 423 1258 q 397 1151 423 1174 q 321 1128 370 1128 m 665 1128 q 590 1151 616 1128 q 563 1216 563 1174 q 590 1281 563 1258 q 665 1303 616 1303 q 741 1281 715 1303 q 767 1216 767 1258 q 741 1151 767 1174 q 665 1128 715 1128 z "},"Ạ":{"ha":986,"x_min":13,"x_max":973,"o":"m 790 0 l 693 296 l 292 296 l 195 0 l 13 0 l 359 1028 l 627 1028 l 973 0 l 790 0 m 340 444 l 644 444 l 492 911 l 340 444 m 494 -273 q 408 -250 438 -273 q 379 -185 379 -227 q 408 -121 379 -144 q 494 -98 438 -98 q 579 -121 550 -98 q 608 -185 608 -144 q 579 -250 608 -227 q 494 -273 550 -273 z "},"À":{"ha":986,"x_min":13,"x_max":973,"o":"m 790 0 l 693 296 l 292 296 l 195 0 l 13 0 l 359 1028 l 627 1028 l 973 0 l 790 0 m 340 444 l 644 444 l 492 911 l 340 444 m 411 1111 l 259 1317 l 451 1317 l 575 1111 l 411 1111 z "},"Ả":{"ha":986,"x_min":13,"x_max":973,"o":"m 790 0 l 693 296 l 292 296 l 195 0 l 13 0 l 359 1028 l 627 1028 l 973 0 l 790 0 m 340 444 l 644 444 l 492 911 l 340 444 m 445 1111 q 466 1158 447 1142 q 519 1190 485 1174 q 551 1207 540 1199 q 561 1225 561 1215 q 543 1246 561 1239 q 483 1253 524 1253 q 349 1234 414 1253 l 349 1307 q 417 1322 378 1316 q 495 1327 457 1327 q 620 1304 579 1327 q 660 1238 660 1281 q 651 1204 660 1218 q 629 1181 642 1190 q 593 1160 616 1172 q 556 1137 568 1147 q 541 1111 543 1126 l 445 1111 z "},"Ȃ":{"ha":986,"x_min":13,"x_max":973,"o":"m 790 0 l 693 296 l 292 296 l 195 0 l 13 0 l 359 1028 l 627 1028 l 973 0 l 790 0 m 340 444 l 644 444 l 492 911 l 340 444 m 243 1120 q 316 1261 253 1210 q 492 1313 378 1313 q 669 1261 606 1313 q 743 1120 733 1210 l 629 1120 q 589 1195 621 1170 q 492 1219 556 1219 q 397 1195 428 1219 q 357 1120 365 1170 l 243 1120 z "},"Ā":{"ha":986,"x_min":13,"x_max":973,"o":"m 790 0 l 693 296 l 292 296 l 195 0 l 13 0 l 359 1028 l 627 1028 l 973 0 l 790 0 m 340 444 l 644 444 l 492 911 l 340 444 m 253 1158 l 253 1270 l 733 1270 l 733 1158 l 253 1158 z "},"Ą":{"ha":986,"x_min":13,"x_max":1022,"o":"m 918 -224 q 1022 -201 964 -224 l 1022 -276 q 896 -300 961 -300 q 758 -264 805 -300 q 712 -162 712 -228 q 738 -74 712 -115 q 822 0 764 -34 l 790 0 l 693 296 l 292 296 l 195 0 l 13 0 l 359 1028 l 627 1028 l 973 0 q 853 -71 887 -35 q 819 -150 819 -107 q 918 -224 819 -224 m 340 444 l 644 444 l 492 911 l 340 444 z "},"Å":{"ha":986,"x_min":13,"x_max":973,"o":"m 790 0 l 693 296 l 292 296 l 195 0 l 13 0 l 359 1028 l 627 1028 l 973 0 l 790 0 m 340 444 l 644 444 l 492 911 l 340 444 m 494 1046 q 420 1064 453 1046 q 369 1114 388 1082 q 350 1187 350 1147 q 369 1259 350 1227 q 420 1310 388 1292 q 494 1328 453 1328 q 568 1310 535 1328 q 620 1259 601 1292 q 639 1187 639 1227 q 620 1114 639 1147 q 568 1064 601 1082 q 494 1046 535 1046 m 494 1114 q 545 1134 526 1114 q 565 1187 565 1153 q 546 1240 565 1220 q 494 1260 526 1260 q 443 1240 463 1260 q 424 1187 424 1220 q 443 1134 424 1153 q 494 1114 463 1114 z "},"Ǻ":{"ha":986,"x_min":13,"x_max":973,"o":"m 790 0 l 693 296 l 292 296 l 195 0 l 13 0 l 359 1028 l 627 1028 l 973 0 l 790 0 m 340 444 l 644 444 l 492 911 l 340 444 m 618 1264 q 639 1188 639 1230 q 620 1115 639 1147 q 568 1064 601 1083 q 494 1046 535 1046 q 420 1064 453 1046 q 369 1115 388 1083 q 350 1188 350 1147 q 369 1260 350 1228 q 420 1310 388 1292 q 494 1328 453 1328 q 540 1322 519 1328 l 616 1410 l 753 1410 l 618 1264 m 494 1115 q 546 1134 526 1115 q 565 1188 565 1154 q 546 1241 565 1221 q 494 1260 526 1260 q 443 1241 463 1260 q 424 1188 424 1221 q 443 1134 424 1154 q 494 1115 463 1115 z "},"Ã":{"ha":986,"x_min":13,"x_max":973,"o":"m 790 0 l 693 296 l 292 296 l 195 0 l 13 0 l 359 1028 l 627 1028 l 973 0 l 790 0 m 340 444 l 644 444 l 492 911 l 340 444 m 608 1137 q 549 1144 576 1137 q 482 1165 522 1151 q 423 1184 445 1178 q 375 1190 400 1190 q 305 1178 335 1190 q 244 1141 274 1166 l 244 1249 q 302 1286 269 1274 q 378 1298 334 1298 q 438 1291 410 1298 q 504 1269 465 1283 q 564 1250 541 1256 q 611 1244 586 1244 q 681 1256 651 1244 q 742 1293 712 1268 l 742 1185 q 684 1148 717 1160 q 608 1137 652 1137 z "},"Æ":{"ha":1354,"x_min":13,"x_max":1305,"o":"m 842 149 l 1305 149 l 1305 0 l 669 0 l 649 295 l 294 295 l 196 0 l 13 0 l 363 1028 l 1298 1028 l 1298 878 l 786 878 l 807 601 l 1228 601 l 1228 451 l 819 451 l 842 149 m 344 445 l 638 445 l 606 878 l 488 878 l 344 445 z "},"Ǽ":{"ha":1354,"x_min":13,"x_max":1305,"o":"m 842 149 l 1305 149 l 1305 0 l 669 0 l 649 295 l 294 295 l 196 0 l 13 0 l 363 1028 l 1298 1028 l 1298 878 l 786 878 l 807 601 l 1228 601 l 1228 451 l 819 451 l 842 149 m 344 445 l 638 445 l 606 878 l 488 878 l 344 445 m 604 1111 l 728 1317 l 920 1317 l 768 1111 l 604 1111 z "},"B":{"ha":907,"x_min":101,"x_max":865,"o":"m 665 531 q 813 449 761 512 q 865 285 865 386 q 817 122 865 188 q 660 23 768 57 q 378 -10 553 -10 q 240 -6 313 -10 q 101 8 166 -1 l 101 1007 q 253 1031 172 1022 q 414 1040 334 1040 q 735 970 633 1040 q 836 758 836 901 q 792 613 836 674 q 665 531 749 552 m 435 902 q 283 890 356 902 l 283 597 l 449 597 q 612 634 563 597 q 662 749 662 671 q 640 838 662 804 q 568 886 617 871 q 435 902 518 902 m 424 127 q 584 145 525 127 q 668 199 642 163 q 693 292 693 235 q 640 416 693 377 q 470 456 587 456 l 283 456 l 283 134 q 424 127 344 127 z "},"C":{"ha":838,"x_min":63,"x_max":806,"o":"m 575 -13 q 194 113 326 -13 q 63 512 63 239 q 198 909 63 777 q 585 1041 332 1041 q 806 1015 699 1041 l 806 860 q 599 886 706 886 q 408 849 483 886 q 295 730 333 811 q 258 515 258 648 q 295 296 258 378 q 406 178 333 214 q 591 142 479 142 q 806 176 696 142 l 806 22 q 695 -4 755 5 q 575 -13 636 -13 z "},"Ć":{"ha":838,"x_min":63,"x_max":806,"o":"m 575 -13 q 194 113 326 -13 q 63 512 63 239 q 198 909 63 777 q 585 1041 332 1041 q 806 1015 699 1041 l 806 860 q 599 886 706 886 q 408 849 483 886 q 295 730 333 811 q 258 515 258 648 q 295 296 258 378 q 406 178 333 214 q 591 142 479 142 q 806 176 696 142 l 806 22 q 695 -4 755 5 q 575 -13 636 -13 m 427 1111 l 551 1317 l 743 1317 l 591 1111 l 427 1111 z "},"Č":{"ha":838,"x_min":63,"x_max":806,"o":"m 575 -13 q 194 113 326 -13 q 63 512 63 239 q 198 909 63 777 q 585 1041 332 1041 q 806 1015 699 1041 l 806 860 q 599 886 706 886 q 408 849 483 886 q 295 730 333 811 q 258 515 258 648 q 295 296 258 378 q 406 178 333 214 q 591 142 479 142 q 806 176 696 142 l 806 22 q 695 -4 755 5 q 575 -13 636 -13 m 621 1317 l 764 1317 l 589 1111 l 431 1111 l 256 1317 l 399 1317 l 510 1181 l 621 1317 z "},"Ç":{"ha":838,"x_min":63,"x_max":806,"o":"m 599 886 q 408 849 483 886 q 295 730 333 811 q 258 515 258 648 q 295 296 258 378 q 406 178 333 214 q 591 142 479 142 q 806 176 696 142 l 806 22 q 695 -4 755 5 q 575 -13 636 -13 l 549 -13 l 549 -64 q 643 -100 611 -71 q 676 -180 676 -130 q 631 -269 676 -237 q 499 -300 586 -300 q 361 -277 426 -300 l 361 -202 q 491 -226 425 -226 q 555 -214 533 -226 q 577 -174 577 -201 q 490 -120 577 -120 l 458 -120 l 458 -6 q 164 147 265 22 q 63 512 63 273 q 198 909 63 777 q 585 1041 332 1041 q 806 1015 699 1041 l 806 860 q 599 886 706 886 z "},"Ḉ":{"ha":838,"x_min":63,"x_max":806,"o":"m 743 1317 l 591 1111 l 427 1111 l 551 1317 l 743 1317 m 599 886 q 408 849 483 886 q 295 730 333 811 q 258 515 258 648 q 295 296 258 378 q 406 178 333 214 q 591 142 479 142 q 806 176 696 142 l 806 22 q 695 -4 755 5 q 575 -13 636 -13 l 549 -13 l 549 -64 q 643 -100 611 -71 q 676 -180 676 -130 q 631 -269 676 -237 q 499 -300 586 -300 q 361 -277 426 -300 l 361 -202 q 491 -226 425 -226 q 555 -214 533 -226 q 577 -174 577 -201 q 490 -120 577 -120 l 458 -120 l 458 -6 q 164 147 265 22 q 63 512 63 273 q 198 909 63 777 q 585 1041 332 1041 q 806 1015 699 1041 l 806 860 q 599 886 706 886 z "},"Ĉ":{"ha":838,"x_min":63,"x_max":806,"o":"m 575 -13 q 194 113 326 -13 q 63 512 63 239 q 198 909 63 777 q 585 1041 332 1041 q 806 1015 699 1041 l 806 860 q 599 886 706 886 q 408 849 483 886 q 295 730 333 811 q 258 515 258 648 q 295 296 258 378 q 406 178 333 214 q 591 142 479 142 q 806 176 696 142 l 806 22 q 695 -4 755 5 q 575 -13 636 -13 m 764 1111 l 621 1111 l 510 1247 l 399 1111 l 256 1111 l 431 1317 l 589 1317 l 764 1111 z "},"Ċ":{"ha":838,"x_min":63,"x_max":806,"o":"m 575 -13 q 194 113 326 -13 q 63 512 63 239 q 198 909 63 777 q 585 1041 332 1041 q 806 1015 699 1041 l 806 860 q 599 886 706 886 q 408 849 483 886 q 295 730 333 811 q 258 515 258 648 q 295 296 258 378 q 406 178 333 214 q 591 142 479 142 q 806 176 696 142 l 806 22 q 695 -4 755 5 q 575 -13 636 -13 m 510 1128 q 424 1151 453 1128 q 395 1216 395 1174 q 424 1281 395 1258 q 510 1303 453 1303 q 595 1281 566 1303 q 624 1216 624 1258 q 595 1151 624 1174 q 510 1128 566 1128 z "},"D":{"ha":1017,"x_min":101,"x_max":954,"o":"m 369 -10 q 101 6 236 -10 l 101 1007 q 251 1030 171 1022 q 407 1039 332 1039 q 817 910 680 1039 q 954 514 954 781 q 890 216 954 331 q 695 45 825 100 q 369 -10 566 -10 m 415 142 q 611 180 534 142 q 726 300 688 218 q 764 515 764 382 q 726 728 764 646 q 611 849 688 810 q 418 888 535 888 q 287 876 359 888 l 287 149 q 415 142 340 142 z "},"Ǳ":{"ha":1823,"x_min":101,"x_max":1781,"o":"m 369 -10 q 101 6 236 -10 l 101 1007 q 251 1030 171 1022 q 407 1039 332 1039 q 817 910 680 1039 q 954 514 954 781 q 890 216 954 331 q 695 45 825 100 q 369 -10 566 -10 m 415 142 q 611 180 534 142 q 726 300 688 218 q 764 515 764 382 q 726 728 764 646 q 611 849 688 810 q 418 888 535 888 q 287 876 359 888 l 287 149 q 415 142 340 142 m 1266 154 l 1781 154 l 1781 0 l 1026 0 l 1026 102 l 1533 874 l 1033 874 l 1033 1028 l 1773 1028 l 1773 926 l 1266 154 z "},"Ǆ":{"ha":1823,"x_min":101,"x_max":1781,"o":"m 369 -10 q 101 6 236 -10 l 101 1007 q 251 1030 171 1022 q 407 1039 332 1039 q 817 910 680 1039 q 954 514 954 781 q 890 216 954 331 q 695 45 825 100 q 369 -10 566 -10 m 415 142 q 611 180 534 142 q 726 300 688 218 q 764 515 764 382 q 726 728 764 646 q 611 849 688 810 q 418 888 535 888 q 287 876 359 888 l 287 149 q 415 142 340 142 m 1266 154 l 1781 154 l 1781 0 l 1026 0 l 1026 102 l 1533 874 l 1033 874 l 1033 1028 l 1773 1028 l 1773 926 l 1266 154 m 1515 1317 l 1658 1317 l 1483 1111 l 1324 1111 l 1149 1317 l 1292 1317 l 1403 1181 l 1515 1317 z "},"Ð":{"ha":1017,"x_min":1,"x_max":954,"o":"m 407 1039 q 817 910 680 1039 q 954 514 954 781 q 890 216 954 331 q 695 45 825 100 q 369 -10 566 -10 q 101 6 236 -10 l 101 469 l 1 469 l 1 590 l 101 590 l 101 1007 q 251 1030 171 1022 q 407 1039 332 1039 m 415 142 q 611 180 534 142 q 726 300 688 218 q 764 515 764 382 q 726 728 764 646 q 611 849 688 810 q 418 888 535 888 q 287 876 359 888 l 287 590 l 490 590 l 490 469 l 287 469 l 287 149 q 415 142 340 142 z "},"Ď":{"ha":1017,"x_min":101,"x_max":954,"o":"m 369 -10 q 101 6 236 -10 l 101 1007 q 251 1030 171 1022 q 407 1039 332 1039 q 817 910 680 1039 q 954 514 954 781 q 890 216 954 331 q 695 45 825 100 q 369 -10 566 -10 m 415 142 q 611 180 534 142 q 726 300 688 218 q 764 515 764 382 q 726 728 764 646 q 611 849 688 810 q 418 888 535 888 q 287 876 359 888 l 287 149 q 415 142 340 142 m 567 1317 l 710 1317 l 535 1111 l 376 1111 l 201 1317 l 344 1317 l 456 1181 l 567 1317 z "},"Đ":{"ha":1017,"x_min":1,"x_max":954,"o":"m 407 1039 q 817 910 680 1039 q 954 514 954 781 q 890 216 954 331 q 695 45 825 100 q 369 -10 566 -10 q 101 6 236 -10 l 101 469 l 1 469 l 1 590 l 101 590 l 101 1007 q 251 1030 171 1022 q 407 1039 332 1039 m 415 142 q 611 180 534 142 q 726 300 688 218 q 764 515 764 382 q 726 728 764 646 q 611 849 688 810 q 418 888 535 888 q 287 876 359 888 l 287 590 l 490 590 l 490 469 l 287 469 l 287 149 q 415 142 340 142 z "},"Ḍ":{"ha":1017,"x_min":101,"x_max":954,"o":"m 369 -10 q 101 6 236 -10 l 101 1007 q 251 1030 171 1022 q 407 1039 332 1039 q 817 910 680 1039 q 954 514 954 781 q 890 216 954 331 q 695 45 825 100 q 369 -10 566 -10 m 415 142 q 611 180 534 142 q 726 300 688 218 q 764 515 764 382 q 726 728 764 646 q 611 849 688 810 q 418 888 535 888 q 287 876 359 888 l 287 149 q 415 142 340 142 m 463 -273 q 378 -250 407 -273 q 349 -185 349 -227 q 378 -121 349 -144 q 463 -98 407 -98 q 549 -121 519 -98 q 578 -185 578 -144 q 549 -250 578 -227 q 463 -273 519 -273 z "},"Ḏ":{"ha":1017,"x_min":101,"x_max":954,"o":"m 369 -10 q 101 6 236 -10 l 101 1007 q 251 1030 171 1022 q 407 1039 332 1039 q 817 910 680 1039 q 954 514 954 781 q 890 216 954 331 q 695 45 825 100 q 369 -10 566 -10 m 415 142 q 611 180 534 142 q 726 300 688 218 q 764 515 764 382 q 726 728 764 646 q 611 849 688 810 q 418 888 535 888 q 287 876 359 888 l 287 149 q 415 142 340 142 m 223 -237 l 223 -126 l 703 -126 l 703 -237 l 223 -237 z "},"ǲ":{"ha":1699,"x_min":101,"x_max":1663,"o":"m 369 -10 q 101 6 236 -10 l 101 1007 q 251 1030 171 1022 q 407 1039 332 1039 q 817 910 680 1039 q 954 514 954 781 q 890 216 954 331 q 695 45 825 100 q 369 -10 566 -10 m 415 142 q 611 180 534 142 q 726 300 688 218 q 764 515 764 382 q 726 728 764 646 q 611 849 688 810 q 418 888 535 888 q 287 876 359 888 l 287 149 q 415 142 340 142 m 1289 145 l 1663 145 l 1663 0 l 1063 0 l 1063 115 l 1428 613 l 1070 613 l 1070 758 l 1655 758 l 1655 643 l 1289 145 z "},"ǅ":{"ha":1699,"x_min":101,"x_max":1663,"o":"m 369 -10 q 101 6 236 -10 l 101 1007 q 251 1030 171 1022 q 407 1039 332 1039 q 817 910 680 1039 q 954 514 954 781 q 890 216 954 331 q 695 45 825 100 q 369 -10 566 -10 m 415 142 q 611 180 534 142 q 726 300 688 218 q 764 515 764 382 q 726 728 764 646 q 611 849 688 810 q 418 888 535 888 q 287 876 359 888 l 287 149 q 415 142 340 142 m 1289 145 l 1663 145 l 1663 0 l 1063 0 l 1063 115 l 1428 613 l 1070 613 l 1070 758 l 1655 758 l 1655 643 l 1289 145 m 1474 1094 l 1617 1094 l 1442 889 l 1284 889 l 1109 1094 l 1252 1094 l 1363 959 l 1474 1094 z "},"E":{"ha":849,"x_min":101,"x_max":800,"o":"m 285 149 l 800 149 l 800 0 l 101 0 l 101 1028 l 793 1028 l 793 878 l 285 878 l 285 601 l 724 601 l 724 451 l 285 451 l 285 149 z "},"É":{"ha":849,"x_min":101,"x_max":800,"o":"m 285 149 l 800 149 l 800 0 l 101 0 l 101 1028 l 793 1028 l 793 878 l 285 878 l 285 601 l 724 601 l 724 451 l 285 451 l 285 149 m 380 1111 l 503 1317 l 696 1317 l 544 1111 l 380 1111 z "},"Ĕ":{"ha":849,"x_min":101,"x_max":800,"o":"m 285 149 l 800 149 l 800 0 l 101 0 l 101 1028 l 793 1028 l 793 878 l 285 878 l 285 601 l 724 601 l 724 451 l 285 451 l 285 149 m 463 1115 q 286 1166 349 1115 q 213 1308 223 1217 l 326 1308 q 367 1232 335 1257 q 463 1208 400 1208 q 558 1232 526 1208 q 599 1308 590 1257 l 713 1308 q 640 1166 702 1217 q 463 1115 577 1115 z "},"Ě":{"ha":849,"x_min":101,"x_max":800,"o":"m 285 149 l 800 149 l 800 0 l 101 0 l 101 1028 l 793 1028 l 793 878 l 285 878 l 285 601 l 724 601 l 724 451 l 285 451 l 285 149 m 574 1317 l 717 1317 l 542 1111 l 383 1111 l 208 1317 l 351 1317 l 463 1181 l 574 1317 z "},"Ḝ":{"ha":849,"x_min":101,"x_max":800,"o":"m 463 1115 q 286 1166 349 1115 q 213 1308 223 1217 l 326 1308 q 367 1232 335 1257 q 463 1208 400 1208 q 558 1232 526 1208 q 599 1308 590 1257 l 713 1308 q 640 1166 702 1217 q 463 1115 577 1115 m 499 0 l 499 -64 q 593 -100 560 -71 q 625 -180 625 -130 q 580 -269 625 -237 q 449 -300 535 -300 q 310 -277 375 -300 l 310 -202 q 440 -226 374 -226 q 505 -214 483 -226 q 526 -174 526 -201 q 440 -120 526 -120 l 408 -120 l 408 0 l 101 0 l 101 1028 l 793 1028 l 793 878 l 285 878 l 285 601 l 724 601 l 724 451 l 285 451 l 285 149 l 800 149 l 800 0 l 499 0 z "},"Ê":{"ha":849,"x_min":101,"x_max":800,"o":"m 285 149 l 800 149 l 800 0 l 101 0 l 101 1028 l 793 1028 l 793 878 l 285 878 l 285 601 l 724 601 l 724 451 l 285 451 l 285 149 m 717 1111 l 574 1111 l 463 1247 l 351 1111 l 208 1111 l 383 1317 l 542 1317 l 717 1111 z "},"Ế":{"ha":849,"x_min":101,"x_max":851,"o":"m 285 149 l 800 149 l 800 0 l 101 0 l 101 1028 l 793 1028 l 793 878 l 285 878 l 285 601 l 724 601 l 724 451 l 285 451 l 285 149 m 721 1433 l 851 1433 l 734 1258 l 630 1258 l 721 1433 m 383 1300 l 542 1300 l 717 1111 l 574 1111 l 463 1238 l 351 1111 l 208 1111 l 383 1300 z "},"Ệ":{"ha":849,"x_min":101,"x_max":800,"o":"m 285 149 l 800 149 l 800 0 l 101 0 l 101 1028 l 793 1028 l 793 878 l 285 878 l 285 601 l 724 601 l 724 451 l 285 451 l 285 149 m 463 -273 q 378 -250 407 -273 q 349 -185 349 -227 q 378 -121 349 -144 q 463 -98 407 -98 q 549 -121 519 -98 q 578 -185 578 -144 q 549 -250 578 -227 q 463 -273 519 -273 m 717 1111 l 574 1111 l 463 1247 l 351 1111 l 208 1111 l 383 1317 l 542 1317 l 717 1111 z "},"Ề":{"ha":849,"x_min":101,"x_max":800,"o":"m 285 149 l 800 149 l 800 0 l 101 0 l 101 1028 l 793 1028 l 793 878 l 285 878 l 285 601 l 724 601 l 724 451 l 285 451 l 285 149 m 756 1258 l 651 1258 l 535 1433 l 665 1433 l 756 1258 m 383 1300 l 542 1300 l 717 1111 l 574 1111 l 463 1238 l 351 1111 l 208 1111 l 383 1300 z "},"Ể":{"ha":849,"x_min":101,"x_max":845,"o":"m 285 149 l 800 149 l 800 0 l 101 0 l 101 1028 l 793 1028 l 793 878 l 285 878 l 285 601 l 724 601 l 724 451 l 285 451 l 285 149 m 681 1456 q 845 1374 845 1456 q 828 1333 845 1348 q 778 1303 811 1318 q 741 1282 753 1292 q 726 1258 728 1272 l 630 1258 q 641 1291 631 1277 q 666 1312 652 1304 q 703 1330 680 1320 q 735 1346 725 1339 q 746 1364 746 1353 q 667 1390 746 1390 q 533 1372 597 1390 l 533 1437 q 602 1451 562 1446 q 681 1456 642 1456 m 383 1300 l 542 1300 l 717 1111 l 574 1111 l 463 1238 l 351 1111 l 208 1111 l 383 1300 z "},"Ễ":{"ha":849,"x_min":101,"x_max":800,"o":"m 285 149 l 800 149 l 800 0 l 101 0 l 101 1028 l 793 1028 l 793 878 l 285 878 l 285 601 l 724 601 l 724 451 l 285 451 l 285 149 m 576 1410 q 646 1422 614 1410 q 717 1458 678 1433 l 717 1373 q 651 1340 685 1349 q 575 1331 618 1331 q 516 1337 544 1331 q 449 1355 488 1343 q 394 1370 417 1365 q 349 1376 372 1376 q 278 1365 310 1376 q 208 1328 247 1354 l 208 1413 q 274 1447 241 1437 q 350 1457 308 1457 q 408 1451 381 1457 q 476 1432 435 1444 q 532 1416 509 1421 q 576 1410 554 1410 m 383 1300 l 542 1300 l 717 1111 l 574 1111 l 463 1238 l 351 1111 l 208 1111 l 383 1300 z "},"Ȅ":{"ha":849,"x_min":101,"x_max":800,"o":"m 285 149 l 800 149 l 800 0 l 101 0 l 101 1028 l 793 1028 l 793 878 l 285 878 l 285 601 l 724 601 l 724 451 l 285 451 l 285 149 m 263 1111 l 161 1317 l 307 1317 l 399 1111 l 263 1111 m 526 1111 l 424 1317 l 570 1317 l 662 1111 l 526 1111 z "},"Ë":{"ha":849,"x_min":101,"x_max":800,"o":"m 285 149 l 800 149 l 800 0 l 101 0 l 101 1028 l 793 1028 l 793 878 l 285 878 l 285 601 l 724 601 l 724 451 l 285 451 l 285 149 m 290 1128 q 215 1151 241 1128 q 189 1216 189 1174 q 215 1281 189 1258 q 290 1303 241 1303 q 366 1281 340 1303 q 392 1216 392 1258 q 366 1151 392 1174 q 290 1128 340 1128 m 635 1128 q 559 1151 585 1128 q 533 1216 533 1174 q 559 1281 533 1258 q 635 1303 585 1303 q 710 1281 684 1303 q 736 1216 736 1258 q 710 1151 736 1174 q 635 1128 684 1128 z "},"Ė":{"ha":849,"x_min":101,"x_max":800,"o":"m 285 149 l 800 149 l 800 0 l 101 0 l 101 1028 l 793 1028 l 793 878 l 285 878 l 285 601 l 724 601 l 724 451 l 285 451 l 285 149 m 463 1128 q 377 1151 406 1128 q 348 1216 348 1174 q 377 1281 348 1258 q 463 1303 406 1303 q 548 1281 519 1303 q 577 1216 577 1258 q 548 1151 577 1174 q 463 1128 519 1128 z "},"Ẹ":{"ha":849,"x_min":101,"x_max":800,"o":"m 285 149 l 800 149 l 800 0 l 101 0 l 101 1028 l 793 1028 l 793 878 l 285 878 l 285 601 l 724 601 l 724 451 l 285 451 l 285 149 m 463 -273 q 378 -250 407 -273 q 349 -185 349 -227 q 378 -121 349 -144 q 463 -98 407 -98 q 549 -121 519 -98 q 578 -185 578 -144 q 549 -250 578 -227 q 463 -273 519 -273 z "},"È":{"ha":849,"x_min":101,"x_max":800,"o":"m 285 149 l 800 149 l 800 0 l 101 0 l 101 1028 l 793 1028 l 793 878 l 285 878 l 285 601 l 724 601 l 724 451 l 285 451 l 285 149 m 381 1111 l 228 1317 l 421 1317 l 544 1111 l 381 1111 z "},"Ẻ":{"ha":849,"x_min":101,"x_max":800,"o":"m 285 149 l 800 149 l 800 0 l 101 0 l 101 1028 l 793 1028 l 793 878 l 285 878 l 285 601 l 724 601 l 724 451 l 285 451 l 285 149 m 415 1111 q 436 1158 417 1142 q 488 1190 455 1174 q 520 1207 510 1199 q 531 1225 531 1215 q 512 1246 531 1239 q 452 1253 494 1253 q 318 1234 383 1253 l 318 1307 q 387 1322 347 1316 q 465 1327 426 1327 q 589 1304 549 1327 q 630 1238 630 1281 q 620 1204 630 1218 q 598 1181 611 1190 q 563 1160 585 1172 q 525 1137 538 1147 q 510 1111 513 1126 l 415 1111 z "},"Ȇ":{"ha":849,"x_min":101,"x_max":800,"o":"m 285 149 l 800 149 l 800 0 l 101 0 l 101 1028 l 793 1028 l 793 878 l 285 878 l 285 601 l 724 601 l 724 451 l 285 451 l 285 149 m 213 1120 q 285 1261 223 1210 q 462 1313 348 1313 q 639 1261 576 1313 q 713 1120 702 1210 l 599 1120 q 558 1195 590 1170 q 462 1219 526 1219 q 366 1195 398 1219 q 326 1120 335 1170 l 213 1120 z "},"Ē":{"ha":849,"x_min":101,"x_max":800,"o":"m 285 149 l 800 149 l 800 0 l 101 0 l 101 1028 l 793 1028 l 793 878 l 285 878 l 285 601 l 724 601 l 724 451 l 285 451 l 285 149 m 222 1158 l 222 1270 l 703 1270 l 703 1158 l 222 1158 z "},"Ḗ":{"ha":849,"x_min":101,"x_max":800,"o":"m 285 149 l 800 149 l 800 0 l 101 0 l 101 1028 l 793 1028 l 793 878 l 285 878 l 285 601 l 724 601 l 724 451 l 285 451 l 285 149 m 372 1347 l 494 1508 l 706 1508 l 554 1347 l 372 1347 m 222 1158 l 222 1270 l 703 1270 l 703 1158 l 222 1158 z "},"Ḕ":{"ha":849,"x_min":101,"x_max":800,"o":"m 285 149 l 800 149 l 800 0 l 101 0 l 101 1028 l 793 1028 l 793 878 l 285 878 l 285 601 l 724 601 l 724 451 l 285 451 l 285 149 m 372 1347 l 219 1508 l 430 1508 l 553 1347 l 372 1347 m 222 1158 l 222 1270 l 703 1270 l 703 1158 l 222 1158 z "},"Ę":{"ha":849,"x_min":101,"x_max":800,"o":"m 740 0 q 620 -71 654 -35 q 586 -150 586 -107 q 685 -224 586 -224 q 789 -201 731 -224 l 789 -276 q 663 -300 728 -300 q 526 -264 572 -300 q 479 -162 479 -228 q 505 -74 479 -115 q 590 0 531 -34 l 101 0 l 101 1028 l 793 1028 l 793 878 l 285 878 l 285 601 l 724 601 l 724 451 l 285 451 l 285 149 l 800 149 l 800 0 l 740 0 z "},"Ẽ":{"ha":849,"x_min":101,"x_max":800,"o":"m 285 149 l 800 149 l 800 0 l 101 0 l 101 1028 l 793 1028 l 793 878 l 285 878 l 285 601 l 724 601 l 724 451 l 285 451 l 285 149 m 577 1137 q 519 1144 546 1137 q 451 1165 492 1151 q 392 1184 415 1178 q 344 1190 369 1190 q 274 1178 305 1190 q 213 1141 244 1166 l 213 1249 q 271 1286 239 1274 q 348 1298 303 1298 q 407 1291 379 1298 q 474 1269 435 1283 q 533 1250 510 1256 q 581 1244 556 1244 q 651 1256 620 1244 q 712 1293 681 1268 l 712 1185 q 654 1148 686 1160 q 577 1137 622 1137 z "},"F":{"ha":821,"x_min":101,"x_max":790,"o":"m 790 876 l 287 876 l 287 584 l 720 584 l 720 432 l 287 432 l 287 0 l 101 0 l 101 1028 l 790 1028 l 790 876 z "},"G":{"ha":970,"x_min":63,"x_max":876,"o":"m 876 500 l 876 11 q 630 -10 747 -10 q 205 117 345 -10 q 63 512 64 244 q 206 910 63 778 q 619 1041 349 1041 q 849 1013 738 1041 l 849 859 q 633 886 743 886 q 423 849 506 886 q 299 728 340 811 q 257 510 257 645 q 345 231 257 318 q 617 143 433 143 q 703 147 656 143 l 703 500 l 876 500 z "},"Ǵ":{"ha":970,"x_min":63,"x_max":876,"o":"m 876 500 l 876 11 q 630 -10 747 -10 q 205 117 345 -10 q 63 512 64 244 q 206 910 63 778 q 619 1041 349 1041 q 849 1013 738 1041 l 849 859 q 633 886 743 886 q 423 849 506 886 q 299 728 340 811 q 257 510 257 645 q 345 231 257 318 q 617 143 433 143 q 703 147 656 143 l 703 500 l 876 500 m 460 1111 l 584 1317 l 776 1317 l 624 1111 l 460 1111 z "},"Ğ":{"ha":970,"x_min":63,"x_max":876,"o":"m 876 500 l 876 11 q 630 -10 747 -10 q 205 117 345 -10 q 63 512 64 244 q 206 910 63 778 q 619 1041 349 1041 q 849 1013 738 1041 l 849 859 q 633 886 743 886 q 423 849 506 886 q 299 728 340 811 q 257 510 257 645 q 345 231 257 318 q 617 143 433 143 q 703 147 656 143 l 703 500 l 876 500 m 544 1115 q 367 1166 430 1115 q 293 1308 303 1217 l 407 1308 q 448 1232 415 1257 q 544 1208 481 1208 q 639 1232 607 1208 q 679 1308 671 1257 l 793 1308 q 720 1166 783 1217 q 544 1115 658 1115 z "},"Ǧ":{"ha":970,"x_min":63,"x_max":876,"o":"m 876 500 l 876 11 q 630 -10 747 -10 q 205 117 345 -10 q 63 512 64 244 q 206 910 63 778 q 619 1041 349 1041 q 849 1013 738 1041 l 849 859 q 633 886 743 886 q 423 849 506 886 q 299 728 340 811 q 257 510 257 645 q 345 231 257 318 q 617 143 433 143 q 703 147 656 143 l 703 500 l 876 500 m 654 1317 l 797 1317 l 622 1111 l 464 1111 l 289 1317 l 432 1317 l 543 1181 l 654 1317 z "},"Ĝ":{"ha":970,"x_min":63,"x_max":876,"o":"m 876 500 l 876 11 q 630 -10 747 -10 q 205 117 345 -10 q 63 512 64 244 q 206 910 63 778 q 619 1041 349 1041 q 849 1013 738 1041 l 849 859 q 633 886 743 886 q 423 849 506 886 q 299 728 340 811 q 257 510 257 645 q 345 231 257 318 q 617 143 433 143 q 703 147 656 143 l 703 500 l 876 500 m 797 1111 l 654 1111 l 543 1247 l 432 1111 l 289 1111 l 464 1317 l 622 1317 l 797 1111 z "},"Ģ":{"ha":970,"x_min":63,"x_max":876,"o":"m 876 500 l 876 11 q 630 -10 747 -10 q 205 117 345 -10 q 63 512 64 244 q 206 910 63 778 q 619 1041 349 1041 q 849 1013 738 1041 l 849 859 q 633 886 743 886 q 423 849 506 886 q 299 728 340 811 q 257 510 257 645 q 345 231 257 318 q 617 143 433 143 q 703 147 656 143 l 703 500 l 876 500 m 542 -98 q 649 -191 649 -98 q 635 -266 649 -226 q 600 -337 622 -306 l 488 -337 q 522 -238 516 -279 q 458 -216 479 -235 q 438 -168 438 -198 q 464 -116 438 -135 q 542 -98 490 -98 z "},"Ġ":{"ha":970,"x_min":63,"x_max":876,"o":"m 876 500 l 876 11 q 630 -10 747 -10 q 205 117 345 -10 q 63 512 64 244 q 206 910 63 778 q 619 1041 349 1041 q 849 1013 738 1041 l 849 859 q 633 886 743 886 q 423 849 506 886 q 299 728 340 811 q 257 510 257 645 q 345 231 257 318 q 617 143 433 143 q 703 147 656 143 l 703 500 l 876 500 m 543 1128 q 458 1151 487 1128 q 428 1216 428 1174 q 458 1281 428 1258 q 543 1303 487 1303 q 628 1281 599 1303 q 658 1216 658 1258 q 628 1151 658 1174 q 543 1128 599 1128 z "},"Ḡ":{"ha":970,"x_min":63,"x_max":876,"o":"m 876 500 l 876 11 q 630 -10 747 -10 q 205 117 345 -10 q 63 512 64 244 q 206 910 63 778 q 619 1041 349 1041 q 849 1013 738 1041 l 849 859 q 633 886 743 886 q 423 849 506 886 q 299 728 340 811 q 257 510 257 645 q 345 231 257 318 q 617 143 433 143 q 703 147 656 143 l 703 500 l 876 500 m 303 1158 l 303 1270 l 783 1270 l 783 1158 l 303 1158 z "},"H":{"ha":1040,"x_min":101,"x_max":938,"o":"m 101 0 l 101 1028 l 287 1028 l 287 608 l 753 608 l 753 1028 l 938 1028 l 938 0 l 753 0 l 753 444 l 287 444 l 287 0 l 101 0 z "},"Ħ":{"ha":1040,"x_min":2,"x_max":1038,"o":"m 1038 877 l 1038 760 l 938 760 l 938 0 l 753 0 l 753 444 l 287 444 l 287 0 l 101 0 l 101 760 l 2 760 l 2 877 l 101 877 l 101 1028 l 287 1028 l 287 877 l 753 877 l 753 1028 l 938 1028 l 938 877 l 1038 877 m 753 608 l 753 760 l 287 760 l 287 608 l 753 608 z "},"Ḫ":{"ha":1040,"x_min":101,"x_max":938,"o":"m 101 0 l 101 1028 l 287 1028 l 287 608 l 753 608 l 753 1028 l 938 1028 l 938 0 l 753 0 l 753 444 l 287 444 l 287 0 l 101 0 m 521 -297 q 342 -245 406 -297 q 270 -102 278 -192 l 384 -102 q 423 -178 390 -153 q 521 -204 456 -204 q 618 -178 585 -204 q 656 -102 651 -152 l 770 -102 q 699 -245 762 -193 q 521 -297 636 -297 z "},"Ĥ":{"ha":1040,"x_min":101,"x_max":938,"o":"m 101 0 l 101 1028 l 287 1028 l 287 608 l 753 608 l 753 1028 l 938 1028 l 938 0 l 753 0 l 753 444 l 287 444 l 287 0 l 101 0 m 774 1111 l 631 1111 l 520 1247 l 409 1111 l 266 1111 l 441 1317 l 599 1317 l 774 1111 z "},"Ḥ":{"ha":1040,"x_min":101,"x_max":938,"o":"m 101 0 l 101 1028 l 287 1028 l 287 608 l 753 608 l 753 1028 l 938 1028 l 938 0 l 753 0 l 753 444 l 287 444 l 287 0 l 101 0 m 520 -273 q 435 -250 464 -273 q 406 -185 406 -227 q 435 -121 406 -144 q 520 -98 464 -98 q 606 -121 576 -98 q 635 -185 635 -144 q 606 -250 635 -227 q 520 -273 576 -273 z "},"I":{"ha":388,"x_min":101,"x_max":287,"o":"m 101 0 l 101 1028 l 287 1028 l 287 0 l 101 0 z "},"Í":{"ha":388,"x_min":101,"x_max":428,"o":"m 101 0 l 101 1028 l 287 1028 l 287 0 l 101 0 m 112 1111 l 235 1317 l 428 1317 l 276 1111 l 112 1111 z "},"Ĭ":{"ha":388,"x_min":-56,"x_max":444,"o":"m 101 0 l 101 1028 l 287 1028 l 287 0 l 101 0 m 195 1115 q 18 1166 81 1115 q -56 1308 -45 1217 l 58 1308 q 99 1232 67 1257 q 195 1208 132 1208 q 290 1232 258 1208 q 331 1308 322 1257 l 444 1308 q 372 1166 434 1217 q 195 1115 309 1115 z "},"Î":{"ha":388,"x_min":-60,"x_max":449,"o":"m 101 0 l 101 1028 l 287 1028 l 287 0 l 101 0 m 449 1111 l 306 1111 l 194 1247 l 83 1111 l -60 1111 l 115 1317 l 274 1317 l 449 1111 z "},"Ȉ":{"ha":388,"x_min":-107,"x_max":394,"o":"m 101 0 l 101 1028 l 287 1028 l 287 0 l 101 0 m -5 1111 l -107 1317 l 39 1317 l 131 1111 l -5 1111 m 258 1111 l 156 1317 l 302 1317 l 394 1111 l 258 1111 z "},"Ï":{"ha":388,"x_min":-79,"x_max":468,"o":"m 101 0 l 101 1028 l 287 1028 l 287 0 l 101 0 m 22 1128 q -53 1151 -27 1128 q -79 1216 -79 1174 q -53 1281 -79 1258 q 22 1303 -27 1303 q 98 1281 72 1303 q 124 1216 124 1258 q 98 1151 124 1174 q 22 1128 72 1128 m 367 1128 q 291 1151 317 1128 q 265 1216 265 1174 q 291 1281 265 1258 q 367 1303 317 1303 q 442 1281 416 1303 q 468 1216 468 1258 q 442 1151 468 1174 q 367 1128 416 1128 z "},"Ḯ":{"ha":388,"x_min":-79,"x_max":468,"o":"m 101 0 l 101 1028 l 287 1028 l 287 0 l 101 0 m 103 1347 l 226 1508 l 438 1508 l 286 1347 l 103 1347 m 22 1128 q -53 1151 -27 1128 q -79 1216 -79 1174 q -53 1281 -79 1258 q 22 1303 -27 1303 q 98 1281 72 1303 q 124 1216 124 1258 q 98 1151 124 1174 q 22 1128 72 1128 m 367 1128 q 291 1151 317 1128 q 265 1216 265 1174 q 291 1281 265 1258 q 367 1303 317 1303 q 442 1281 416 1303 q 468 1216 468 1258 q 442 1151 468 1174 q 367 1128 416 1128 z "},"İ":{"ha":388,"x_min":80,"x_max":309,"o":"m 101 0 l 101 1028 l 287 1028 l 287 0 l 101 0 m 194 1128 q 109 1151 138 1128 q 80 1216 80 1174 q 109 1281 80 1258 q 194 1303 138 1303 q 280 1281 251 1303 q 309 1216 309 1258 q 280 1151 309 1174 q 194 1128 251 1128 z "},"Ị":{"ha":388,"x_min":79,"x_max":308,"o":"m 101 0 l 101 1028 l 287 1028 l 287 0 l 101 0 m 194 -273 q 108 -250 138 -273 q 79 -185 79 -227 q 108 -121 79 -144 q 194 -98 138 -98 q 279 -121 250 -98 q 308 -185 308 -144 q 279 -250 308 -227 q 194 -273 250 -273 z "},"Ì":{"ha":388,"x_min":-40,"x_max":287,"o":"m 101 0 l 101 1028 l 287 1028 l 287 0 l 101 0 m 113 1111 l -40 1317 l 153 1317 l 276 1111 l 113 1111 z "},"Ỉ":{"ha":388,"x_min":50,"x_max":362,"o":"m 101 0 l 101 1028 l 287 1028 l 287 0 l 101 0 m 147 1111 q 168 1158 149 1142 q 220 1190 187 1174 q 252 1207 242 1199 q 263 1225 263 1215 q 244 1246 263 1239 q 184 1253 226 1253 q 50 1234 115 1253 l 50 1307 q 119 1322 79 1316 q 197 1327 158 1327 q 321 1304 281 1327 q 362 1238 362 1281 q 352 1204 362 1218 q 330 1181 343 1190 q 294 1160 317 1172 q 257 1137 269 1147 q 242 1111 244 1126 l 147 1111 z "},"Ȋ":{"ha":388,"x_min":-56,"x_max":444,"o":"m 101 0 l 101 1028 l 287 1028 l 287 0 l 101 0 m -56 1120 q 17 1261 -45 1210 q 194 1313 80 1313 q 371 1261 308 1313 q 444 1120 434 1210 l 331 1120 q 290 1195 322 1170 q 194 1219 258 1219 q 98 1195 130 1219 q 58 1120 67 1170 l -56 1120 z "},"Ī":{"ha":388,"x_min":-46,"x_max":435,"o":"m 101 0 l 101 1028 l 287 1028 l 287 0 l 101 0 m -46 1158 l -46 1270 l 435 1270 l 435 1158 l -46 1158 z "},"Į":{"ha":388,"x_min":26,"x_max":335,"o":"m 232 -224 q 335 -201 278 -224 l 335 -276 q 210 -300 275 -300 q 72 -264 119 -300 q 26 -162 26 -228 q 52 -74 26 -115 q 136 0 78 -34 l 101 0 l 101 1028 l 287 1028 l 287 0 q 167 -71 201 -35 q 133 -150 133 -107 q 232 -224 133 -224 z "},"Ĩ":{"ha":388,"x_min":-55,"x_max":444,"o":"m 101 0 l 101 1028 l 287 1028 l 287 0 l 101 0 m 309 1137 q 251 1144 278 1137 q 183 1165 224 1151 q 124 1184 147 1178 q 76 1190 101 1190 q 6 1178 37 1190 q -55 1141 -24 1166 l -55 1249 q 3 1286 -29 1274 q 80 1298 35 1298 q 139 1291 111 1298 q 206 1269 167 1283 q 265 1250 242 1256 q 313 1244 288 1244 q 383 1256 352 1244 q 444 1293 413 1268 l 444 1185 q 386 1148 418 1160 q 309 1137 353 1137 z "},"J":{"ha":388,"x_min":-12,"x_max":287,"o":"m -12 -162 q 76 6 51 -78 q 102 206 102 90 l 102 1028 l 287 1028 l 287 201 q 243 -32 284 72 q 107 -242 203 -135 l -12 -162 z "},"Ĵ":{"ha":388,"x_min":-60,"x_max":449,"o":"m -12 -162 q 76 6 51 -78 q 102 206 102 90 l 102 1028 l 287 1028 l 287 201 q 243 -32 284 72 q 107 -242 203 -135 l -12 -162 m 449 1111 l 306 1111 l 194 1247 l 83 1111 l -60 1111 l 115 1317 l 274 1317 l 449 1111 z "},"K":{"ha":900,"x_min":101,"x_max":926,"o":"m 724 0 l 405 444 l 287 444 l 287 0 l 101 0 l 101 1028 l 287 1028 l 287 608 l 406 608 l 700 1028 l 897 1028 l 549 530 l 926 0 l 724 0 z "},"Ķ":{"ha":900,"x_min":101,"x_max":926,"o":"m 724 0 l 405 444 l 287 444 l 287 0 l 101 0 l 101 1028 l 287 1028 l 287 608 l 406 608 l 700 1028 l 897 1028 l 549 530 l 926 0 l 724 0 m 470 -98 q 577 -191 577 -98 q 564 -266 577 -226 q 528 -337 551 -306 l 416 -337 q 451 -238 444 -279 q 387 -216 408 -235 q 366 -168 366 -198 q 392 -116 366 -135 q 470 -98 418 -98 z "},"L":{"ha":778,"x_min":101,"x_max":772,"o":"m 101 0 l 101 1028 l 287 1028 l 287 155 l 772 155 l 772 0 l 101 0 z "},"Ǉ":{"ha":1167,"x_min":101,"x_max":1065,"o":"m 101 0 l 101 1028 l 287 1028 l 287 155 l 772 155 l 772 0 l 101 0 m 767 -162 q 855 6 829 -78 q 881 206 881 90 l 881 1028 l 1065 1028 l 1065 201 q 1022 -32 1063 72 q 885 -242 981 -135 l 767 -162 z "},"Ĺ":{"ha":778,"x_min":101,"x_max":772,"o":"m 101 0 l 101 1028 l 287 1028 l 287 155 l 772 155 l 772 0 l 101 0 m 113 1111 l 237 1317 l 429 1317 l 277 1111 l 113 1111 z "},"Ľ":{"ha":778,"x_min":101,"x_max":772,"o":"m 101 0 l 101 1028 l 287 1028 l 287 155 l 772 155 l 772 0 l 101 0 m 494 792 q 508 941 504 865 q 512 1122 512 1018 l 636 1122 q 594 792 636 928 l 494 792 z "},"Ļ":{"ha":778,"x_min":101,"x_max":772,"o":"m 101 0 l 101 1028 l 287 1028 l 287 155 l 772 155 l 772 0 l 101 0 m 435 -98 q 542 -191 542 -98 q 529 -266 542 -226 q 494 -337 516 -306 l 381 -337 q 416 -238 410 -279 q 352 -216 373 -235 q 331 -168 331 -198 q 357 -116 331 -135 q 435 -98 383 -98 z "},"Ŀ":{"ha":778,"x_min":101,"x_max":772,"o":"m 101 0 l 101 1028 l 287 1028 l 287 155 l 772 155 l 772 0 l 101 0 m 577 490 q 491 516 519 490 q 462 589 462 541 q 491 663 462 637 q 577 688 519 688 q 664 663 635 688 q 692 589 692 637 q 664 516 692 541 q 577 490 635 490 z "},"Ḷ":{"ha":778,"x_min":101,"x_max":772,"o":"m 101 0 l 101 1028 l 287 1028 l 287 155 l 772 155 l 772 0 l 101 0 m 437 -273 q 351 -250 381 -273 q 322 -185 322 -227 q 351 -121 322 -144 q 437 -98 381 -98 q 522 -121 493 -98 q 551 -185 551 -144 q 522 -250 551 -227 q 437 -273 493 -273 z "},"ǈ":{"ha":1142,"x_min":101,"x_max":1074,"o":"m 101 0 l 101 1028 l 287 1028 l 287 155 l 772 155 l 772 0 l 101 0 m 755 -247 q 843 -79 817 -162 q 869 121 869 4 l 869 758 l 1051 758 l 1051 129 q 1010 -112 1051 -6 q 873 -326 969 -218 l 755 -247 m 958 890 q 872 915 901 890 q 843 988 843 940 q 872 1062 843 1036 q 958 1088 901 1088 q 1045 1062 1016 1088 q 1074 988 1074 1036 q 1045 915 1074 940 q 958 890 1016 890 z "},"Ḻ":{"ha":778,"x_min":101,"x_max":772,"o":"m 101 0 l 101 1028 l 287 1028 l 287 155 l 772 155 l 772 0 l 101 0 m 197 -237 l 197 -126 l 677 -126 l 677 -237 l 197 -237 z "},"Ł":{"ha":778,"x_min":-26,"x_max":772,"o":"m 287 155 l 772 155 l 772 0 l 101 0 l 101 438 l 31 394 l -26 500 l 101 578 l 101 1028 l 287 1028 l 287 692 l 474 808 l 531 702 l 287 551 l 287 155 z "},"M":{"ha":1275,"x_min":104,"x_max":1171,"o":"m 947 1028 l 1171 1028 l 1171 0 l 997 0 l 997 776 l 715 147 l 560 147 l 278 762 l 278 0 l 104 0 l 104 1028 l 328 1028 l 641 335 l 947 1028 z "},"Ṃ":{"ha":1275,"x_min":104,"x_max":1171,"o":"m 947 1028 l 1171 1028 l 1171 0 l 997 0 l 997 776 l 715 147 l 560 147 l 278 762 l 278 0 l 104 0 l 104 1028 l 328 1028 l 641 335 l 947 1028 m 649 -273 q 563 -250 592 -273 q 534 -185 534 -227 q 563 -121 534 -144 q 649 -98 592 -98 q 734 -121 705 -98 q 763 -185 763 -144 q 734 -250 763 -227 q 649 -273 705 -273 z "},"N":{"ha":1053,"x_min":101,"x_max":952,"o":"m 778 1028 l 952 1028 l 952 0 l 765 0 l 276 749 l 276 0 l 101 0 l 101 1028 l 289 1028 l 778 278 l 778 1028 z "},"Ǌ":{"ha":1442,"x_min":101,"x_max":1340,"o":"m 778 1028 l 952 1028 l 952 0 l 765 0 l 276 749 l 276 0 l 101 0 l 101 1028 l 289 1028 l 778 278 l 778 1028 m 1042 -162 q 1130 6 1104 -78 q 1156 206 1156 90 l 1156 1028 l 1340 1028 l 1340 201 q 1297 -32 1338 72 q 1160 -242 1256 -135 l 1042 -162 z "},"Ń":{"ha":1053,"x_min":101,"x_max":952,"o":"m 778 1028 l 952 1028 l 952 0 l 765 0 l 276 749 l 276 0 l 101 0 l 101 1028 l 289 1028 l 778 278 l 778 1028 m 444 1111 l 568 1317 l 760 1317 l 608 1111 l 444 1111 z "},"Ň":{"ha":1053,"x_min":101,"x_max":952,"o":"m 778 1028 l 952 1028 l 952 0 l 765 0 l 276 749 l 276 0 l 101 0 l 101 1028 l 289 1028 l 778 278 l 778 1028 m 638 1317 l 781 1317 l 606 1111 l 448 1111 l 273 1317 l 416 1317 l 527 1181 l 638 1317 z "},"Ņ":{"ha":1053,"x_min":101,"x_max":952,"o":"m 778 1028 l 952 1028 l 952 0 l 765 0 l 276 749 l 276 0 l 101 0 l 101 1028 l 289 1028 l 778 278 l 778 1028 m 526 -98 q 633 -191 633 -98 q 619 -266 633 -226 q 584 -337 606 -306 l 472 -337 q 506 -238 500 -279 q 442 -216 463 -235 q 422 -168 422 -198 q 448 -116 422 -135 q 526 -98 474 -98 z "},"Ṅ":{"ha":1053,"x_min":101,"x_max":952,"o":"m 778 1028 l 952 1028 l 952 0 l 765 0 l 276 749 l 276 0 l 101 0 l 101 1028 l 289 1028 l 778 278 l 778 1028 m 527 1128 q 442 1151 471 1128 q 413 1216 413 1174 q 442 1281 413 1258 q 527 1303 471 1303 q 613 1281 583 1303 q 642 1216 642 1258 q 613 1151 642 1174 q 527 1128 583 1128 z "},"Ṇ":{"ha":1053,"x_min":101,"x_max":952,"o":"m 778 1028 l 952 1028 l 952 0 l 765 0 l 276 749 l 276 0 l 101 0 l 101 1028 l 289 1028 l 778 278 l 778 1028 m 527 -273 q 442 -250 471 -273 q 413 -185 413 -227 q 442 -121 413 -144 q 527 -98 471 -98 q 613 -121 583 -98 q 642 -185 642 -144 q 613 -250 642 -227 q 527 -273 583 -273 z "},"Ŋ":{"ha":1053,"x_min":101,"x_max":952,"o":"m 952 1028 l 952 144 q 934 -32 952 47 q 878 -182 917 -111 q 774 -326 840 -253 l 656 -247 q 729 -128 702 -185 q 767 -5 756 -71 l 276 749 l 276 0 l 101 0 l 101 1028 l 289 1028 l 778 280 l 778 1028 l 952 1028 z "},"ǋ":{"ha":1417,"x_min":101,"x_max":1349,"o":"m 778 1028 l 952 1028 l 952 0 l 765 0 l 276 749 l 276 0 l 101 0 l 101 1028 l 289 1028 l 778 278 l 778 1028 m 1030 -247 q 1118 -79 1092 -162 q 1144 121 1144 4 l 1144 758 l 1326 758 l 1326 129 q 1285 -112 1326 -6 q 1148 -326 1244 -218 l 1030 -247 m 1233 890 q 1147 915 1176 890 q 1118 988 1118 940 q 1147 1062 1118 1036 q 1233 1088 1176 1088 q 1320 1062 1291 1088 q 1349 988 1349 1036 q 1320 915 1349 940 q 1233 890 1291 890 z "},"Ṉ":{"ha":1053,"x_min":101,"x_max":952,"o":"m 778 1028 l 952 1028 l 952 0 l 765 0 l 276 749 l 276 0 l 101 0 l 101 1028 l 289 1028 l 778 278 l 778 1028 m 287 -237 l 287 -126 l 767 -126 l 767 -237 l 287 -237 z "},"Ñ":{"ha":1053,"x_min":101,"x_max":952,"o":"m 778 1028 l 952 1028 l 952 0 l 765 0 l 276 749 l 276 0 l 101 0 l 101 1028 l 289 1028 l 778 278 l 778 1028 m 642 1137 q 583 1144 610 1137 q 516 1165 556 1151 q 457 1184 479 1178 q 409 1190 434 1190 q 339 1178 369 1190 q 278 1141 308 1166 l 278 1249 q 336 1286 303 1274 q 413 1298 368 1298 q 472 1291 444 1298 q 538 1269 499 1283 q 598 1250 575 1256 q 645 1244 620 1244 q 715 1256 685 1244 q 776 1293 746 1268 l 776 1185 q 718 1148 751 1160 q 642 1137 686 1137 z "},"O":{"ha":1055,"x_min":63,"x_max":991,"o":"m 527 -13 q 280 44 384 -13 q 120 219 176 101 q 63 514 63 337 q 120 809 63 691 q 281 984 176 926 q 527 1041 385 1041 q 774 984 670 1041 q 934 809 878 926 q 991 514 991 691 q 934 219 991 338 q 773 44 877 101 q 527 -13 669 -13 m 527 138 q 730 227 660 138 q 801 510 801 315 q 730 800 801 710 q 527 890 659 890 q 325 801 395 890 q 254 518 254 713 q 324 228 254 317 q 527 138 394 138 z "},"Ó":{"ha":1055,"x_min":63,"x_max":991,"o":"m 527 -13 q 280 44 384 -13 q 120 219 176 101 q 63 514 63 337 q 120 809 63 691 q 281 984 176 926 q 527 1041 385 1041 q 774 984 670 1041 q 934 809 878 926 q 991 514 991 691 q 934 219 991 338 q 773 44 877 101 q 527 -13 669 -13 m 527 138 q 730 227 660 138 q 801 510 801 315 q 730 800 801 710 q 527 890 659 890 q 325 801 395 890 q 254 518 254 713 q 324 228 254 317 q 527 138 394 138 m 444 1111 l 568 1317 l 760 1317 l 608 1111 l 444 1111 z "},"Ŏ":{"ha":1055,"x_min":63,"x_max":991,"o":"m 527 -13 q 280 44 384 -13 q 120 219 176 101 q 63 514 63 337 q 120 809 63 691 q 281 984 176 926 q 527 1041 385 1041 q 774 984 670 1041 q 934 809 878 926 q 991 514 991 691 q 934 219 991 338 q 773 44 877 101 q 527 -13 669 -13 m 527 138 q 730 227 660 138 q 801 510 801 315 q 730 800 801 710 q 527 890 659 890 q 325 801 395 890 q 254 518 254 713 q 324 228 254 317 q 527 138 394 138 m 528 1115 q 351 1166 414 1115 q 277 1308 288 1217 l 391 1308 q 432 1232 399 1257 q 528 1208 465 1208 q 623 1232 591 1208 q 663 1308 655 1257 l 777 1308 q 704 1166 767 1217 q 528 1115 642 1115 z "},"Ô":{"ha":1055,"x_min":63,"x_max":991,"o":"m 527 -13 q 280 44 384 -13 q 120 219 176 101 q 63 514 63 337 q 120 809 63 691 q 281 984 176 926 q 527 1041 385 1041 q 774 984 670 1041 q 934 809 878 926 q 991 514 991 691 q 934 219 991 338 q 773 44 877 101 q 527 -13 669 -13 m 527 138 q 730 227 660 138 q 801 510 801 315 q 730 800 801 710 q 527 890 659 890 q 325 801 395 890 q 254 518 254 713 q 324 228 254 317 q 527 138 394 138 m 781 1111 l 638 1111 l 527 1247 l 416 1111 l 273 1111 l 448 1317 l 606 1317 l 781 1111 z "},"Ố":{"ha":1055,"x_min":63,"x_max":991,"o":"m 527 -13 q 280 44 384 -13 q 120 219 176 101 q 63 514 63 337 q 120 809 63 691 q 281 984 176 926 q 527 1041 385 1041 q 774 984 670 1041 q 934 809 878 926 q 991 514 991 691 q 934 219 991 338 q 773 44 877 101 q 527 -13 669 -13 m 527 138 q 730 227 660 138 q 801 510 801 315 q 730 800 801 710 q 527 890 659 890 q 325 801 395 890 q 254 518 254 713 q 324 228 254 317 q 527 138 394 138 m 785 1433 l 915 1433 l 799 1258 l 694 1258 l 785 1433 m 448 1300 l 606 1300 l 781 1111 l 638 1111 l 527 1238 l 416 1111 l 273 1111 l 448 1300 z "},"Ộ":{"ha":1055,"x_min":63,"x_max":991,"o":"m 527 -13 q 280 44 384 -13 q 120 219 176 101 q 63 514 63 337 q 120 809 63 691 q 281 984 176 926 q 527 1041 385 1041 q 774 984 670 1041 q 934 809 878 926 q 991 514 991 691 q 934 219 991 338 q 773 44 877 101 q 527 -13 669 -13 m 527 138 q 730 227 660 138 q 801 510 801 315 q 730 800 801 710 q 527 890 659 890 q 325 801 395 890 q 254 518 254 713 q 324 228 254 317 q 527 138 394 138 m 527 -273 q 442 -250 471 -273 q 413 -185 413 -227 q 442 -121 413 -144 q 527 -98 471 -98 q 613 -121 583 -98 q 642 -185 642 -144 q 613 -250 642 -227 q 527 -273 583 -273 m 781 1111 l 638 1111 l 527 1247 l 416 1111 l 273 1111 l 448 1317 l 606 1317 l 781 1111 z "},"Ồ":{"ha":1055,"x_min":63,"x_max":991,"o":"m 527 -13 q 280 44 384 -13 q 120 219 176 101 q 63 514 63 337 q 120 809 63 691 q 281 984 176 926 q 527 1041 385 1041 q 774 984 670 1041 q 934 809 878 926 q 991 514 991 691 q 934 219 991 338 q 773 44 877 101 q 527 -13 669 -13 m 527 138 q 730 227 660 138 q 801 510 801 315 q 730 800 801 710 q 527 890 659 890 q 325 801 395 890 q 254 518 254 713 q 324 228 254 317 q 527 138 394 138 m 820 1258 l 716 1258 l 599 1433 l 729 1433 l 820 1258 m 448 1300 l 606 1300 l 781 1111 l 638 1111 l 527 1238 l 416 1111 l 273 1111 l 448 1300 z "},"Ổ":{"ha":1055,"x_min":63,"x_max":991,"o":"m 527 -13 q 280 44 384 -13 q 120 219 176 101 q 63 514 63 337 q 120 809 63 691 q 281 984 176 926 q 527 1041 385 1041 q 774 984 670 1041 q 934 809 878 926 q 991 514 991 691 q 934 219 991 338 q 773 44 877 101 q 527 -13 669 -13 m 527 138 q 730 227 660 138 q 801 510 801 315 q 730 800 801 710 q 527 890 659 890 q 325 801 395 890 q 254 518 254 713 q 324 228 254 317 q 527 138 394 138 m 745 1456 q 910 1374 910 1456 q 893 1333 910 1348 q 843 1303 876 1318 q 805 1282 818 1292 q 790 1258 792 1272 l 694 1258 q 706 1291 695 1277 q 731 1312 717 1304 q 767 1330 744 1320 q 800 1346 790 1339 q 810 1364 810 1353 q 732 1390 810 1390 q 598 1372 662 1390 l 598 1437 q 666 1451 626 1446 q 745 1456 706 1456 m 448 1300 l 606 1300 l 781 1111 l 638 1111 l 527 1238 l 416 1111 l 273 1111 l 448 1300 z "},"Ỗ":{"ha":1055,"x_min":63,"x_max":991,"o":"m 527 -13 q 280 44 384 -13 q 120 219 176 101 q 63 514 63 337 q 120 809 63 691 q 281 984 176 926 q 527 1041 385 1041 q 774 984 670 1041 q 934 809 878 926 q 991 514 991 691 q 934 219 991 338 q 773 44 877 101 q 527 -13 669 -13 m 527 138 q 730 227 660 138 q 801 510 801 315 q 730 800 801 710 q 527 890 659 890 q 325 801 395 890 q 254 518 254 713 q 324 228 254 317 q 527 138 394 138 m 641 1410 q 711 1422 678 1410 q 781 1458 743 1433 l 781 1373 q 716 1340 749 1349 q 640 1331 683 1331 q 581 1337 608 1331 q 513 1355 553 1343 q 459 1370 482 1365 q 413 1376 436 1376 q 343 1365 375 1376 q 273 1328 311 1354 l 273 1413 q 339 1447 306 1437 q 415 1457 372 1457 q 472 1451 445 1457 q 541 1432 499 1444 q 596 1416 574 1421 q 641 1410 619 1410 m 448 1300 l 606 1300 l 781 1111 l 638 1111 l 527 1238 l 416 1111 l 273 1111 l 448 1300 z "},"Ȍ":{"ha":1055,"x_min":63,"x_max":991,"o":"m 527 -13 q 280 44 384 -13 q 120 219 176 101 q 63 514 63 337 q 120 809 63 691 q 281 984 176 926 q 527 1041 385 1041 q 774 984 670 1041 q 934 809 878 926 q 991 514 991 691 q 934 219 991 338 q 773 44 877 101 q 527 -13 669 -13 m 527 138 q 730 227 660 138 q 801 510 801 315 q 730 800 801 710 q 527 890 659 890 q 325 801 395 890 q 254 518 254 713 q 324 228 254 317 q 527 138 394 138 m 328 1111 l 226 1317 l 372 1317 l 463 1111 l 328 1111 m 591 1111 l 489 1317 l 635 1317 l 726 1111 l 591 1111 z "},"Ö":{"ha":1055,"x_min":63,"x_max":991,"o":"m 527 -13 q 280 44 384 -13 q 120 219 176 101 q 63 514 63 337 q 120 809 63 691 q 281 984 176 926 q 527 1041 385 1041 q 774 984 670 1041 q 934 809 878 926 q 991 514 991 691 q 934 219 991 338 q 773 44 877 101 q 527 -13 669 -13 m 527 138 q 730 227 660 138 q 801 510 801 315 q 730 800 801 710 q 527 890 659 890 q 325 801 395 890 q 254 518 254 713 q 324 228 254 317 q 527 138 394 138 m 355 1128 q 280 1151 306 1128 q 253 1216 253 1174 q 280 1281 253 1258 q 355 1303 306 1303 q 431 1281 404 1303 q 457 1216 457 1258 q 431 1151 457 1174 q 355 1128 404 1128 m 699 1128 q 624 1151 650 1128 q 597 1216 597 1174 q 624 1281 597 1258 q 699 1303 650 1303 q 775 1281 749 1303 q 801 1216 801 1258 q 775 1151 801 1174 q 699 1128 749 1128 z "},"Ȫ":{"ha":1055,"x_min":63,"x_max":991,"o":"m 527 -13 q 280 44 384 -13 q 120 219 176 101 q 63 514 63 337 q 120 809 63 691 q 281 984 176 926 q 527 1041 385 1041 q 774 984 670 1041 q 934 809 878 926 q 991 514 991 691 q 934 219 991 338 q 773 44 877 101 q 527 -13 669 -13 m 527 138 q 730 227 660 138 q 801 510 801 315 q 730 800 801 710 q 527 890 659 890 q 325 801 395 890 q 254 518 254 713 q 324 228 254 317 q 527 138 394 138 m 355 1128 q 280 1151 306 1128 q 253 1216 253 1174 q 280 1281 253 1258 q 355 1303 306 1303 q 431 1281 404 1303 q 457 1216 457 1258 q 431 1151 457 1174 q 355 1128 404 1128 m 699 1128 q 624 1151 650 1128 q 597 1216 597 1174 q 624 1281 597 1258 q 699 1303 650 1303 q 775 1281 749 1303 q 801 1216 801 1258 q 775 1151 801 1174 q 699 1128 749 1128 m 287 1381 l 287 1493 l 767 1493 l 767 1381 l 287 1381 z "},"Ȱ":{"ha":1055,"x_min":63,"x_max":991,"o":"m 527 -13 q 280 44 384 -13 q 120 219 176 101 q 63 514 63 337 q 120 809 63 691 q 281 984 176 926 q 527 1041 385 1041 q 774 984 670 1041 q 934 809 878 926 q 991 514 991 691 q 934 219 991 338 q 773 44 877 101 q 527 -13 669 -13 m 527 138 q 730 227 660 138 q 801 510 801 315 q 730 800 801 710 q 527 890 659 890 q 325 801 395 890 q 254 518 254 713 q 324 228 254 317 q 527 138 394 138 m 527 1128 q 442 1151 471 1128 q 413 1216 413 1174 q 442 1281 413 1258 q 527 1303 471 1303 q 613 1281 583 1303 q 642 1216 642 1258 q 613 1151 642 1174 q 527 1128 583 1128 m 287 1381 l 287 1493 l 767 1493 l 767 1381 l 287 1381 z "},"Ọ":{"ha":1055,"x_min":63,"x_max":991,"o":"m 527 -13 q 280 44 384 -13 q 120 219 176 101 q 63 514 63 337 q 120 809 63 691 q 281 984 176 926 q 527 1041 385 1041 q 774 984 670 1041 q 934 809 878 926 q 991 514 991 691 q 934 219 991 338 q 773 44 877 101 q 527 -13 669 -13 m 527 138 q 730 227 660 138 q 801 510 801 315 q 730 800 801 710 q 527 890 659 890 q 325 801 395 890 q 254 518 254 713 q 324 228 254 317 q 527 138 394 138 m 527 -273 q 442 -250 471 -273 q 413 -185 413 -227 q 442 -121 413 -144 q 527 -98 471 -98 q 613 -121 583 -98 q 642 -185 642 -144 q 613 -250 642 -227 q 527 -273 583 -273 z "},"Ò":{"ha":1055,"x_min":63,"x_max":991,"o":"m 527 -13 q 280 44 384 -13 q 120 219 176 101 q 63 514 63 337 q 120 809 63 691 q 281 984 176 926 q 527 1041 385 1041 q 774 984 670 1041 q 934 809 878 926 q 991 514 991 691 q 934 219 991 338 q 773 44 877 101 q 527 -13 669 -13 m 527 138 q 730 227 660 138 q 801 510 801 315 q 730 800 801 710 q 527 890 659 890 q 325 801 395 890 q 254 518 254 713 q 324 228 254 317 q 527 138 394 138 m 445 1111 l 293 1317 l 485 1317 l 609 1111 l 445 1111 z "},"Ỏ":{"ha":1055,"x_min":63,"x_max":991,"o":"m 527 -13 q 280 44 384 -13 q 120 219 176 101 q 63 514 63 337 q 120 809 63 691 q 281 984 176 926 q 527 1041 385 1041 q 774 984 670 1041 q 934 809 878 926 q 991 514 991 691 q 934 219 991 338 q 773 44 877 101 q 527 -13 669 -13 m 527 138 q 730 227 660 138 q 801 510 801 315 q 730 800 801 710 q 527 890 659 890 q 325 801 395 890 q 254 518 254 713 q 324 228 254 317 q 527 138 394 138 m 479 1111 q 500 1158 481 1142 q 553 1190 519 1174 q 585 1207 574 1199 q 595 1225 595 1215 q 577 1246 595 1239 q 517 1253 558 1253 q 383 1234 448 1253 l 383 1307 q 451 1322 412 1316 q 529 1327 491 1327 q 654 1304 613 1327 q 694 1238 694 1281 q 685 1204 694 1218 q 663 1181 676 1190 q 627 1160 650 1172 q 590 1137 602 1147 q 575 1111 577 1126 l 479 1111 z "},"Ơ":{"ha":1055,"x_min":63,"x_max":998,"o":"m 839 938 q 952 768 913 874 q 991 514 991 662 q 934 218 991 336 q 774 44 878 101 q 527 -13 670 -13 q 280 44 384 -13 q 120 219 176 101 q 63 514 63 337 q 120 809 63 691 q 281 984 176 926 q 527 1041 385 1041 q 598 1038 563 1041 q 639 1033 633 1034 q 738 1026 699 1026 q 837 1052 803 1026 q 870 1135 870 1078 q 857 1233 870 1180 l 983 1233 q 994 1183 991 1208 q 998 1128 998 1158 q 956 999 998 1047 q 839 938 915 951 m 527 138 q 730 227 660 138 q 801 510 801 315 q 730 800 801 710 q 527 890 659 890 q 325 801 395 890 q 254 518 254 713 q 324 228 254 317 q 527 138 394 138 z "},"Ớ":{"ha":1055,"x_min":63,"x_max":998,"o":"m 839 938 q 952 768 913 874 q 991 514 991 662 q 934 218 991 336 q 774 44 878 101 q 527 -13 670 -13 q 280 44 384 -13 q 120 219 176 101 q 63 514 63 337 q 120 809 63 691 q 281 984 176 926 q 527 1041 385 1041 q 598 1038 563 1041 q 639 1033 633 1034 q 738 1026 699 1026 q 837 1052 803 1026 q 870 1135 870 1078 q 857 1233 870 1180 l 983 1233 q 994 1183 991 1208 q 998 1128 998 1158 q 956 999 998 1047 q 839 938 915 951 m 527 138 q 730 227 660 138 q 801 510 801 315 q 730 800 801 710 q 527 890 659 890 q 325 801 395 890 q 254 518 254 713 q 324 228 254 317 q 527 138 394 138 m 444 1111 l 568 1317 l 760 1317 l 608 1111 l 444 1111 z "},"Ợ":{"ha":1055,"x_min":63,"x_max":998,"o":"m 839 938 q 952 768 913 874 q 991 514 991 662 q 934 218 991 336 q 774 44 878 101 q 527 -13 670 -13 q 280 44 384 -13 q 120 219 176 101 q 63 514 63 337 q 120 809 63 691 q 281 984 176 926 q 527 1041 385 1041 q 598 1038 563 1041 q 639 1033 633 1034 q 738 1026 699 1026 q 837 1052 803 1026 q 870 1135 870 1078 q 857 1233 870 1180 l 983 1233 q 994 1183 991 1208 q 998 1128 998 1158 q 956 999 998 1047 q 839 938 915 951 m 527 138 q 730 227 660 138 q 801 510 801 315 q 730 800 801 710 q 527 890 659 890 q 325 801 395 890 q 254 518 254 713 q 324 228 254 317 q 527 138 394 138 m 527 -273 q 442 -250 471 -273 q 413 -185 413 -227 q 442 -121 413 -144 q 527 -98 471 -98 q 613 -121 583 -98 q 642 -185 642 -144 q 613 -250 642 -227 q 527 -273 583 -273 z "},"Ờ":{"ha":1055,"x_min":63,"x_max":998,"o":"m 839 938 q 952 768 913 874 q 991 514 991 662 q 934 218 991 336 q 774 44 878 101 q 527 -13 670 -13 q 280 44 384 -13 q 120 219 176 101 q 63 514 63 337 q 120 809 63 691 q 281 984 176 926 q 527 1041 385 1041 q 598 1038 563 1041 q 639 1033 633 1034 q 738 1026 699 1026 q 837 1052 803 1026 q 870 1135 870 1078 q 857 1233 870 1180 l 983 1233 q 994 1183 991 1208 q 998 1128 998 1158 q 956 999 998 1047 q 839 938 915 951 m 527 138 q 730 227 660 138 q 801 510 801 315 q 730 800 801 710 q 527 890 659 890 q 325 801 395 890 q 254 518 254 713 q 324 228 254 317 q 527 138 394 138 m 445 1111 l 293 1317 l 485 1317 l 609 1111 l 445 1111 z "},"Ở":{"ha":1055,"x_min":63,"x_max":998,"o":"m 839 938 q 952 768 913 874 q 991 514 991 662 q 934 218 991 336 q 774 44 878 101 q 527 -13 670 -13 q 280 44 384 -13 q 120 219 176 101 q 63 514 63 337 q 120 809 63 691 q 281 984 176 926 q 527 1041 385 1041 q 598 1038 563 1041 q 639 1033 633 1034 q 738 1026 699 1026 q 837 1052 803 1026 q 870 1135 870 1078 q 857 1233 870 1180 l 983 1233 q 994 1183 991 1208 q 998 1128 998 1158 q 956 999 998 1047 q 839 938 915 951 m 527 138 q 730 227 660 138 q 801 510 801 315 q 730 800 801 710 q 527 890 659 890 q 325 801 395 890 q 254 518 254 713 q 324 228 254 317 q 527 138 394 138 m 479 1111 q 500 1158 481 1142 q 553 1190 519 1174 q 585 1207 574 1199 q 595 1225 595 1215 q 577 1246 595 1239 q 517 1253 558 1253 q 383 1234 448 1253 l 383 1307 q 451 1322 412 1316 q 529 1327 491 1327 q 654 1304 613 1327 q 694 1238 694 1281 q 685 1204 694 1218 q 663 1181 676 1190 q 627 1160 650 1172 q 590 1137 602 1147 q 575 1111 577 1126 l 479 1111 z "},"Ỡ":{"ha":1055,"x_min":63,"x_max":998,"o":"m 640 1137 q 582 1144 609 1137 q 516 1165 556 1151 q 461 1183 485 1177 q 413 1190 437 1190 q 344 1178 374 1190 q 285 1141 315 1166 l 285 1249 q 341 1286 310 1274 q 415 1298 372 1298 q 474 1291 447 1298 q 539 1269 501 1283 q 596 1251 574 1257 q 642 1244 618 1244 q 710 1256 681 1244 q 769 1293 740 1268 l 769 1185 q 714 1148 744 1160 q 640 1137 683 1137 m 839 938 q 952 768 913 874 q 991 514 991 662 q 934 218 991 336 q 774 44 878 101 q 527 -13 670 -13 q 280 44 384 -13 q 120 219 176 101 q 63 514 63 337 q 120 809 63 691 q 281 984 176 926 q 527 1041 385 1041 q 598 1038 563 1041 q 639 1033 633 1034 q 738 1026 699 1026 q 837 1052 803 1026 q 870 1135 870 1078 q 857 1233 870 1180 l 983 1233 q 994 1183 991 1208 q 998 1128 998 1158 q 956 999 998 1047 q 839 938 915 951 m 527 138 q 730 227 660 138 q 801 510 801 315 q 730 800 801 710 q 527 890 659 890 q 325 801 395 890 q 254 518 254 713 q 324 228 254 317 q 527 138 394 138 z "},"Ő":{"ha":1055,"x_min":63,"x_max":991,"o":"m 527 -13 q 280 44 384 -13 q 120 219 176 101 q 63 514 63 337 q 120 809 63 691 q 281 984 176 926 q 527 1041 385 1041 q 774 984 670 1041 q 934 809 878 926 q 991 514 991 691 q 934 219 991 338 q 773 44 877 101 q 527 -13 669 -13 m 527 138 q 730 227 660 138 q 801 510 801 315 q 730 800 801 710 q 527 890 659 890 q 325 801 395 890 q 254 518 254 713 q 324 228 254 317 q 527 138 394 138 m 328 1111 l 419 1317 l 565 1317 l 463 1111 l 328 1111 m 591 1111 l 683 1317 l 828 1317 l 726 1111 l 591 1111 z "},"Ȏ":{"ha":1055,"x_min":63,"x_max":991,"o":"m 527 -13 q 280 44 384 -13 q 120 219 176 101 q 63 514 63 337 q 120 809 63 691 q 281 984 176 926 q 527 1041 385 1041 q 774 984 670 1041 q 934 809 878 926 q 991 514 991 691 q 934 219 991 338 q 773 44 877 101 q 527 -13 669 -13 m 527 138 q 730 227 660 138 q 801 510 801 315 q 730 800 801 710 q 527 890 659 890 q 325 801 395 890 q 254 518 254 713 q 324 228 254 317 q 527 138 394 138 m 277 1120 q 350 1261 288 1210 q 526 1313 413 1313 q 703 1261 640 1313 q 777 1120 767 1210 l 663 1120 q 623 1195 655 1170 q 526 1219 590 1219 q 431 1195 463 1219 q 391 1120 399 1170 l 277 1120 z "},"Ō":{"ha":1055,"x_min":63,"x_max":991,"o":"m 527 -13 q 280 44 384 -13 q 120 219 176 101 q 63 514 63 337 q 120 809 63 691 q 281 984 176 926 q 527 1041 385 1041 q 774 984 670 1041 q 934 809 878 926 q 991 514 991 691 q 934 219 991 338 q 773 44 877 101 q 527 -13 669 -13 m 527 138 q 730 227 660 138 q 801 510 801 315 q 730 800 801 710 q 527 890 659 890 q 325 801 395 890 q 254 518 254 713 q 324 228 254 317 q 527 138 394 138 m 287 1158 l 287 1270 l 767 1270 l 767 1158 l 287 1158 z "},"Ṓ":{"ha":1055,"x_min":63,"x_max":991,"o":"m 527 -13 q 280 44 384 -13 q 120 219 176 101 q 63 514 63 337 q 120 809 63 691 q 281 984 176 926 q 527 1041 385 1041 q 774 984 670 1041 q 934 809 878 926 q 991 514 991 691 q 934 219 991 338 q 773 44 877 101 q 527 -13 669 -13 m 527 138 q 730 227 660 138 q 801 510 801 315 q 730 800 801 710 q 527 890 659 890 q 325 801 395 890 q 254 518 254 713 q 324 228 254 317 q 527 138 394 138 m 436 1347 l 559 1508 l 770 1508 l 619 1347 l 436 1347 m 287 1158 l 287 1270 l 767 1270 l 767 1158 l 287 1158 z "},"Ṑ":{"ha":1055,"x_min":63,"x_max":991,"o":"m 527 -13 q 280 44 384 -13 q 120 219 176 101 q 63 514 63 337 q 120 809 63 691 q 281 984 176 926 q 527 1041 385 1041 q 774 984 670 1041 q 934 809 878 926 q 991 514 991 691 q 934 219 991 338 q 773 44 877 101 q 527 -13 669 -13 m 527 138 q 730 227 660 138 q 801 510 801 315 q 730 800 801 710 q 527 890 659 890 q 325 801 395 890 q 254 518 254 713 q 324 228 254 317 q 527 138 394 138 m 436 1347 l 284 1508 l 494 1508 l 618 1347 l 436 1347 m 287 1158 l 287 1270 l 767 1270 l 767 1158 l 287 1158 z "},"Ǫ":{"ha":1055,"x_min":63,"x_max":991,"o":"m 691 9 q 550 -63 592 -23 q 508 -150 508 -103 q 608 -224 508 -224 q 711 -201 653 -224 l 711 -276 q 585 -300 651 -300 q 448 -264 494 -300 q 401 -162 401 -228 q 423 -80 401 -117 q 494 -12 445 -42 q 264 53 360 -6 q 116 228 168 113 q 63 514 63 343 q 120 809 63 691 q 281 984 176 926 q 527 1041 385 1041 q 774 984 670 1041 q 934 809 878 927 q 991 514 991 692 q 909 176 991 299 q 691 9 828 53 m 254 518 q 324 228 254 317 q 527 138 394 138 q 730 227 660 138 q 801 510 801 315 q 730 800 801 710 q 527 890 659 890 q 325 801 395 890 q 254 518 254 713 z "},"Ø":{"ha":1055,"x_min":63,"x_max":991,"o":"m 881 894 q 991 514 991 759 q 934 219 991 338 q 773 44 877 101 q 527 -13 669 -13 q 247 65 358 -13 l 176 -28 l 97 34 l 173 134 q 63 514 63 269 q 120 809 63 691 q 281 984 176 926 q 527 1041 385 1041 q 807 963 695 1041 l 878 1056 l 958 994 l 881 894 m 254 518 q 290 288 254 375 l 704 828 q 527 890 638 890 q 325 801 395 890 q 254 518 254 713 m 527 138 q 730 227 660 138 q 801 510 801 315 q 764 740 801 651 l 350 199 q 527 138 414 138 z "},"Ǿ":{"ha":1055,"x_min":63,"x_max":991,"o":"m 881 894 q 991 514 991 759 q 934 219 991 338 q 773 44 877 101 q 527 -13 669 -13 q 247 65 358 -13 l 176 -28 l 97 34 l 173 134 q 63 514 63 269 q 120 809 63 691 q 281 984 176 926 q 527 1041 385 1041 q 807 963 695 1041 l 878 1056 l 958 994 l 881 894 m 254 518 q 290 288 254 375 l 704 828 q 527 890 638 890 q 325 801 395 890 q 254 518 254 713 m 527 138 q 730 227 660 138 q 801 510 801 315 q 764 740 801 651 l 350 199 q 527 138 414 138 m 443 1111 l 567 1317 l 759 1317 l 607 1111 l 443 1111 z "},"Õ":{"ha":1055,"x_min":63,"x_max":991,"o":"m 527 -13 q 280 44 384 -13 q 120 219 176 101 q 63 514 63 337 q 120 809 63 691 q 281 984 176 926 q 527 1041 385 1041 q 774 984 670 1041 q 934 809 878 926 q 991 514 991 691 q 934 219 991 338 q 773 44 877 101 q 527 -13 669 -13 m 527 138 q 730 227 660 138 q 801 510 801 315 q 730 800 801 710 q 527 890 659 890 q 325 801 395 890 q 254 518 254 713 q 324 228 254 317 q 527 138 394 138 m 642 1137 q 583 1144 610 1137 q 516 1165 556 1151 q 457 1184 479 1178 q 409 1190 434 1190 q 339 1178 369 1190 q 278 1141 308 1166 l 278 1249 q 336 1286 303 1274 q 413 1298 368 1298 q 472 1291 444 1298 q 538 1269 499 1283 q 598 1250 575 1256 q 645 1244 620 1244 q 715 1256 685 1244 q 776 1293 746 1268 l 776 1185 q 718 1148 751 1160 q 642 1137 686 1137 z "},"Ṍ":{"ha":1055,"x_min":63,"x_max":991,"o":"m 527 -13 q 280 44 384 -13 q 120 219 176 101 q 63 514 63 337 q 120 809 63 691 q 281 984 176 926 q 527 1041 385 1041 q 774 984 670 1041 q 934 809 878 926 q 991 514 991 691 q 934 219 991 338 q 773 44 877 101 q 527 -13 669 -13 m 527 138 q 730 227 660 138 q 801 510 801 315 q 730 800 801 710 q 527 890 659 890 q 325 801 395 890 q 254 518 254 713 q 324 228 254 317 q 527 138 394 138 m 436 1347 l 559 1508 l 770 1508 l 619 1347 l 436 1347 m 642 1137 q 583 1144 610 1137 q 516 1165 556 1151 q 457 1184 479 1178 q 409 1190 434 1190 q 339 1178 369 1190 q 278 1141 308 1166 l 278 1249 q 336 1286 303 1274 q 413 1298 368 1298 q 472 1291 444 1298 q 538 1269 499 1283 q 598 1250 575 1256 q 645 1244 620 1244 q 715 1256 685 1244 q 776 1293 746 1268 l 776 1185 q 718 1148 751 1160 q 642 1137 686 1137 z "},"Ṏ":{"ha":1055,"x_min":63,"x_max":991,"o":"m 527 -13 q 280 44 384 -13 q 120 219 176 101 q 63 514 63 337 q 120 809 63 691 q 281 984 176 926 q 527 1041 385 1041 q 774 984 670 1041 q 934 809 878 926 q 991 514 991 691 q 934 219 991 338 q 773 44 877 101 q 527 -13 669 -13 m 527 138 q 730 227 660 138 q 801 510 801 315 q 730 800 801 710 q 527 890 659 890 q 325 801 395 890 q 254 518 254 713 q 324 228 254 317 q 527 138 394 138 m 642 1137 q 583 1144 610 1137 q 516 1165 556 1151 q 457 1184 479 1178 q 409 1190 434 1190 q 339 1178 369 1190 q 278 1141 308 1166 l 278 1249 q 336 1286 303 1274 q 413 1298 368 1298 q 472 1291 444 1298 q 538 1269 499 1283 q 598 1250 575 1256 q 645 1244 620 1244 q 715 1256 685 1244 q 776 1293 746 1268 l 776 1185 q 718 1148 751 1160 q 642 1137 686 1137 m 355 1351 q 280 1374 306 1351 q 253 1439 253 1397 q 280 1503 253 1481 q 355 1526 306 1526 q 431 1503 404 1526 q 457 1439 457 1481 q 431 1374 457 1397 q 355 1351 404 1351 m 699 1351 q 624 1374 650 1351 q 597 1439 597 1397 q 624 1503 597 1481 q 699 1526 650 1526 q 775 1503 749 1526 q 801 1439 801 1481 q 775 1374 801 1397 q 699 1351 749 1351 z "},"Ȭ":{"ha":1055,"x_min":63,"x_max":991,"o":"m 527 -13 q 280 44 384 -13 q 120 219 176 101 q 63 514 63 337 q 120 809 63 691 q 281 984 176 926 q 527 1041 385 1041 q 774 984 670 1041 q 934 809 878 926 q 991 514 991 691 q 934 219 991 338 q 773 44 877 101 q 527 -13 669 -13 m 527 138 q 730 227 660 138 q 801 510 801 315 q 730 800 801 710 q 527 890 659 890 q 325 801 395 890 q 254 518 254 713 q 324 228 254 317 q 527 138 394 138 m 642 1137 q 583 1144 610 1137 q 516 1165 556 1151 q 457 1184 479 1178 q 409 1190 434 1190 q 339 1178 369 1190 q 278 1141 308 1166 l 278 1249 q 336 1286 303 1274 q 413 1298 368 1298 q 472 1291 444 1298 q 538 1269 499 1283 q 598 1250 575 1256 q 645 1244 620 1244 q 715 1256 685 1244 q 776 1293 746 1268 l 776 1185 q 718 1148 751 1160 q 642 1137 686 1137 m 287 1381 l 287 1493 l 767 1493 l 767 1381 l 287 1381 z "},"Œ":{"ha":1442,"x_min":63,"x_max":1393,"o":"m 1393 149 l 1393 0 l 846 0 q 790 -1 823 0 q 743 -3 758 -3 q 630 -8 667 -8 q 203 118 344 -8 q 63 514 63 244 q 624 1037 63 1037 q 738 1032 672 1037 q 842 1028 810 1028 l 1386 1028 l 1386 878 l 900 878 l 900 601 l 1316 601 l 1316 451 l 900 451 l 900 149 l 1393 149 m 717 878 q 590 885 652 885 q 402 847 476 885 q 291 726 328 808 q 253 513 253 644 q 291 301 253 382 q 404 182 329 219 q 594 144 479 144 q 717 149 674 144 l 717 878 z "},"P":{"ha":894,"x_min":101,"x_max":838,"o":"m 101 1010 q 395 1040 251 1040 q 728 951 618 1040 q 838 676 838 863 q 728 404 838 496 q 399 312 619 312 q 287 316 363 312 l 287 0 l 101 0 l 101 1010 m 401 453 q 596 506 535 453 q 658 674 658 559 q 598 845 658 791 q 411 899 538 899 q 287 889 347 899 l 287 460 q 401 453 334 453 z "},"Þ":{"ha":901,"x_min":101,"x_max":838,"o":"m 101 1028 l 287 1028 l 287 884 q 398 892 342 892 q 729 803 619 892 q 838 528 838 715 q 729 256 838 348 q 400 164 619 164 q 287 168 363 164 l 287 0 l 101 0 l 101 1028 m 401 306 q 596 358 535 306 q 658 526 658 411 q 598 697 658 643 q 411 751 538 751 q 287 741 347 751 l 287 312 q 401 306 335 306 z "},"Q":{"ha":1055,"x_min":63,"x_max":991,"o":"m 991 514 q 903 167 991 297 q 644 10 815 37 q 977 -51 791 -32 l 947 -198 q 416 -60 608 -151 q 143 167 223 30 q 63 510 63 305 q 120 808 63 689 q 280 984 176 926 q 527 1041 384 1041 q 774 984 670 1041 q 934 809 878 927 q 991 514 991 692 m 254 518 q 324 227 254 317 q 527 138 394 138 q 730 227 660 138 q 801 510 801 315 q 730 800 801 710 q 527 890 659 890 q 325 801 395 890 q 254 518 254 713 z "},"R":{"ha":939,"x_min":101,"x_max":919,"o":"m 715 0 l 433 395 q 403 394 423 394 q 284 399 362 394 l 284 0 l 101 0 l 101 1007 q 406 1040 253 1040 q 728 961 622 1040 q 835 719 835 883 q 778 531 835 606 q 613 422 721 456 l 919 0 l 715 0 m 284 540 q 407 534 350 534 q 599 578 538 534 q 660 718 660 622 q 603 858 660 814 q 423 901 546 901 q 284 889 353 901 l 284 540 z "},"Ŕ":{"ha":939,"x_min":101,"x_max":919,"o":"m 715 0 l 433 395 q 403 394 423 394 q 284 399 362 394 l 284 0 l 101 0 l 101 1007 q 406 1040 253 1040 q 728 961 622 1040 q 835 719 835 883 q 778 531 835 606 q 613 422 721 456 l 919 0 l 715 0 m 284 540 q 407 534 350 534 q 599 578 538 534 q 660 718 660 622 q 603 858 660 814 q 423 901 546 901 q 284 889 353 901 l 284 540 m 376 1111 l 499 1317 l 692 1317 l 540 1111 l 376 1111 z "},"Ř":{"ha":939,"x_min":101,"x_max":919,"o":"m 715 0 l 433 395 q 403 394 423 394 q 284 399 362 394 l 284 0 l 101 0 l 101 1007 q 406 1040 253 1040 q 728 961 622 1040 q 835 719 835 883 q 778 531 835 606 q 613 422 721 456 l 919 0 l 715 0 m 284 540 q 407 534 350 534 q 599 578 538 534 q 660 718 660 622 q 603 858 660 814 q 423 901 546 901 q 284 889 353 901 l 284 540 m 569 1317 l 713 1317 l 538 1111 l 379 1111 l 204 1317 l 347 1317 l 458 1181 l 569 1317 z "},"Ŗ":{"ha":939,"x_min":101,"x_max":919,"o":"m 715 0 l 433 395 q 403 394 423 394 q 284 399 362 394 l 284 0 l 101 0 l 101 1007 q 406 1040 253 1040 q 728 961 622 1040 q 835 719 835 883 q 778 531 835 606 q 613 422 721 456 l 919 0 l 715 0 m 284 540 q 407 534 350 534 q 599 578 538 534 q 660 718 660 622 q 603 858 660 814 q 423 901 546 901 q 284 889 353 901 l 284 540 m 491 -98 q 598 -191 598 -98 q 585 -266 598 -226 q 549 -337 572 -306 l 437 -337 q 472 -238 465 -279 q 408 -216 428 -235 q 387 -168 387 -198 q 413 -116 387 -135 q 491 -98 439 -98 z "},"Ȑ":{"ha":939,"x_min":101,"x_max":919,"o":"m 715 0 l 433 395 q 403 394 423 394 q 284 399 362 394 l 284 0 l 101 0 l 101 1007 q 406 1040 253 1040 q 728 961 622 1040 q 835 719 835 883 q 778 531 835 606 q 613 422 721 456 l 919 0 l 715 0 m 284 540 q 407 534 350 534 q 599 578 538 534 q 660 718 660 622 q 603 858 660 814 q 423 901 546 901 q 284 889 353 901 l 284 540 m 259 1111 l 157 1317 l 303 1317 l 394 1111 l 259 1111 m 522 1111 l 420 1317 l 566 1317 l 658 1111 l 522 1111 z "},"Ṛ":{"ha":939,"x_min":101,"x_max":919,"o":"m 715 0 l 433 395 q 403 394 423 394 q 284 399 362 394 l 284 0 l 101 0 l 101 1007 q 406 1040 253 1040 q 728 961 622 1040 q 835 719 835 883 q 778 531 835 606 q 613 422 721 456 l 919 0 l 715 0 m 284 540 q 407 534 350 534 q 599 578 538 534 q 660 718 660 622 q 603 858 660 814 q 423 901 546 901 q 284 889 353 901 l 284 540 m 492 -273 q 407 -250 436 -273 q 378 -185 378 -227 q 407 -121 378 -144 q 492 -98 436 -98 q 578 -121 549 -98 q 607 -185 607 -144 q 578 -250 607 -227 q 492 -273 549 -273 z "},"Ȓ":{"ha":939,"x_min":101,"x_max":919,"o":"m 715 0 l 433 395 q 403 394 423 394 q 284 399 362 394 l 284 0 l 101 0 l 101 1007 q 406 1040 253 1040 q 728 961 622 1040 q 835 719 835 883 q 778 531 835 606 q 613 422 721 456 l 919 0 l 715 0 m 284 540 q 407 534 350 534 q 599 578 538 534 q 660 718 660 622 q 603 858 660 814 q 423 901 546 901 q 284 889 353 901 l 284 540 m 208 1120 q 281 1261 219 1210 q 458 1313 344 1313 q 635 1261 572 1313 q 708 1120 698 1210 l 594 1120 q 554 1195 586 1170 q 458 1219 522 1219 q 362 1195 394 1219 q 322 1120 331 1170 l 208 1120 z "},"Ṟ":{"ha":939,"x_min":101,"x_max":919,"o":"m 715 0 l 433 395 q 403 394 423 394 q 284 399 362 394 l 284 0 l 101 0 l 101 1007 q 406 1040 253 1040 q 728 961 622 1040 q 835 719 835 883 q 778 531 835 606 q 613 422 721 456 l 919 0 l 715 0 m 284 540 q 407 534 350 534 q 599 578 538 534 q 660 718 660 622 q 603 858 660 814 q 423 901 546 901 q 284 889 353 901 l 284 540 m 252 -237 l 252 -126 l 733 -126 l 733 -237 l 252 -237 z "},"S":{"ha":778,"x_min":43,"x_max":735,"o":"m 340 -13 q 198 -2 269 -13 q 65 30 126 9 l 65 182 q 201 149 128 160 q 340 138 274 138 q 499 174 449 138 q 550 282 550 211 q 534 349 550 322 q 483 394 519 375 q 382 431 447 414 l 313 449 q 110 553 176 483 q 43 739 43 624 q 146 962 43 883 q 449 1041 249 1041 q 575 1033 514 1041 q 685 1010 637 1025 l 685 858 q 576 882 635 874 q 458 890 517 890 q 283 853 338 890 q 228 749 228 817 q 242 685 228 710 q 289 640 256 659 q 380 606 322 622 l 449 588 q 666 481 597 551 q 735 294 735 410 q 689 129 735 199 q 552 23 642 60 q 340 -13 463 -13 z "},"Ś":{"ha":778,"x_min":43,"x_max":735,"o":"m 340 -13 q 198 -2 269 -13 q 65 30 126 9 l 65 182 q 201 149 128 160 q 340 138 274 138 q 499 174 449 138 q 550 282 550 211 q 534 349 550 322 q 483 394 519 375 q 382 431 447 414 l 313 449 q 110 553 176 483 q 43 739 43 624 q 146 962 43 883 q 449 1041 249 1041 q 575 1033 514 1041 q 685 1010 637 1025 l 685 858 q 576 882 635 874 q 458 890 517 890 q 283 853 338 890 q 228 749 228 817 q 242 685 228 710 q 289 640 256 659 q 380 606 322 622 l 449 588 q 666 481 597 551 q 735 294 735 410 q 689 129 735 199 q 552 23 642 60 q 340 -13 463 -13 m 314 1111 l 438 1317 l 630 1317 l 478 1111 l 314 1111 z "},"Ṥ":{"ha":778,"x_min":43,"x_max":735,"o":"m 340 -13 q 198 -2 269 -13 q 65 30 126 9 l 65 182 q 201 149 128 160 q 340 138 274 138 q 499 174 449 138 q 550 282 550 211 q 534 349 550 322 q 483 394 519 375 q 382 431 447 414 l 313 449 q 110 553 176 483 q 43 739 43 624 q 146 962 43 883 q 449 1041 249 1041 q 575 1033 514 1041 q 685 1010 637 1025 l 685 858 q 576 882 635 874 q 458 890 517 890 q 283 853 338 890 q 228 749 228 817 q 242 685 228 710 q 289 640 256 659 q 380 606 322 622 l 449 588 q 666 481 597 551 q 735 294 735 410 q 689 129 735 199 q 552 23 642 60 q 340 -13 463 -13 m 272 1289 q 200 1308 225 1289 q 176 1363 176 1327 q 200 1417 176 1397 q 272 1437 225 1437 q 342 1417 318 1437 q 367 1363 367 1397 q 342 1308 367 1327 q 272 1289 318 1289 m 314 1111 l 438 1317 l 630 1317 l 478 1111 l 314 1111 z "},"Š":{"ha":778,"x_min":43,"x_max":735,"o":"m 340 -13 q 198 -2 269 -13 q 65 30 126 9 l 65 182 q 201 149 128 160 q 340 138 274 138 q 499 174 449 138 q 550 282 550 211 q 534 349 550 322 q 483 394 519 375 q 382 431 447 414 l 313 449 q 110 553 176 483 q 43 739 43 624 q 146 962 43 883 q 449 1041 249 1041 q 575 1033 514 1041 q 685 1010 637 1025 l 685 858 q 576 882 635 874 q 458 890 517 890 q 283 853 338 890 q 228 749 228 817 q 242 685 228 710 q 289 640 256 659 q 380 606 322 622 l 449 588 q 666 481 597 551 q 735 294 735 410 q 689 129 735 199 q 552 23 642 60 q 340 -13 463 -13 m 508 1317 l 651 1317 l 476 1111 l 317 1111 l 142 1317 l 285 1317 l 397 1181 l 508 1317 z "},"Ṧ":{"ha":778,"x_min":43,"x_max":735,"o":"m 340 -13 q 198 -2 269 -13 q 65 30 126 9 l 65 182 q 201 149 128 160 q 340 138 274 138 q 499 174 449 138 q 550 282 550 211 q 534 349 550 322 q 483 394 519 375 q 382 431 447 414 l 313 449 q 110 553 176 483 q 43 739 43 624 q 146 962 43 883 q 449 1041 249 1041 q 575 1033 514 1041 q 685 1010 637 1025 l 685 858 q 576 882 635 874 q 458 890 517 890 q 283 853 338 890 q 228 749 228 817 q 242 685 228 710 q 289 640 256 659 q 380 606 322 622 l 449 588 q 666 481 597 551 q 735 294 735 410 q 689 129 735 199 q 552 23 642 60 q 340 -13 463 -13 m 397 1331 q 326 1351 350 1331 q 301 1405 301 1370 q 326 1460 301 1440 q 397 1479 350 1479 q 467 1460 443 1479 q 492 1405 492 1440 q 467 1351 492 1370 q 397 1331 443 1331 m 508 1317 l 651 1317 l 476 1111 l 317 1111 l 142 1317 l 285 1317 l 397 1181 l 508 1317 z "},"Ş":{"ha":778,"x_min":43,"x_max":735,"o":"m 735 294 q 656 90 735 169 q 432 -8 577 12 l 432 -64 q 526 -100 494 -71 q 558 -180 558 -130 q 514 -269 558 -237 q 382 -300 469 -300 q 244 -277 308 -300 l 244 -202 q 374 -226 308 -226 q 438 -214 416 -226 q 460 -174 460 -201 q 373 -120 460 -120 l 341 -120 l 341 -13 l 340 -13 q 198 -2 269 -13 q 65 30 126 9 l 65 182 q 201 149 128 160 q 340 138 274 138 q 499 174 449 138 q 550 282 550 211 q 534 349 550 322 q 483 394 519 375 q 382 431 447 414 l 313 449 q 110 553 176 483 q 43 739 43 624 q 146 962 43 883 q 449 1041 249 1041 q 575 1033 514 1041 q 685 1010 637 1025 l 685 858 q 576 882 635 874 q 458 890 517 890 q 283 853 338 890 q 228 749 228 817 q 242 685 228 710 q 289 640 256 659 q 380 606 322 622 l 449 588 q 666 481 597 551 q 735 294 735 410 z "},"Ŝ":{"ha":778,"x_min":43,"x_max":735,"o":"m 340 -13 q 198 -2 269 -13 q 65 30 126 9 l 65 182 q 201 149 128 160 q 340 138 274 138 q 499 174 449 138 q 550 282 550 211 q 534 349 550 322 q 483 394 519 375 q 382 431 447 414 l 313 449 q 110 553 176 483 q 43 739 43 624 q 146 962 43 883 q 449 1041 249 1041 q 575 1033 514 1041 q 685 1010 637 1025 l 685 858 q 576 882 635 874 q 458 890 517 890 q 283 853 338 890 q 228 749 228 817 q 242 685 228 710 q 289 640 256 659 q 380 606 322 622 l 449 588 q 666 481 597 551 q 735 294 735 410 q 689 129 735 199 q 552 23 642 60 q 340 -13 463 -13 m 651 1111 l 508 1111 l 397 1247 l 285 1111 l 142 1111 l 317 1317 l 476 1317 l 651 1111 z "},"Ș":{"ha":778,"x_min":43,"x_max":735,"o":"m 340 -13 q 198 -2 269 -13 q 65 30 126 9 l 65 182 q 201 149 128 160 q 340 138 274 138 q 499 174 449 138 q 550 282 550 211 q 534 349 550 322 q 483 394 519 375 q 382 431 447 414 l 313 449 q 110 553 176 483 q 43 739 43 624 q 146 962 43 883 q 449 1041 249 1041 q 575 1033 514 1041 q 685 1010 637 1025 l 685 858 q 576 882 635 874 q 458 890 517 890 q 283 853 338 890 q 228 749 228 817 q 242 685 228 710 q 289 640 256 659 q 380 606 322 622 l 449 588 q 666 481 597 551 q 735 294 735 410 q 689 129 735 199 q 552 23 642 60 q 340 -13 463 -13 m 395 -98 q 502 -191 502 -98 q 489 -266 502 -226 q 453 -337 476 -306 l 341 -337 q 376 -238 369 -279 q 312 -216 333 -235 q 291 -168 291 -198 q 317 -116 291 -135 q 395 -98 343 -98 z "},"Ṡ":{"ha":778,"x_min":43,"x_max":735,"o":"m 340 -13 q 198 -2 269 -13 q 65 30 126 9 l 65 182 q 201 149 128 160 q 340 138 274 138 q 499 174 449 138 q 550 282 550 211 q 534 349 550 322 q 483 394 519 375 q 382 431 447 414 l 313 449 q 110 553 176 483 q 43 739 43 624 q 146 962 43 883 q 449 1041 249 1041 q 575 1033 514 1041 q 685 1010 637 1025 l 685 858 q 576 882 635 874 q 458 890 517 890 q 283 853 338 890 q 228 749 228 817 q 242 685 228 710 q 289 640 256 659 q 380 606 322 622 l 449 588 q 666 481 597 551 q 735 294 735 410 q 689 129 735 199 q 552 23 642 60 q 340 -13 463 -13 m 397 1128 q 311 1151 340 1128 q 282 1216 282 1174 q 311 1281 282 1258 q 397 1303 340 1303 q 482 1281 453 1303 q 511 1216 511 1258 q 482 1151 511 1174 q 397 1128 453 1128 z "},"Ṣ":{"ha":778,"x_min":43,"x_max":735,"o":"m 340 -13 q 198 -2 269 -13 q 65 30 126 9 l 65 182 q 201 149 128 160 q 340 138 274 138 q 499 174 449 138 q 550 282 550 211 q 534 349 550 322 q 483 394 519 375 q 382 431 447 414 l 313 449 q 110 553 176 483 q 43 739 43 624 q 146 962 43 883 q 449 1041 249 1041 q 575 1033 514 1041 q 685 1010 637 1025 l 685 858 q 576 882 635 874 q 458 890 517 890 q 283 853 338 890 q 228 749 228 817 q 242 685 228 710 q 289 640 256 659 q 380 606 322 622 l 449 588 q 666 481 597 551 q 735 294 735 410 q 689 129 735 199 q 552 23 642 60 q 340 -13 463 -13 m 397 -273 q 311 -250 340 -273 q 282 -185 282 -227 q 311 -121 282 -144 q 397 -98 340 -98 q 482 -121 453 -98 q 511 -185 511 -144 q 482 -250 511 -227 q 397 -273 453 -273 z "},"Ṩ":{"ha":778,"x_min":43,"x_max":735,"o":"m 340 -13 q 198 -2 269 -13 q 65 30 126 9 l 65 182 q 201 149 128 160 q 340 138 274 138 q 499 174 449 138 q 550 282 550 211 q 534 349 550 322 q 483 394 519 375 q 382 431 447 414 l 313 449 q 110 553 176 483 q 43 739 43 624 q 146 962 43 883 q 449 1041 249 1041 q 575 1033 514 1041 q 685 1010 637 1025 l 685 858 q 576 882 635 874 q 458 890 517 890 q 283 853 338 890 q 228 749 228 817 q 242 685 228 710 q 289 640 256 659 q 380 606 322 622 l 449 588 q 666 481 597 551 q 735 294 735 410 q 689 129 735 199 q 552 23 642 60 q 340 -13 463 -13 m 397 -273 q 311 -250 340 -273 q 282 -185 282 -227 q 311 -121 282 -144 q 397 -98 340 -98 q 482 -121 453 -98 q 511 -185 511 -144 q 482 -250 511 -227 q 397 -273 453 -273 m 397 1128 q 311 1151 340 1128 q 282 1216 282 1174 q 311 1281 282 1258 q 397 1303 340 1303 q 482 1281 453 1303 q 511 1216 511 1258 q 482 1151 511 1174 q 397 1128 453 1128 z "},"ẞ":{"ha":1232,"x_min":101,"x_max":1189,"o":"m 910 588 q 1122 481 1054 551 q 1189 294 1189 410 q 1143 129 1189 199 q 1010 23 1097 60 q 799 -13 922 -13 q 665 -2 734 -13 q 537 28 597 8 l 537 180 q 668 149 598 160 q 799 138 739 138 q 956 174 906 138 q 1006 282 1006 211 q 991 349 1006 322 q 941 395 976 376 q 846 431 906 415 l 778 449 q 581 553 646 483 q 515 739 515 624 q 550 886 515 823 q 496 891 526 891 q 338 835 389 891 q 287 665 287 780 l 287 0 l 101 0 l 101 641 q 199 940 101 839 q 496 1041 296 1041 q 694 1005 609 1041 q 915 1041 784 1041 q 1034 1034 976 1041 q 1140 1013 1093 1026 l 1140 860 q 1035 883 1092 875 q 925 890 978 890 q 752 853 806 890 q 699 749 699 817 q 712 684 699 710 q 757 639 726 658 q 843 606 789 620 l 910 588 z "},"Ə":{"ha":1044,"x_min":56,"x_max":981,"o":"m 412 1041 q 838 912 696 1041 q 981 506 981 783 q 925 217 981 333 q 766 44 869 101 q 524 -13 664 -13 q 275 43 380 -13 q 114 216 171 100 q 56 508 56 333 l 56 574 l 794 574 q 736 760 783 690 q 605 860 688 830 q 397 891 522 891 q 257 883 331 891 q 120 859 184 875 l 120 1010 q 412 1041 253 1041 m 525 132 q 664 161 607 132 q 753 258 720 190 q 794 437 787 325 l 248 437 q 288 259 255 326 q 380 162 322 192 q 525 132 439 132 z "},"T":{"ha":866,"x_min":10,"x_max":856,"o":"m 340 0 l 340 873 l 10 873 l 10 1028 l 856 1028 l 856 873 l 526 873 l 526 0 l 340 0 z "},"Ŧ":{"ha":866,"x_min":10,"x_max":856,"o":"m 856 873 l 526 873 l 526 578 l 741 578 l 741 458 l 526 458 l 526 0 l 340 0 l 340 458 l 126 458 l 126 578 l 340 578 l 340 873 l 10 873 l 10 1028 l 856 1028 l 856 873 z "},"Ť":{"ha":866,"x_min":10,"x_max":856,"o":"m 340 0 l 340 873 l 10 873 l 10 1028 l 856 1028 l 856 873 l 526 873 l 526 0 l 340 0 m 544 1317 l 688 1317 l 513 1111 l 354 1111 l 179 1317 l 322 1317 l 433 1181 l 544 1317 z "},"Ţ":{"ha":866,"x_min":10,"x_max":856,"o":"m 469 0 l 469 -64 q 563 -100 531 -71 q 595 -180 595 -130 q 550 -269 595 -237 q 419 -300 506 -300 q 281 -277 345 -300 l 281 -202 q 410 -226 344 -226 q 475 -214 453 -226 q 497 -174 497 -201 q 410 -120 497 -120 l 378 -120 l 378 0 l 340 0 l 340 873 l 10 873 l 10 1028 l 856 1028 l 856 873 l 526 873 l 526 0 l 469 0 z "},"Ț":{"ha":866,"x_min":10,"x_max":856,"o":"m 340 0 l 340 873 l 10 873 l 10 1028 l 856 1028 l 856 873 l 526 873 l 526 0 l 340 0 m 432 -98 q 539 -191 539 -98 q 526 -266 539 -226 q 490 -337 513 -306 l 378 -337 q 413 -238 406 -279 q 349 -216 369 -235 q 328 -168 328 -198 q 354 -116 328 -135 q 432 -98 380 -98 z "},"Ṭ":{"ha":866,"x_min":10,"x_max":856,"o":"m 340 0 l 340 873 l 10 873 l 10 1028 l 856 1028 l 856 873 l 526 873 l 526 0 l 340 0 m 433 -273 q 348 -250 377 -273 q 319 -185 319 -227 q 348 -121 319 -144 q 433 -98 377 -98 q 519 -121 490 -98 q 548 -185 548 -144 q 519 -250 548 -227 q 433 -273 490 -273 z "},"Ṯ":{"ha":866,"x_min":10,"x_max":856,"o":"m 340 0 l 340 873 l 10 873 l 10 1028 l 856 1028 l 856 873 l 526 873 l 526 0 l 340 0 m 193 -237 l 193 -126 l 674 -126 l 674 -237 l 193 -237 z "},"U":{"ha":1019,"x_min":97,"x_max":923,"o":"m 512 -13 q 197 91 297 -13 q 97 413 97 196 l 97 1028 l 282 1028 l 282 394 q 338 201 282 262 q 512 140 394 140 q 685 201 629 140 q 741 394 741 262 l 741 1028 l 923 1028 l 923 413 q 824 91 923 195 q 512 -13 724 -13 z "},"Ú":{"ha":1019,"x_min":97,"x_max":923,"o":"m 512 -13 q 197 91 297 -13 q 97 413 97 196 l 97 1028 l 282 1028 l 282 394 q 338 201 282 262 q 512 140 394 140 q 685 201 629 140 q 741 394 741 262 l 741 1028 l 923 1028 l 923 413 q 824 91 923 195 q 512 -13 724 -13 m 429 1111 l 553 1317 l 745 1317 l 593 1111 l 429 1111 z "},"Ŭ":{"ha":1019,"x_min":97,"x_max":923,"o":"m 512 -13 q 197 91 297 -13 q 97 413 97 196 l 97 1028 l 282 1028 l 282 394 q 338 201 282 262 q 512 140 394 140 q 685 201 629 140 q 741 394 741 262 l 741 1028 l 923 1028 l 923 413 q 824 91 923 195 q 512 -13 724 -13 m 513 1115 q 335 1166 399 1115 q 262 1308 272 1217 l 376 1308 q 417 1232 384 1257 q 513 1208 449 1208 q 608 1232 576 1208 q 648 1308 640 1257 l 762 1308 q 689 1166 751 1217 q 513 1115 626 1115 z "},"Û":{"ha":1019,"x_min":97,"x_max":923,"o":"m 512 -13 q 197 91 297 -13 q 97 413 97 196 l 97 1028 l 282 1028 l 282 394 q 338 201 282 262 q 512 140 394 140 q 685 201 629 140 q 741 394 741 262 l 741 1028 l 923 1028 l 923 413 q 824 91 923 195 q 512 -13 724 -13 m 766 1111 l 623 1111 l 512 1247 l 401 1111 l 258 1111 l 433 1317 l 591 1317 l 766 1111 z "},"Ȕ":{"ha":1019,"x_min":97,"x_max":923,"o":"m 512 -13 q 197 91 297 -13 q 97 413 97 196 l 97 1028 l 282 1028 l 282 394 q 338 201 282 262 q 512 140 394 140 q 685 201 629 140 q 741 394 741 262 l 741 1028 l 923 1028 l 923 413 q 824 91 923 195 q 512 -13 724 -13 m 313 1111 l 210 1317 l 356 1317 l 448 1111 l 313 1111 m 576 1111 l 474 1317 l 619 1317 l 711 1111 l 576 1111 z "},"Ü":{"ha":1019,"x_min":97,"x_max":923,"o":"m 512 -13 q 197 91 297 -13 q 97 413 97 196 l 97 1028 l 282 1028 l 282 394 q 338 201 282 262 q 512 140 394 140 q 685 201 629 140 q 741 394 741 262 l 741 1028 l 923 1028 l 923 413 q 824 91 923 195 q 512 -13 724 -13 m 340 1128 q 264 1151 290 1128 q 238 1216 238 1174 q 264 1281 238 1258 q 340 1303 290 1303 q 415 1281 389 1303 q 442 1216 442 1258 q 415 1151 442 1174 q 340 1128 389 1128 m 684 1128 q 608 1151 635 1128 q 582 1216 582 1174 q 608 1281 582 1258 q 684 1303 635 1303 q 759 1281 733 1303 q 785 1216 785 1258 q 759 1151 785 1174 q 684 1128 733 1128 z "},"Ụ":{"ha":1019,"x_min":97,"x_max":923,"o":"m 512 -13 q 197 91 297 -13 q 97 413 97 196 l 97 1028 l 282 1028 l 282 394 q 338 201 282 262 q 512 140 394 140 q 685 201 629 140 q 741 394 741 262 l 741 1028 l 923 1028 l 923 413 q 824 91 923 195 q 512 -13 724 -13 m 512 -273 q 426 -250 456 -273 q 397 -185 397 -227 q 426 -121 397 -144 q 512 -98 456 -98 q 597 -121 568 -98 q 626 -185 626 -144 q 597 -250 626 -227 q 512 -273 568 -273 z "},"Ù":{"ha":1019,"x_min":97,"x_max":923,"o":"m 512 -13 q 197 91 297 -13 q 97 413 97 196 l 97 1028 l 282 1028 l 282 394 q 338 201 282 262 q 512 140 394 140 q 685 201 629 140 q 741 394 741 262 l 741 1028 l 923 1028 l 923 413 q 824 91 923 195 q 512 -13 724 -13 m 430 1111 l 278 1317 l 470 1317 l 594 1111 l 430 1111 z "},"Ủ":{"ha":1019,"x_min":97,"x_max":923,"o":"m 512 -13 q 197 91 297 -13 q 97 413 97 196 l 97 1028 l 282 1028 l 282 394 q 338 201 282 262 q 512 140 394 140 q 685 201 629 140 q 741 394 741 262 l 741 1028 l 923 1028 l 923 413 q 824 91 923 195 q 512 -13 724 -13 m 464 1111 q 485 1158 466 1142 q 538 1190 504 1174 q 569 1207 559 1199 q 580 1225 580 1215 q 561 1246 580 1239 q 501 1253 543 1253 q 367 1234 433 1253 l 367 1307 q 436 1322 397 1316 q 514 1327 476 1327 q 639 1304 598 1327 q 679 1238 679 1281 q 670 1204 679 1218 q 648 1181 660 1190 q 612 1160 635 1172 q 574 1137 587 1147 q 560 1111 562 1126 l 464 1111 z "},"Ư":{"ha":1021,"x_min":97,"x_max":1062,"o":"m 512 -13 q 197 91 297 -13 q 97 413 97 196 l 97 1028 l 282 1028 l 282 394 q 338 201 282 262 q 512 140 394 140 q 685 201 629 140 q 741 394 741 262 l 741 1028 l 802 1028 q 901 1053 867 1028 q 934 1135 934 1078 q 921 1233 934 1180 l 1047 1233 q 1062 1128 1062 1184 q 1025 1008 1062 1054 q 923 948 989 963 l 923 413 q 824 91 923 195 q 512 -13 724 -13 z "},"Ứ":{"ha":1021,"x_min":97,"x_max":1062,"o":"m 512 -13 q 197 91 297 -13 q 97 413 97 196 l 97 1028 l 282 1028 l 282 394 q 338 201 282 262 q 512 140 394 140 q 685 201 629 140 q 741 394 741 262 l 741 1028 l 802 1028 q 901 1053 867 1028 q 934 1135 934 1078 q 921 1233 934 1180 l 1047 1233 q 1062 1128 1062 1184 q 1025 1008 1062 1054 q 923 948 989 963 l 923 413 q 824 91 923 195 q 512 -13 724 -13 m 428 1111 l 551 1317 l 744 1317 l 592 1111 l 428 1111 z "},"Ự":{"ha":1021,"x_min":97,"x_max":1062,"o":"m 512 -13 q 197 91 297 -13 q 97 413 97 196 l 97 1028 l 282 1028 l 282 394 q 338 201 282 262 q 512 140 394 140 q 685 201 629 140 q 741 394 741 262 l 741 1028 l 802 1028 q 901 1053 867 1028 q 934 1135 934 1078 q 921 1233 934 1180 l 1047 1233 q 1062 1128 1062 1184 q 1025 1008 1062 1054 q 923 948 989 963 l 923 413 q 824 91 923 195 q 512 -13 724 -13 m 510 -273 q 425 -250 454 -273 q 396 -185 396 -227 q 425 -121 396 -144 q 510 -98 454 -98 q 596 -121 567 -98 q 625 -185 625 -144 q 596 -250 625 -227 q 510 -273 567 -273 z "},"Ừ":{"ha":1021,"x_min":97,"x_max":1062,"o":"m 512 -13 q 197 91 297 -13 q 97 413 97 196 l 97 1028 l 282 1028 l 282 394 q 338 201 282 262 q 512 140 394 140 q 685 201 629 140 q 741 394 741 262 l 741 1028 l 802 1028 q 901 1053 867 1028 q 934 1135 934 1078 q 921 1233 934 1180 l 1047 1233 q 1062 1128 1062 1184 q 1025 1008 1062 1054 q 923 948 989 963 l 923 413 q 824 91 923 195 q 512 -13 724 -13 m 428 1111 l 276 1317 l 469 1317 l 592 1111 l 428 1111 z "},"Ử":{"ha":1021,"x_min":97,"x_max":1062,"o":"m 512 -13 q 197 91 297 -13 q 97 413 97 196 l 97 1028 l 282 1028 l 282 394 q 338 201 282 262 q 512 140 394 140 q 685 201 629 140 q 741 394 741 262 l 741 1028 l 802 1028 q 901 1053 867 1028 q 934 1135 934 1078 q 921 1233 934 1180 l 1047 1233 q 1062 1128 1062 1184 q 1025 1008 1062 1054 q 923 948 989 963 l 923 413 q 824 91 923 195 q 512 -13 724 -13 m 463 1111 q 484 1158 465 1142 q 536 1190 503 1174 q 568 1207 558 1199 q 578 1225 578 1215 q 560 1246 578 1239 q 500 1253 542 1253 q 366 1234 431 1253 l 366 1307 q 435 1322 395 1316 q 513 1327 474 1327 q 637 1304 597 1327 q 678 1238 678 1281 q 668 1204 678 1218 q 646 1181 659 1190 q 610 1160 633 1172 q 573 1137 585 1147 q 558 1111 560 1126 l 463 1111 z "},"Ữ":{"ha":1021,"x_min":97,"x_max":1062,"o":"m 512 -13 q 197 91 297 -13 q 97 413 97 196 l 97 1028 l 282 1028 l 282 394 q 338 201 282 262 q 512 140 394 140 q 685 201 629 140 q 741 394 741 262 l 741 1028 l 802 1028 q 901 1053 867 1028 q 934 1135 934 1078 q 921 1233 934 1180 l 1047 1233 q 1062 1128 1062 1184 q 1025 1008 1062 1054 q 923 948 989 963 l 923 413 q 824 91 923 195 q 512 -13 724 -13 m 625 1137 q 567 1144 594 1137 q 499 1165 540 1151 q 440 1184 463 1178 q 392 1190 417 1190 q 322 1178 353 1190 q 261 1141 292 1166 l 261 1249 q 319 1286 287 1274 q 396 1298 351 1298 q 455 1291 427 1298 q 522 1269 483 1283 q 581 1250 558 1256 q 628 1244 603 1244 q 699 1256 668 1244 q 760 1293 729 1268 l 760 1185 q 702 1148 734 1160 q 625 1137 669 1137 z "},"Ű":{"ha":1019,"x_min":97,"x_max":923,"o":"m 512 -13 q 197 91 297 -13 q 97 413 97 196 l 97 1028 l 282 1028 l 282 394 q 338 201 282 262 q 512 140 394 140 q 685 201 629 140 q 741 394 741 262 l 741 1028 l 923 1028 l 923 413 q 824 91 923 195 q 512 -13 724 -13 m 313 1111 l 404 1317 l 550 1317 l 448 1111 l 313 1111 m 576 1111 l 667 1317 l 813 1317 l 711 1111 l 576 1111 z "},"Ȗ":{"ha":1019,"x_min":97,"x_max":923,"o":"m 512 -13 q 197 91 297 -13 q 97 413 97 196 l 97 1028 l 282 1028 l 282 394 q 338 201 282 262 q 512 140 394 140 q 685 201 629 140 q 741 394 741 262 l 741 1028 l 923 1028 l 923 413 q 824 91 923 195 q 512 -13 724 -13 m 262 1120 q 335 1261 272 1210 q 511 1313 397 1313 q 688 1261 625 1313 q 762 1120 751 1210 l 648 1120 q 607 1195 640 1170 q 511 1219 575 1219 q 416 1195 447 1219 q 376 1120 384 1170 l 262 1120 z "},"Ū":{"ha":1019,"x_min":97,"x_max":923,"o":"m 512 -13 q 197 91 297 -13 q 97 413 97 196 l 97 1028 l 282 1028 l 282 394 q 338 201 282 262 q 512 140 394 140 q 685 201 629 140 q 741 394 741 262 l 741 1028 l 923 1028 l 923 413 q 824 91 923 195 q 512 -13 724 -13 m 272 1158 l 272 1270 l 752 1270 l 752 1158 l 272 1158 z "},"Ṻ":{"ha":1019,"x_min":97,"x_max":923,"o":"m 512 -13 q 197 91 297 -13 q 97 413 97 196 l 97 1028 l 282 1028 l 282 394 q 338 201 282 262 q 512 140 394 140 q 685 201 629 140 q 741 394 741 262 l 741 1028 l 923 1028 l 923 413 q 824 91 923 195 q 512 -13 724 -13 m 272 1158 l 272 1270 l 752 1270 l 752 1158 l 272 1158 m 340 1351 q 264 1374 290 1351 q 238 1439 238 1397 q 264 1503 238 1481 q 340 1526 290 1526 q 415 1503 389 1526 q 442 1439 442 1481 q 415 1374 442 1397 q 340 1351 389 1351 m 684 1351 q 608 1374 635 1351 q 582 1439 582 1397 q 608 1503 582 1481 q 684 1526 635 1526 q 759 1503 733 1526 q 785 1439 785 1481 q 759 1374 785 1397 q 684 1351 733 1351 z "},"Ų":{"ha":1019,"x_min":97,"x_max":923,"o":"m 923 1028 l 923 413 q 865 148 923 248 q 685 10 808 47 q 538 -63 580 -24 q 496 -149 496 -102 q 596 -223 496 -223 q 699 -201 641 -223 l 699 -276 q 573 -300 637 -300 q 435 -263 482 -300 q 389 -160 389 -226 q 482 -12 389 -69 q 190 99 283 -6 q 97 413 97 203 l 97 1028 l 282 1028 l 282 394 q 338 201 282 262 q 512 140 394 140 q 685 201 629 140 q 741 394 741 262 l 741 1028 l 923 1028 z "},"Ů":{"ha":1019,"x_min":97,"x_max":923,"o":"m 512 -13 q 197 91 297 -13 q 97 413 97 196 l 97 1028 l 282 1028 l 282 394 q 338 201 282 262 q 512 140 394 140 q 685 201 629 140 q 741 394 741 262 l 741 1028 l 923 1028 l 923 413 q 824 91 923 195 q 512 -13 724 -13 m 512 1103 q 438 1122 471 1103 q 386 1172 405 1140 q 367 1244 367 1204 q 386 1317 367 1285 q 438 1368 405 1349 q 512 1386 471 1386 q 586 1368 553 1386 q 638 1317 619 1349 q 656 1244 656 1285 q 638 1172 656 1204 q 586 1122 619 1140 q 512 1103 553 1103 m 512 1172 q 563 1191 543 1172 q 583 1244 583 1211 q 563 1298 583 1278 q 512 1317 544 1317 q 460 1298 480 1317 q 441 1244 441 1278 q 461 1191 441 1211 q 512 1172 481 1172 z "},"Ũ":{"ha":1019,"x_min":97,"x_max":923,"o":"m 512 -13 q 197 91 297 -13 q 97 413 97 196 l 97 1028 l 282 1028 l 282 394 q 338 201 282 262 q 512 140 394 140 q 685 201 629 140 q 741 394 741 262 l 741 1028 l 923 1028 l 923 413 q 824 91 923 195 q 512 -13 724 -13 m 626 1137 q 568 1144 595 1137 q 501 1165 541 1151 q 441 1184 464 1178 q 394 1190 419 1190 q 324 1178 354 1190 q 263 1141 293 1166 l 263 1249 q 320 1286 288 1274 q 397 1298 353 1298 q 456 1291 428 1298 q 523 1269 484 1283 q 582 1250 560 1256 q 630 1244 605 1244 q 700 1256 669 1244 q 761 1293 731 1268 l 761 1185 q 703 1148 735 1160 q 626 1137 671 1137 z "},"Ṹ":{"ha":1019,"x_min":97,"x_max":923,"o":"m 512 -13 q 197 91 297 -13 q 97 413 97 196 l 97 1028 l 282 1028 l 282 394 q 338 201 282 262 q 512 140 394 140 q 685 201 629 140 q 741 394 741 262 l 741 1028 l 923 1028 l 923 413 q 824 91 923 195 q 512 -13 724 -13 m 421 1347 l 544 1508 l 755 1508 l 603 1347 l 421 1347 m 626 1137 q 568 1144 595 1137 q 501 1165 541 1151 q 441 1184 464 1178 q 394 1190 419 1190 q 324 1178 354 1190 q 263 1141 293 1166 l 263 1249 q 320 1286 288 1274 q 397 1298 353 1298 q 456 1291 428 1298 q 523 1269 484 1283 q 582 1250 560 1256 q 630 1244 605 1244 q 700 1256 669 1244 q 761 1293 731 1268 l 761 1185 q 703 1148 735 1160 q 626 1137 671 1137 z "},"V":{"ha":967,"x_min":3,"x_max":963,"o":"m 781 1028 l 963 1028 l 619 0 l 347 0 l 3 1028 l 198 1028 l 488 141 l 781 1028 z "},"W":{"ha":1544,"x_min":27,"x_max":1517,"o":"m 1340 1028 l 1517 1028 l 1238 0 l 999 0 l 775 826 l 544 0 l 306 0 l 27 1028 l 215 1028 l 438 170 l 673 1028 l 881 1028 l 1112 163 l 1340 1028 z "},"Ẃ":{"ha":1544,"x_min":27,"x_max":1517,"o":"m 1340 1028 l 1517 1028 l 1238 0 l 999 0 l 775 826 l 544 0 l 306 0 l 27 1028 l 215 1028 l 438 170 l 673 1028 l 881 1028 l 1112 163 l 1340 1028 m 690 1111 l 813 1317 l 1006 1317 l 853 1111 l 690 1111 z "},"Ŵ":{"ha":1544,"x_min":27,"x_max":1517,"o":"m 1340 1028 l 1517 1028 l 1238 0 l 999 0 l 775 826 l 544 0 l 306 0 l 27 1028 l 215 1028 l 438 170 l 673 1028 l 881 1028 l 1112 163 l 1340 1028 m 1026 1111 l 883 1111 l 772 1247 l 661 1111 l 518 1111 l 693 1317 l 851 1317 l 1026 1111 z "},"Ẅ":{"ha":1544,"x_min":27,"x_max":1517,"o":"m 1340 1028 l 1517 1028 l 1238 0 l 999 0 l 775 826 l 544 0 l 306 0 l 27 1028 l 215 1028 l 438 170 l 673 1028 l 881 1028 l 1112 163 l 1340 1028 m 600 1128 q 525 1151 551 1128 q 499 1216 499 1174 q 525 1281 499 1258 q 600 1303 551 1303 q 676 1281 649 1303 q 702 1216 702 1258 q 676 1151 702 1174 q 600 1128 649 1128 m 944 1128 q 869 1151 895 1128 q 842 1216 842 1174 q 869 1281 842 1258 q 944 1303 895 1303 q 1020 1281 994 1303 q 1046 1216 1046 1258 q 1020 1151 1046 1174 q 944 1128 994 1128 z "},"Ẁ":{"ha":1544,"x_min":27,"x_max":1517,"o":"m 1340 1028 l 1517 1028 l 1238 0 l 999 0 l 775 826 l 544 0 l 306 0 l 27 1028 l 215 1028 l 438 170 l 673 1028 l 881 1028 l 1112 163 l 1340 1028 m 690 1111 l 538 1317 l 731 1317 l 854 1111 l 690 1111 z "},"X":{"ha":931,"x_min":-12,"x_max":941,"o":"m 574 531 l 941 0 l 734 0 l 463 395 l 192 0 l -12 0 l 356 529 l 9 1028 l 216 1028 l 465 667 l 715 1028 l 917 1028 l 574 531 z "},"Y":{"ha":866,"x_min":-31,"x_max":889,"o":"m 889 1028 l 526 444 l 526 0 l 341 0 l 341 442 l -31 1028 l 167 1028 l 438 601 l 704 1028 l 889 1028 z "},"Ý":{"ha":866,"x_min":-31,"x_max":889,"o":"m 889 1028 l 526 444 l 526 0 l 341 0 l 341 442 l -31 1028 l 167 1028 l 438 601 l 704 1028 l 889 1028 m 351 1111 l 474 1317 l 667 1317 l 515 1111 l 351 1111 z "},"Ŷ":{"ha":866,"x_min":-31,"x_max":889,"o":"m 889 1028 l 526 444 l 526 0 l 341 0 l 341 442 l -31 1028 l 167 1028 l 438 601 l 704 1028 l 889 1028 m 688 1111 l 544 1111 l 433 1247 l 322 1111 l 179 1111 l 354 1317 l 513 1317 l 688 1111 z "},"Ÿ":{"ha":866,"x_min":-31,"x_max":889,"o":"m 889 1028 l 526 444 l 526 0 l 341 0 l 341 442 l -31 1028 l 167 1028 l 438 601 l 704 1028 l 889 1028 m 261 1128 q 186 1151 212 1128 q 160 1216 160 1174 q 186 1281 160 1258 q 261 1303 212 1303 q 337 1281 310 1303 q 363 1216 363 1258 q 337 1151 363 1174 q 261 1128 310 1128 m 606 1128 q 530 1151 556 1128 q 503 1216 503 1174 q 530 1281 503 1258 q 606 1303 556 1303 q 681 1281 655 1303 q 707 1216 707 1258 q 681 1151 707 1174 q 606 1128 655 1128 z "},"Ẏ":{"ha":866,"x_min":-31,"x_max":889,"o":"m 889 1028 l 526 444 l 526 0 l 341 0 l 341 442 l -31 1028 l 167 1028 l 438 601 l 704 1028 l 889 1028 m 433 1128 q 348 1151 377 1128 q 319 1216 319 1174 q 348 1281 319 1258 q 433 1303 377 1303 q 519 1281 490 1303 q 548 1216 548 1258 q 519 1151 548 1174 q 433 1128 490 1128 z "},"Ỵ":{"ha":866,"x_min":-31,"x_max":889,"o":"m 889 1028 l 526 444 l 526 0 l 341 0 l 341 442 l -31 1028 l 167 1028 l 438 601 l 704 1028 l 889 1028 m 433 -273 q 347 -250 376 -273 q 318 -185 318 -227 q 347 -121 318 -144 q 433 -98 376 -98 q 518 -121 489 -98 q 547 -185 547 -144 q 518 -250 547 -227 q 433 -273 489 -273 z "},"Ỳ":{"ha":866,"x_min":-31,"x_max":889,"o":"m 889 1028 l 526 444 l 526 0 l 341 0 l 341 442 l -31 1028 l 167 1028 l 438 601 l 704 1028 l 889 1028 m 351 1111 l 199 1317 l 392 1317 l 515 1111 l 351 1111 z "},"Ỷ":{"ha":866,"x_min":-31,"x_max":889,"o":"m 889 1028 l 526 444 l 526 0 l 341 0 l 341 442 l -31 1028 l 167 1028 l 438 601 l 704 1028 l 889 1028 m 385 1111 q 407 1158 388 1142 q 459 1190 426 1174 q 491 1207 481 1199 q 501 1225 501 1215 q 483 1246 501 1239 q 423 1253 465 1253 q 289 1234 354 1253 l 289 1307 q 358 1322 318 1316 q 435 1327 397 1327 q 560 1304 519 1327 q 601 1238 601 1281 q 591 1204 601 1218 q 569 1181 582 1190 q 533 1160 556 1172 q 496 1137 508 1147 q 481 1111 483 1126 l 385 1111 z "},"Ȳ":{"ha":866,"x_min":-31,"x_max":889,"o":"m 889 1028 l 526 444 l 526 0 l 341 0 l 341 442 l -31 1028 l 167 1028 l 438 601 l 704 1028 l 889 1028 m 193 1158 l 193 1270 l 674 1270 l 674 1158 l 193 1158 z "},"Ỹ":{"ha":866,"x_min":-31,"x_max":889,"o":"m 889 1028 l 526 444 l 526 0 l 341 0 l 341 442 l -31 1028 l 167 1028 l 438 601 l 704 1028 l 889 1028 m 548 1137 q 490 1144 517 1137 q 422 1165 463 1151 q 363 1184 385 1178 q 315 1190 340 1190 q 245 1178 276 1190 q 184 1141 215 1166 l 184 1249 q 242 1286 210 1274 q 319 1298 274 1298 q 378 1291 350 1298 q 444 1269 406 1283 q 504 1250 481 1256 q 551 1244 526 1244 q 622 1256 591 1244 q 683 1293 652 1268 l 683 1185 q 625 1148 657 1160 q 548 1137 592 1137 z "},"Z":{"ha":840,"x_min":42,"x_max":797,"o":"m 283 154 l 797 154 l 797 0 l 42 0 l 42 102 l 549 874 l 50 874 l 50 1028 l 790 1028 l 790 926 l 283 154 z "},"Ź":{"ha":840,"x_min":42,"x_max":797,"o":"m 283 154 l 797 154 l 797 0 l 42 0 l 42 102 l 549 874 l 50 874 l 50 1028 l 790 1028 l 790 926 l 283 154 m 338 1111 l 461 1317 l 653 1317 l 501 1111 l 338 1111 z "},"Ž":{"ha":840,"x_min":42,"x_max":797,"o":"m 283 154 l 797 154 l 797 0 l 42 0 l 42 102 l 549 874 l 50 874 l 50 1028 l 790 1028 l 790 926 l 283 154 m 531 1317 l 674 1317 l 499 1111 l 341 1111 l 166 1317 l 309 1317 l 420 1181 l 531 1317 z "},"Ż":{"ha":840,"x_min":42,"x_max":797,"o":"m 283 154 l 797 154 l 797 0 l 42 0 l 42 102 l 549 874 l 50 874 l 50 1028 l 790 1028 l 790 926 l 283 154 m 420 1128 q 335 1151 364 1128 q 306 1216 306 1174 q 335 1281 306 1258 q 420 1303 364 1303 q 506 1281 476 1303 q 535 1216 535 1258 q 506 1151 535 1174 q 420 1128 476 1128 z "},"Ẓ":{"ha":840,"x_min":42,"x_max":797,"o":"m 283 154 l 797 154 l 797 0 l 42 0 l 42 102 l 549 874 l 50 874 l 50 1028 l 790 1028 l 790 926 l 283 154 m 419 -273 q 333 -250 363 -273 q 304 -185 304 -227 q 333 -121 304 -144 q 419 -98 363 -98 q 504 -121 475 -98 q 533 -185 533 -144 q 504 -250 533 -227 q 419 -273 475 -273 z "},"a":{"ha":755,"x_min":51,"x_max":671,"o":"m 342 769 q 529 741 458 769 q 636 646 601 712 q 671 467 671 580 l 671 0 l 520 0 l 508 78 l 498 78 q 410 10 464 33 q 291 -13 356 -13 q 163 13 217 -13 q 80 88 108 40 q 51 201 51 136 q 123 365 51 307 q 351 435 195 422 l 493 448 l 493 478 q 475 568 493 535 q 417 615 456 601 q 312 629 378 629 q 211 621 265 629 q 107 597 157 613 l 107 737 q 222 761 158 753 q 342 769 285 769 m 347 116 q 425 131 388 116 q 493 180 463 147 l 493 341 l 369 330 q 264 295 297 323 q 231 219 231 268 q 261 142 231 169 q 347 116 290 116 z "},"á":{"ha":755,"x_min":51,"x_max":671,"o":"m 342 769 q 529 741 458 769 q 636 646 601 712 q 671 467 671 580 l 671 0 l 520 0 l 508 78 l 498 78 q 410 10 464 33 q 291 -13 356 -13 q 163 13 217 -13 q 80 88 108 40 q 51 201 51 136 q 123 365 51 307 q 351 435 195 422 l 493 448 l 493 478 q 475 568 493 535 q 417 615 456 601 q 312 629 378 629 q 211 621 265 629 q 107 597 157 613 l 107 737 q 222 761 158 753 q 342 769 285 769 m 347 116 q 425 131 388 116 q 493 180 463 147 l 493 341 l 369 330 q 264 295 297 323 q 231 219 231 268 q 261 142 231 169 q 347 116 290 116 m 292 861 l 444 1122 l 639 1122 l 458 861 l 292 861 z "},"ă":{"ha":755,"x_min":51,"x_max":671,"o":"m 342 769 q 529 741 458 769 q 636 646 601 712 q 671 467 671 580 l 671 0 l 520 0 l 508 78 l 498 78 q 410 10 464 33 q 291 -13 356 -13 q 163 13 217 -13 q 80 88 108 40 q 51 201 51 136 q 123 365 51 307 q 351 435 195 422 l 493 448 l 493 478 q 475 568 493 535 q 417 615 456 601 q 312 629 378 629 q 211 621 265 629 q 107 597 157 613 l 107 737 q 222 761 158 753 q 342 769 285 769 m 347 116 q 425 131 388 116 q 493 180 463 147 l 493 341 l 369 330 q 264 295 297 323 q 231 219 231 268 q 261 142 231 169 q 347 116 290 116 m 376 868 q 206 929 267 868 q 138 1106 144 990 l 251 1106 q 287 999 257 1034 q 376 964 317 964 q 464 999 434 964 q 499 1106 494 1034 l 612 1106 q 545 929 606 990 q 376 868 484 868 z "},"ắ":{"ha":755,"x_min":51,"x_max":671,"o":"m 342 769 q 529 741 458 769 q 636 646 601 712 q 671 467 671 580 l 671 0 l 520 0 l 508 78 l 498 78 q 410 10 464 33 q 291 -13 356 -13 q 163 13 217 -13 q 80 88 108 40 q 51 201 51 136 q 123 365 51 307 q 351 435 195 422 l 493 448 l 493 478 q 475 568 493 535 q 417 615 456 601 q 312 629 378 629 q 211 621 265 629 q 107 597 157 613 l 107 737 q 222 761 158 753 q 342 769 285 769 m 347 116 q 425 131 388 116 q 493 180 463 147 l 493 341 l 369 330 q 264 295 297 323 q 231 219 231 268 q 261 142 231 169 q 347 116 290 116 m 309 1109 l 433 1297 l 591 1297 l 439 1109 l 309 1109 m 376 869 q 203 927 265 869 q 131 1088 140 985 l 245 1088 q 284 993 253 1025 q 376 962 316 962 q 467 993 435 962 q 505 1088 498 1025 l 619 1088 q 548 927 610 985 q 376 869 486 869 z "},"ặ":{"ha":755,"x_min":51,"x_max":671,"o":"m 342 769 q 529 741 458 769 q 636 646 601 712 q 671 467 671 580 l 671 0 l 520 0 l 508 78 l 498 78 q 410 10 464 33 q 291 -13 356 -13 q 163 13 217 -13 q 80 88 108 40 q 51 201 51 136 q 123 365 51 307 q 351 435 195 422 l 493 448 l 493 478 q 475 568 493 535 q 417 615 456 601 q 312 629 378 629 q 211 621 265 629 q 107 597 157 613 l 107 737 q 222 761 158 753 q 342 769 285 769 m 347 116 q 425 131 388 116 q 493 180 463 147 l 493 341 l 369 330 q 264 295 297 323 q 231 219 231 268 q 261 142 231 169 q 347 116 290 116 m 379 -286 q 304 -261 331 -286 q 277 -192 277 -236 q 304 -123 277 -149 q 379 -98 331 -98 q 455 -123 428 -98 q 481 -192 481 -149 q 455 -261 481 -236 q 379 -286 428 -286 m 376 868 q 206 929 267 868 q 138 1106 144 990 l 251 1106 q 287 999 257 1034 q 376 964 317 964 q 464 999 434 964 q 499 1106 494 1034 l 612 1106 q 545 929 606 990 q 376 868 484 868 z "},"ằ":{"ha":755,"x_min":51,"x_max":671,"o":"m 342 769 q 529 741 458 769 q 636 646 601 712 q 671 467 671 580 l 671 0 l 520 0 l 508 78 l 498 78 q 410 10 464 33 q 291 -13 356 -13 q 163 13 217 -13 q 80 88 108 40 q 51 201 51 136 q 123 365 51 307 q 351 435 195 422 l 493 448 l 493 478 q 475 568 493 535 q 417 615 456 601 q 312 629 378 629 q 211 621 265 629 q 107 597 157 613 l 107 737 q 222 761 158 753 q 342 769 285 769 m 347 116 q 425 131 388 116 q 493 180 463 147 l 493 341 l 369 330 q 264 295 297 323 q 231 219 231 268 q 261 142 231 169 q 347 116 290 116 m 311 1109 l 159 1297 l 317 1297 l 441 1109 l 311 1109 m 376 869 q 203 927 265 869 q 131 1088 140 985 l 245 1088 q 284 993 253 1025 q 376 962 316 962 q 467 993 435 962 q 505 1088 498 1025 l 619 1088 q 548 927 610 985 q 376 869 486 869 z "},"ẳ":{"ha":755,"x_min":51,"x_max":671,"o":"m 342 769 q 529 741 458 769 q 636 646 601 712 q 671 467 671 580 l 671 0 l 520 0 l 508 78 l 498 78 q 410 10 464 33 q 291 -13 356 -13 q 163 13 217 -13 q 80 88 108 40 q 51 201 51 136 q 123 365 51 307 q 351 435 195 422 l 493 448 l 493 478 q 475 568 493 535 q 417 615 456 601 q 312 629 378 629 q 211 621 265 629 q 107 597 157 613 l 107 737 q 222 761 158 753 q 342 769 285 769 m 347 116 q 425 131 388 116 q 493 180 463 147 l 493 341 l 369 330 q 264 295 297 323 q 231 219 231 268 q 261 142 231 169 q 347 116 290 116 m 327 1109 q 347 1152 328 1137 q 400 1181 366 1167 q 433 1198 422 1191 q 443 1215 443 1205 q 365 1242 443 1242 q 231 1224 298 1242 l 231 1288 q 300 1302 260 1297 q 377 1307 340 1307 q 542 1226 542 1307 q 525 1184 542 1199 q 475 1154 508 1169 q 437 1133 449 1142 q 423 1109 425 1124 l 327 1109 m 376 869 q 203 927 265 869 q 131 1088 140 985 l 245 1088 q 284 993 253 1025 q 376 962 316 962 q 467 993 435 962 q 505 1088 498 1025 l 619 1088 q 548 927 610 985 q 376 869 486 869 z "},"ẵ":{"ha":755,"x_min":51,"x_max":671,"o":"m 342 769 q 529 741 458 769 q 636 646 601 712 q 671 467 671 580 l 671 0 l 520 0 l 508 78 l 498 78 q 410 10 464 33 q 291 -13 356 -13 q 163 13 217 -13 q 80 88 108 40 q 51 201 51 136 q 123 365 51 307 q 351 435 195 422 l 493 448 l 493 478 q 475 568 493 535 q 417 615 456 601 q 312 629 378 629 q 211 621 265 629 q 107 597 157 613 l 107 737 q 222 761 158 753 q 342 769 285 769 m 347 116 q 425 131 388 116 q 493 180 463 147 l 493 341 l 369 330 q 264 295 297 323 q 231 219 231 268 q 261 142 231 169 q 347 116 290 116 m 490 1134 q 431 1140 458 1134 q 364 1160 404 1147 q 306 1177 330 1171 q 257 1183 282 1183 q 187 1172 217 1183 q 124 1138 156 1161 l 124 1234 q 184 1268 151 1257 q 260 1278 217 1278 q 320 1272 292 1278 q 386 1252 348 1265 q 444 1235 420 1241 q 493 1229 468 1229 q 563 1240 533 1229 q 626 1274 594 1251 l 626 1178 q 567 1145 599 1156 q 490 1134 534 1134 m 376 869 q 203 927 265 869 q 131 1088 140 985 l 245 1088 q 284 993 253 1025 q 376 962 316 962 q 467 993 435 962 q 505 1088 498 1025 l 619 1088 q 548 927 610 985 q 376 869 486 869 z "},"â":{"ha":755,"x_min":51,"x_max":671,"o":"m 342 769 q 529 741 458 769 q 636 646 601 712 q 671 467 671 580 l 671 0 l 520 0 l 508 78 l 498 78 q 410 10 464 33 q 291 -13 356 -13 q 163 13 217 -13 q 80 88 108 40 q 51 201 51 136 q 123 365 51 307 q 351 435 195 422 l 493 448 l 493 478 q 475 568 493 535 q 417 615 456 601 q 312 629 378 629 q 211 621 265 629 q 107 597 157 613 l 107 737 q 222 761 158 753 q 342 769 285 769 m 347 116 q 425 131 388 116 q 493 180 463 147 l 493 341 l 369 330 q 264 295 297 323 q 231 219 231 268 q 261 142 231 169 q 347 116 290 116 m 610 861 l 476 861 l 375 1035 l 274 861 l 140 861 l 299 1122 l 451 1122 l 610 861 z "},"ấ":{"ha":755,"x_min":51,"x_max":810,"o":"m 342 769 q 529 741 458 769 q 636 646 601 712 q 671 467 671 580 l 671 0 l 520 0 l 508 78 l 498 78 q 410 10 464 33 q 291 -13 356 -13 q 163 13 217 -13 q 80 88 108 40 q 51 201 51 136 q 123 365 51 307 q 351 435 195 422 l 493 448 l 493 478 q 475 568 493 535 q 417 615 456 601 q 312 629 378 629 q 211 621 265 629 q 107 597 157 613 l 107 737 q 222 761 158 753 q 342 769 285 769 m 347 116 q 425 131 388 116 q 493 180 463 147 l 493 341 l 369 330 q 264 295 297 323 q 231 219 231 268 q 261 142 231 169 q 347 116 290 116 m 653 1297 l 810 1297 l 658 1109 l 529 1109 l 653 1297 m 299 1122 l 451 1122 l 610 861 l 476 861 l 375 1035 l 274 861 l 140 861 l 299 1122 z "},"ậ":{"ha":755,"x_min":51,"x_max":671,"o":"m 342 769 q 529 741 458 769 q 636 646 601 712 q 671 467 671 580 l 671 0 l 520 0 l 508 78 l 498 78 q 410 10 464 33 q 291 -13 356 -13 q 163 13 217 -13 q 80 88 108 40 q 51 201 51 136 q 123 365 51 307 q 351 435 195 422 l 493 448 l 493 478 q 475 568 493 535 q 417 615 456 601 q 312 629 378 629 q 211 621 265 629 q 107 597 157 613 l 107 737 q 222 761 158 753 q 342 769 285 769 m 347 116 q 425 131 388 116 q 493 180 463 147 l 493 341 l 369 330 q 264 295 297 323 q 231 219 231 268 q 261 142 231 169 q 347 116 290 116 m 379 -286 q 304 -261 331 -286 q 277 -192 277 -236 q 304 -123 277 -149 q 379 -98 331 -98 q 455 -123 428 -98 q 481 -192 481 -149 q 455 -261 481 -236 q 379 -286 428 -286 m 610 861 l 476 861 l 375 1035 l 274 861 l 140 861 l 299 1122 l 451 1122 l 610 861 z "},"ầ":{"ha":755,"x_min":51,"x_max":677,"o":"m 342 769 q 529 741 458 769 q 636 646 601 712 q 671 467 671 580 l 671 0 l 520 0 l 508 78 l 498 78 q 410 10 464 33 q 291 -13 356 -13 q 163 13 217 -13 q 80 88 108 40 q 51 201 51 136 q 123 365 51 307 q 351 435 195 422 l 493 448 l 493 478 q 475 568 493 535 q 417 615 456 601 q 312 629 378 629 q 211 621 265 629 q 107 597 157 613 l 107 737 q 222 761 158 753 q 342 769 285 769 m 347 116 q 425 131 388 116 q 493 180 463 147 l 493 341 l 369 330 q 264 295 297 323 q 231 219 231 268 q 261 142 231 169 q 347 116 290 116 m 677 1109 l 548 1109 l 396 1297 l 553 1297 l 677 1109 m 299 1122 l 451 1122 l 610 861 l 476 861 l 375 1035 l 274 861 l 140 861 l 299 1122 z "},"ẩ":{"ha":755,"x_min":51,"x_max":731,"o":"m 342 769 q 529 741 458 769 q 636 646 601 712 q 671 467 671 580 l 671 0 l 520 0 l 508 78 l 498 78 q 410 10 464 33 q 291 -13 356 -13 q 163 13 217 -13 q 80 88 108 40 q 51 201 51 136 q 123 365 51 307 q 351 435 195 422 l 493 448 l 493 478 q 475 568 493 535 q 417 615 456 601 q 312 629 378 629 q 211 621 265 629 q 107 597 157 613 l 107 737 q 222 761 158 753 q 342 769 285 769 m 347 116 q 425 131 388 116 q 493 180 463 147 l 493 341 l 369 330 q 264 295 297 323 q 231 219 231 268 q 261 142 231 169 q 347 116 290 116 m 574 1307 q 731 1226 731 1307 q 715 1188 731 1201 q 670 1160 700 1174 q 632 1137 645 1147 q 616 1109 618 1126 l 526 1109 q 546 1155 528 1139 q 597 1184 565 1170 q 625 1200 617 1194 q 634 1215 634 1206 q 617 1236 634 1229 q 560 1242 600 1242 q 432 1224 491 1242 l 432 1288 q 498 1302 459 1297 q 574 1307 538 1307 m 299 1122 l 451 1122 l 610 861 l 476 861 l 375 1035 l 274 861 l 140 861 l 299 1122 z "},"ẫ":{"ha":755,"x_min":51,"x_max":671,"o":"m 342 769 q 529 741 458 769 q 636 646 601 712 q 671 467 671 580 l 671 0 l 520 0 l 508 78 l 498 78 q 410 10 464 33 q 291 -13 356 -13 q 163 13 217 -13 q 80 88 108 40 q 51 201 51 136 q 123 365 51 307 q 351 435 195 422 l 493 448 l 493 478 q 475 568 493 535 q 417 615 456 601 q 312 629 378 629 q 211 621 265 629 q 107 597 157 613 l 107 737 q 222 761 158 753 q 342 769 285 769 m 347 116 q 425 131 388 116 q 493 180 463 147 l 493 341 l 369 330 q 264 295 297 323 q 231 219 231 268 q 261 142 231 169 q 347 116 290 116 m 487 1134 q 429 1141 456 1134 q 364 1160 402 1147 q 307 1177 330 1172 q 260 1183 284 1183 q 192 1172 222 1183 q 131 1138 162 1161 l 131 1234 q 189 1267 157 1256 q 263 1278 221 1278 q 320 1272 294 1278 q 386 1252 346 1265 q 442 1234 418 1240 q 490 1228 466 1228 q 558 1240 528 1228 q 619 1274 588 1251 l 619 1178 q 562 1145 594 1156 q 487 1134 530 1134 m 622 862 l 483 862 l 375 1021 l 267 862 l 128 862 l 296 1093 l 454 1093 l 622 862 z "},"ȁ":{"ha":755,"x_min":51,"x_max":671,"o":"m 342 769 q 529 741 458 769 q 636 646 601 712 q 671 467 671 580 l 671 0 l 520 0 l 508 78 l 498 78 q 410 10 464 33 q 291 -13 356 -13 q 163 13 217 -13 q 80 88 108 40 q 51 201 51 136 q 123 365 51 307 q 351 435 195 422 l 493 448 l 493 478 q 475 568 493 535 q 417 615 456 601 q 312 629 378 629 q 211 621 265 629 q 107 597 157 613 l 107 737 q 222 761 158 753 q 342 769 285 769 m 347 116 q 425 131 388 116 q 493 180 463 147 l 493 341 l 369 330 q 264 295 297 323 q 231 219 231 268 q 261 142 231 169 q 347 116 290 116 m 176 861 l 67 1122 l 213 1122 l 311 861 l 176 861 m 439 861 l 330 1122 l 476 1122 l 574 861 l 439 861 z "},"ä":{"ha":755,"x_min":51,"x_max":671,"o":"m 342 769 q 529 741 458 769 q 636 646 601 712 q 671 467 671 580 l 671 0 l 520 0 l 508 78 l 498 78 q 410 10 464 33 q 291 -13 356 -13 q 163 13 217 -13 q 80 88 108 40 q 51 201 51 136 q 123 365 51 307 q 351 435 195 422 l 493 448 l 493 478 q 475 568 493 535 q 417 615 456 601 q 312 629 378 629 q 211 621 265 629 q 107 597 157 613 l 107 737 q 222 761 158 753 q 342 769 285 769 m 347 116 q 425 131 388 116 q 493 180 463 147 l 493 341 l 369 330 q 264 295 297 323 q 231 219 231 268 q 261 142 231 169 q 347 116 290 116 m 213 890 q 137 916 164 890 q 110 986 110 941 q 137 1057 110 1031 q 213 1083 164 1083 q 288 1057 262 1083 q 315 986 315 1031 q 288 916 315 941 q 213 890 262 890 m 538 890 q 462 916 488 890 q 435 986 435 941 q 462 1057 435 1031 q 538 1083 488 1083 q 613 1057 586 1083 q 640 986 640 1031 q 613 916 640 941 q 538 890 586 890 z "},"ạ":{"ha":755,"x_min":51,"x_max":671,"o":"m 342 769 q 529 741 458 769 q 636 646 601 712 q 671 467 671 580 l 671 0 l 520 0 l 508 78 l 498 78 q 410 10 464 33 q 291 -13 356 -13 q 163 13 217 -13 q 80 88 108 40 q 51 201 51 136 q 123 365 51 307 q 351 435 195 422 l 493 448 l 493 478 q 475 568 493 535 q 417 615 456 601 q 312 629 378 629 q 211 621 265 629 q 107 597 157 613 l 107 737 q 222 761 158 753 q 342 769 285 769 m 347 116 q 425 131 388 116 q 493 180 463 147 l 493 341 l 369 330 q 264 295 297 323 q 231 219 231 268 q 261 142 231 169 q 347 116 290 116 m 379 -286 q 304 -261 331 -286 q 277 -192 277 -236 q 304 -123 277 -149 q 379 -98 331 -98 q 455 -123 428 -98 q 481 -192 481 -149 q 455 -261 481 -236 q 379 -286 428 -286 z "},"à":{"ha":755,"x_min":51,"x_max":671,"o":"m 342 769 q 529 741 458 769 q 636 646 601 712 q 671 467 671 580 l 671 0 l 520 0 l 508 78 l 498 78 q 410 10 464 33 q 291 -13 356 -13 q 163 13 217 -13 q 80 88 108 40 q 51 201 51 136 q 123 365 51 307 q 351 435 195 422 l 493 448 l 493 478 q 475 568 493 535 q 417 615 456 601 q 312 629 378 629 q 211 621 265 629 q 107 597 157 613 l 107 737 q 222 761 158 753 q 342 769 285 769 m 347 116 q 425 131 388 116 q 493 180 463 147 l 493 341 l 369 330 q 264 295 297 323 q 231 219 231 268 q 261 142 231 169 q 347 116 290 116 m 292 861 l 111 1122 l 306 1122 l 458 861 l 292 861 z "},"ả":{"ha":755,"x_min":51,"x_max":671,"o":"m 342 769 q 529 741 458 769 q 636 646 601 712 q 671 467 671 580 l 671 0 l 520 0 l 508 78 l 498 78 q 410 10 464 33 q 291 -13 356 -13 q 163 13 217 -13 q 80 88 108 40 q 51 201 51 136 q 123 365 51 307 q 351 435 195 422 l 493 448 l 493 478 q 475 568 493 535 q 417 615 456 601 q 312 629 378 629 q 211 621 265 629 q 107 597 157 613 l 107 737 q 222 761 158 753 q 342 769 285 769 m 347 116 q 425 131 388 116 q 493 180 463 147 l 493 341 l 369 330 q 264 295 297 323 q 231 219 231 268 q 261 142 231 169 q 347 116 290 116 m 327 861 q 347 923 329 900 q 395 968 365 946 q 424 993 415 983 q 433 1017 433 1003 q 416 1046 433 1037 q 360 1056 399 1056 q 248 1039 304 1056 l 248 1113 q 307 1126 272 1122 q 372 1131 341 1131 q 493 1105 454 1131 q 533 1028 533 1079 q 518 974 533 994 q 475 934 503 955 q 438 900 450 915 q 423 861 425 885 l 327 861 z "},"ȃ":{"ha":755,"x_min":51,"x_max":671,"o":"m 342 769 q 529 741 458 769 q 636 646 601 712 q 671 467 671 580 l 671 0 l 520 0 l 508 78 l 498 78 q 410 10 464 33 q 291 -13 356 -13 q 163 13 217 -13 q 80 88 108 40 q 51 201 51 136 q 123 365 51 307 q 351 435 195 422 l 493 448 l 493 478 q 475 568 493 535 q 417 615 456 601 q 312 629 378 629 q 211 621 265 629 q 107 597 157 613 l 107 737 q 222 761 158 753 q 342 769 285 769 m 347 116 q 425 131 388 116 q 493 180 463 147 l 493 341 l 369 330 q 264 295 297 323 q 231 219 231 268 q 261 142 231 169 q 347 116 290 116 m 138 881 q 205 1058 144 997 q 374 1119 265 1119 q 544 1057 482 1119 q 612 881 606 996 l 499 881 q 463 988 493 953 q 374 1023 433 1023 q 286 988 315 1023 q 251 881 256 953 l 138 881 z "},"ā":{"ha":755,"x_min":51,"x_max":671,"o":"m 342 769 q 529 741 458 769 q 636 646 601 712 q 671 467 671 580 l 671 0 l 520 0 l 508 78 l 498 78 q 410 10 464 33 q 291 -13 356 -13 q 163 13 217 -13 q 80 88 108 40 q 51 201 51 136 q 123 365 51 307 q 351 435 195 422 l 493 448 l 493 478 q 475 568 493 535 q 417 615 456 601 q 312 629 378 629 q 211 621 265 629 q 107 597 157 613 l 107 737 q 222 761 158 753 q 342 769 285 769 m 347 116 q 425 131 388 116 q 493 180 463 147 l 493 341 l 369 330 q 264 295 297 323 q 231 219 231 268 q 261 142 231 169 q 347 116 290 116 m 140 931 l 140 1043 l 610 1043 l 610 931 l 140 931 z "},"ą":{"ha":755,"x_min":51,"x_max":709,"o":"m 616 -224 q 709 -200 661 -224 l 709 -276 q 594 -300 657 -300 q 468 -263 512 -300 q 424 -162 424 -226 q 448 -74 424 -114 q 526 0 472 -34 l 520 0 l 508 78 l 498 78 q 410 10 464 33 q 291 -13 356 -13 q 163 13 217 -13 q 80 88 108 40 q 51 201 51 136 q 123 365 51 307 q 351 435 195 422 l 493 448 l 493 478 q 475 568 493 535 q 417 615 456 601 q 312 629 378 629 q 211 621 265 629 q 107 597 157 613 l 107 737 q 222 761 158 753 q 342 769 285 769 q 529 741 458 769 q 636 646 601 712 q 671 467 671 580 l 671 0 q 562 -72 594 -35 q 531 -151 531 -108 q 553 -204 531 -185 q 616 -224 575 -224 m 347 116 q 425 131 388 116 q 493 180 463 147 l 493 341 l 369 330 q 264 295 297 323 q 231 219 231 268 q 261 142 231 169 q 347 116 290 116 z "},"å":{"ha":755,"x_min":51,"x_max":671,"o":"m 342 769 q 529 741 458 769 q 636 646 601 712 q 671 467 671 580 l 671 0 l 520 0 l 508 78 l 498 78 q 410 10 464 33 q 291 -13 356 -13 q 163 13 217 -13 q 80 88 108 40 q 51 201 51 136 q 123 365 51 307 q 351 435 195 422 l 493 448 l 493 478 q 475 568 493 535 q 417 615 456 601 q 312 629 378 629 q 211 621 265 629 q 107 597 157 613 l 107 737 q 222 761 158 753 q 342 769 285 769 m 347 116 q 425 131 388 116 q 493 180 463 147 l 493 341 l 369 330 q 264 295 297 323 q 231 219 231 268 q 261 142 231 169 q 347 116 290 116 m 375 858 q 301 876 334 858 q 249 927 268 894 q 231 999 231 959 q 249 1072 231 1040 q 301 1122 268 1103 q 375 1140 334 1140 q 449 1122 416 1140 q 501 1072 482 1103 q 519 999 519 1040 q 501 927 519 959 q 449 876 482 894 q 375 858 416 858 m 375 926 q 426 946 407 926 q 446 999 446 966 q 426 1052 446 1033 q 375 1072 406 1072 q 324 1052 344 1072 q 304 999 304 1033 q 324 946 304 966 q 375 926 343 926 z "},"ǻ":{"ha":755,"x_min":51,"x_max":671,"o":"m 342 769 q 529 741 458 769 q 636 646 601 712 q 671 467 671 580 l 671 0 l 520 0 l 508 78 l 498 78 q 410 10 464 33 q 291 -13 356 -13 q 163 13 217 -13 q 80 88 108 40 q 51 201 51 136 q 123 365 51 307 q 351 435 195 422 l 493 448 l 493 478 q 475 568 493 535 q 417 615 456 601 q 312 629 378 629 q 211 621 265 629 q 107 597 157 613 l 107 737 q 222 761 158 753 q 342 769 285 769 m 347 116 q 425 131 388 116 q 493 180 463 147 l 493 341 l 369 330 q 264 295 297 323 q 231 219 231 268 q 261 142 231 169 q 347 116 290 116 m 497 1078 q 519 999 519 1044 q 501 927 519 959 q 449 876 482 894 q 375 858 416 858 q 301 876 334 858 q 249 927 268 894 q 231 999 231 959 q 249 1072 231 1040 q 301 1122 268 1103 q 375 1140 334 1140 q 416 1135 394 1140 l 497 1236 l 633 1236 l 497 1078 m 375 926 q 426 946 407 926 q 446 999 446 966 q 426 1052 446 1033 q 375 1072 406 1072 q 324 1052 344 1072 q 304 999 304 1033 q 324 946 304 966 q 375 926 343 926 z "},"ã":{"ha":755,"x_min":51,"x_max":671,"o":"m 342 769 q 529 741 458 769 q 636 646 601 712 q 671 467 671 580 l 671 0 l 520 0 l 508 78 l 498 78 q 410 10 464 33 q 291 -13 356 -13 q 163 13 217 -13 q 80 88 108 40 q 51 201 51 136 q 123 365 51 307 q 351 435 195 422 l 493 448 l 493 478 q 475 568 493 535 q 417 615 456 601 q 312 629 378 629 q 211 621 265 629 q 107 597 157 613 l 107 737 q 222 761 158 753 q 342 769 285 769 m 347 116 q 425 131 388 116 q 493 180 463 147 l 493 341 l 369 330 q 264 295 297 323 q 231 219 231 268 q 261 142 231 169 q 347 116 290 116 m 481 908 q 426 916 452 908 q 364 940 401 924 q 310 962 333 955 q 266 969 288 969 q 200 956 230 969 q 140 913 170 942 l 140 1030 q 197 1068 165 1056 q 269 1081 228 1081 q 324 1072 298 1081 q 386 1048 349 1064 q 441 1026 419 1033 q 484 1019 463 1019 q 550 1033 521 1019 q 610 1076 580 1047 l 610 959 q 553 920 585 933 q 481 908 522 908 z "},"æ":{"ha":1180,"x_min":51,"x_max":1135,"o":"m 1135 324 l 672 324 q 699 207 675 251 q 773 144 724 164 q 906 125 823 125 q 1094 151 988 125 l 1094 13 q 881 -14 986 -14 q 691 15 769 -14 q 567 105 613 44 q 447 14 512 42 q 307 -13 381 -13 q 168 13 226 -13 q 81 88 110 39 q 51 202 51 136 q 127 372 51 310 q 363 433 203 433 l 494 433 l 494 478 q 475 568 494 535 q 416 615 456 601 q 311 629 376 629 q 211 621 265 629 q 108 597 157 613 l 108 737 q 220 761 161 753 q 335 769 279 769 q 499 745 434 769 q 599 667 563 720 q 697 743 638 717 q 828 769 755 769 q 1055 670 975 769 q 1135 374 1135 570 l 1135 324 m 819 651 q 710 601 748 651 q 671 433 673 551 l 965 433 q 926 601 962 551 q 819 651 890 651 m 349 116 q 439 136 397 116 q 518 201 481 156 q 496 328 501 254 l 378 328 q 231 217 231 328 q 261 142 231 167 q 349 116 292 116 z "},"ǽ":{"ha":1180,"x_min":51,"x_max":1135,"o":"m 1135 324 l 672 324 q 699 207 675 251 q 773 144 724 164 q 906 125 823 125 q 1094 151 988 125 l 1094 13 q 881 -14 986 -14 q 691 15 769 -14 q 567 105 613 44 q 447 14 512 42 q 307 -13 381 -13 q 168 13 226 -13 q 81 88 110 39 q 51 202 51 136 q 127 372 51 310 q 363 433 203 433 l 494 433 l 494 478 q 475 568 494 535 q 416 615 456 601 q 311 629 376 629 q 211 621 265 629 q 108 597 157 613 l 108 737 q 220 761 161 753 q 335 769 279 769 q 499 745 434 769 q 599 667 563 720 q 697 743 638 717 q 828 769 755 769 q 1055 670 975 769 q 1135 374 1135 570 l 1135 324 m 819 651 q 710 601 748 651 q 671 433 673 551 l 965 433 q 926 601 962 551 q 819 651 890 651 m 349 116 q 439 136 397 116 q 518 201 481 156 q 496 328 501 254 l 378 328 q 231 217 231 328 q 261 142 231 167 q 349 116 292 116 m 502 861 l 655 1122 l 849 1122 l 669 861 l 502 861 z "},"b":{"ha":829,"x_min":90,"x_max":775,"o":"m 362 -14 q 220 -4 291 -14 q 90 26 150 6 l 90 1122 l 272 1122 l 272 683 l 281 683 q 367 747 316 724 q 483 769 419 769 q 631 730 565 769 q 736 607 697 691 q 775 394 775 522 q 672 89 775 191 q 362 -14 568 -14 m 377 126 q 539 186 485 126 q 592 379 592 246 q 547 565 592 511 q 417 619 501 619 q 337 603 376 619 q 272 558 299 588 l 272 140 q 377 126 320 126 z "},"c":{"ha":647,"x_min":54,"x_max":617,"o":"m 428 -14 q 149 83 244 -14 q 54 378 54 180 q 156 673 54 577 q 452 769 257 769 q 617 751 540 769 l 617 606 q 476 622 541 622 q 343 597 394 622 q 267 520 292 573 q 242 380 242 467 q 294 191 242 249 q 455 134 347 134 q 529 141 490 134 q 617 161 567 147 l 617 15 q 428 -14 528 -14 z "},"ć":{"ha":647,"x_min":54,"x_max":631,"o":"m 428 -14 q 149 83 244 -14 q 54 378 54 180 q 156 673 54 577 q 452 769 257 769 q 617 751 540 769 l 617 606 q 476 622 541 622 q 343 597 394 622 q 267 520 292 573 q 242 380 242 467 q 294 191 242 249 q 455 134 347 134 q 529 141 490 134 q 617 161 567 147 l 617 15 q 428 -14 528 -14 m 284 861 l 437 1122 l 631 1122 l 451 861 l 284 861 z "},"č":{"ha":647,"x_min":54,"x_max":617,"o":"m 428 -14 q 149 83 244 -14 q 54 378 54 180 q 156 673 54 577 q 452 769 257 769 q 617 751 540 769 l 617 606 q 476 622 541 622 q 343 597 394 622 q 267 520 292 573 q 242 380 242 467 q 294 191 242 249 q 455 134 347 134 q 529 141 490 134 q 617 161 567 147 l 617 15 q 428 -14 528 -14 m 470 1122 l 604 1122 l 443 861 l 292 861 l 131 1122 l 265 1122 l 367 948 l 470 1122 z "},"ç":{"ha":647,"x_min":54,"x_max":617,"o":"m 476 622 q 343 597 394 622 q 267 520 292 573 q 242 380 242 467 q 294 191 242 249 q 455 134 347 134 q 529 141 490 134 q 617 161 567 147 l 617 15 q 428 -14 528 -14 l 426 -14 l 426 -65 q 509 -103 481 -73 q 538 -181 538 -133 q 496 -268 538 -237 q 374 -300 454 -300 q 308 -294 340 -300 q 251 -278 276 -288 l 251 -203 q 309 -220 278 -215 q 367 -226 340 -226 q 421 -214 403 -226 q 440 -174 440 -201 q 366 -120 440 -120 l 336 -120 l 336 -7 q 126 111 198 15 q 54 378 54 206 q 156 673 54 577 q 452 769 257 769 q 617 751 540 769 l 617 606 q 476 622 541 622 z "},"ḉ":{"ha":647,"x_min":54,"x_max":631,"o":"m 631 1122 l 451 861 l 284 861 l 437 1122 l 631 1122 m 54 378 q 156 673 54 577 q 452 769 257 769 q 617 751 540 769 l 617 606 q 476 622 541 622 q 343 597 394 622 q 267 520 292 573 q 242 380 242 467 q 294 191 242 249 q 455 134 347 134 q 529 141 490 134 q 617 161 567 147 l 617 15 q 428 -14 528 -14 l 426 -14 l 426 -65 q 509 -103 481 -73 q 538 -181 538 -133 q 496 -268 538 -237 q 374 -300 454 -300 q 308 -294 340 -300 q 251 -278 276 -288 l 251 -203 q 309 -220 278 -215 q 367 -226 340 -226 q 421 -214 403 -226 q 440 -174 440 -201 q 366 -120 440 -120 l 336 -120 l 336 -7 q 126 111 198 15 q 54 378 54 206 z "},"ĉ":{"ha":647,"x_min":54,"x_max":617,"o":"m 428 -14 q 149 83 244 -14 q 54 378 54 180 q 156 673 54 577 q 452 769 257 769 q 617 751 540 769 l 617 606 q 476 622 541 622 q 343 597 394 622 q 267 520 292 573 q 242 380 242 467 q 294 191 242 249 q 455 134 347 134 q 529 141 490 134 q 617 161 567 147 l 617 15 q 428 -14 528 -14 m 603 861 l 469 861 l 367 1035 l 266 861 l 132 861 l 292 1122 l 443 1122 l 603 861 z "},"ċ":{"ha":647,"x_min":54,"x_max":617,"o":"m 428 -14 q 149 83 244 -14 q 54 378 54 180 q 156 673 54 577 q 452 769 257 769 q 617 751 540 769 l 617 606 q 476 622 541 622 q 343 597 394 622 q 267 520 292 573 q 242 380 242 467 q 294 191 242 249 q 455 134 347 134 q 529 141 490 134 q 617 161 567 147 l 617 15 q 428 -14 528 -14 m 367 888 q 281 913 310 888 q 252 986 252 938 q 281 1060 252 1034 q 367 1085 310 1085 q 454 1060 425 1085 q 483 986 483 1034 q 454 913 483 938 q 367 888 425 888 z "},"d":{"ha":829,"x_min":54,"x_max":739,"o":"m 361 -13 q 205 26 274 -13 q 95 149 135 65 q 54 363 54 233 q 157 667 54 563 q 456 770 259 770 q 557 763 502 770 l 557 1122 l 739 1122 l 739 0 l 585 0 l 574 80 l 565 80 q 478 12 531 37 q 361 -13 426 -13 m 411 137 q 492 154 453 137 q 557 204 531 171 l 557 619 q 456 629 510 629 q 291 570 345 629 q 238 378 238 510 q 283 191 238 246 q 411 137 328 137 z "},"ð":{"ha":814,"x_min":54,"x_max":760,"o":"m 598 913 q 717 672 674 800 q 760 418 760 543 q 669 92 760 199 q 408 -15 577 -15 q 147 84 240 -15 q 54 377 54 182 q 96 594 54 508 q 213 723 138 681 q 392 765 289 765 q 511 739 459 765 q 427 883 479 810 l 134 832 l 114 935 l 350 976 q 185 1122 278 1054 l 403 1122 q 526 1006 469 1072 l 721 1040 l 740 938 l 598 913 m 408 126 q 533 184 490 126 q 576 375 576 242 q 534 571 576 513 q 407 628 491 628 q 280 571 323 628 q 238 378 238 514 q 257 229 238 285 q 314 150 277 174 q 408 126 351 126 z "},"ď":{"ha":829,"x_min":54,"x_max":935,"o":"m 361 -13 q 205 26 274 -13 q 95 149 135 65 q 54 363 54 233 q 157 667 54 563 q 456 770 259 770 q 557 763 502 770 l 557 1122 l 739 1122 l 739 0 l 585 0 l 574 80 l 565 80 q 478 12 531 37 q 361 -13 426 -13 m 411 137 q 492 154 453 137 q 557 204 531 171 l 557 619 q 456 629 510 629 q 291 570 345 629 q 238 378 238 510 q 283 191 238 246 q 411 137 328 137 m 792 819 q 810 1122 810 951 l 935 1122 q 924 963 935 1042 q 892 819 913 884 l 792 819 z "},"đ":{"ha":829,"x_min":54,"x_max":826,"o":"m 826 883 l 739 883 l 739 0 l 585 0 l 574 80 l 565 80 q 478 12 531 37 q 361 -13 426 -13 q 205 26 274 -13 q 95 149 135 65 q 54 363 54 233 q 157 667 54 563 q 456 770 259 770 q 557 763 502 770 l 557 883 l 317 883 l 317 999 l 557 999 l 557 1122 l 739 1122 l 739 999 l 826 999 l 826 883 m 557 619 q 456 629 510 629 q 291 570 345 629 q 238 378 238 510 q 283 191 238 246 q 411 137 328 137 q 492 154 453 137 q 557 204 531 171 l 557 619 z "},"ḍ":{"ha":829,"x_min":54,"x_max":739,"o":"m 361 -13 q 205 26 274 -13 q 95 149 135 65 q 54 363 54 233 q 157 667 54 563 q 456 770 259 770 q 557 763 502 770 l 557 1122 l 739 1122 l 739 0 l 585 0 l 574 80 l 565 80 q 478 12 531 37 q 361 -13 426 -13 m 411 137 q 492 154 453 137 q 557 204 531 171 l 557 619 q 456 629 510 629 q 291 570 345 629 q 238 378 238 510 q 283 191 238 246 q 411 137 328 137 m 419 -286 q 343 -261 370 -286 q 317 -192 317 -236 q 343 -123 317 -149 q 419 -98 370 -98 q 494 -123 467 -98 q 521 -192 521 -149 q 494 -261 521 -236 q 419 -286 467 -286 z "},"ḏ":{"ha":829,"x_min":54,"x_max":739,"o":"m 361 -13 q 205 26 274 -13 q 95 149 135 65 q 54 363 54 233 q 157 667 54 563 q 456 770 259 770 q 557 763 502 770 l 557 1122 l 739 1122 l 739 0 l 585 0 l 574 80 l 565 80 q 478 12 531 37 q 361 -13 426 -13 m 411 137 q 492 154 453 137 q 557 204 531 171 l 557 619 q 456 629 510 629 q 291 570 345 629 q 238 378 238 510 q 283 191 238 246 q 411 137 328 137 m 194 -247 l 194 -135 l 643 -135 l 643 -247 l 194 -247 z "},"ǳ":{"ha":1510,"x_min":54,"x_max":1474,"o":"m 361 -13 q 205 26 274 -13 q 95 149 135 65 q 54 363 54 233 q 157 667 54 563 q 456 770 259 770 q 557 763 502 770 l 557 1122 l 739 1122 l 739 0 l 585 0 l 574 80 l 565 80 q 478 12 531 37 q 361 -13 426 -13 m 411 137 q 492 154 453 137 q 557 204 531 171 l 557 619 q 456 629 510 629 q 291 570 345 629 q 238 378 238 510 q 283 191 238 246 q 411 137 328 137 m 1101 145 l 1474 145 l 1474 0 l 874 0 l 874 115 l 1240 613 l 882 613 l 882 758 l 1467 758 l 1467 643 l 1101 145 z "},"ǆ":{"ha":1510,"x_min":54,"x_max":1474,"o":"m 361 -13 q 205 26 274 -13 q 95 149 135 65 q 54 363 54 233 q 157 667 54 563 q 456 770 259 770 q 557 763 502 770 l 557 1122 l 739 1122 l 739 0 l 585 0 l 574 80 l 565 80 q 478 12 531 37 q 361 -13 426 -13 m 411 137 q 492 154 453 137 q 557 204 531 171 l 557 619 q 456 629 510 629 q 291 570 345 629 q 238 378 238 510 q 283 191 238 246 q 411 137 328 137 m 1101 145 l 1474 145 l 1474 0 l 874 0 l 874 115 l 1240 613 l 882 613 l 882 758 l 1467 758 l 1467 643 l 1101 145 m 1278 1122 l 1412 1122 l 1251 861 l 1099 861 l 938 1122 l 1072 1122 l 1175 948 l 1278 1122 z "},"e":{"ha":751,"x_min":54,"x_max":706,"o":"m 706 324 l 237 324 q 265 207 240 251 q 340 144 289 164 q 475 125 390 125 q 665 151 558 125 l 665 13 q 450 -14 556 -14 q 227 27 315 -14 q 97 155 140 68 q 54 379 54 241 q 94 594 54 506 q 208 725 133 681 q 390 769 283 769 q 625 670 544 769 q 706 374 706 570 l 706 324 m 388 651 q 276 601 315 651 q 236 433 238 551 l 535 433 q 497 601 533 551 q 388 651 460 651 z "},"é":{"ha":751,"x_min":54,"x_max":706,"o":"m 706 324 l 237 324 q 265 207 240 251 q 340 144 289 164 q 475 125 390 125 q 665 151 558 125 l 665 13 q 450 -14 556 -14 q 227 27 315 -14 q 97 155 140 68 q 54 379 54 241 q 94 594 54 506 q 208 725 133 681 q 390 769 283 769 q 625 670 544 769 q 706 374 706 570 l 706 324 m 388 651 q 276 601 315 651 q 236 433 238 551 l 535 433 q 497 601 533 551 q 388 651 460 651 m 303 861 l 456 1122 l 651 1122 l 470 861 l 303 861 z "},"ĕ":{"ha":751,"x_min":54,"x_max":706,"o":"m 706 324 l 237 324 q 265 207 240 251 q 340 144 289 164 q 475 125 390 125 q 665 151 558 125 l 665 13 q 450 -14 556 -14 q 227 27 315 -14 q 97 155 140 68 q 54 379 54 241 q 94 594 54 506 q 208 725 133 681 q 390 769 283 769 q 625 670 544 769 q 706 374 706 570 l 706 324 m 388 651 q 276 601 315 651 q 236 433 238 551 l 535 433 q 497 601 533 551 q 388 651 460 651 m 388 868 q 217 929 279 868 q 150 1106 156 990 l 263 1106 q 299 999 269 1034 q 388 964 329 964 q 476 999 446 964 q 510 1106 506 1034 l 624 1106 q 557 929 618 990 q 388 868 496 868 z "},"ě":{"ha":751,"x_min":54,"x_max":706,"o":"m 706 324 l 237 324 q 265 207 240 251 q 340 144 289 164 q 475 125 390 125 q 665 151 558 125 l 665 13 q 450 -14 556 -14 q 227 27 315 -14 q 97 155 140 68 q 54 379 54 241 q 94 594 54 506 q 208 725 133 681 q 390 769 283 769 q 625 670 544 769 q 706 374 706 570 l 706 324 m 388 651 q 276 601 315 651 q 236 433 238 551 l 535 433 q 497 601 533 551 q 388 651 460 651 m 490 1122 l 624 1122 l 463 861 l 311 861 l 150 1122 l 284 1122 l 387 948 l 490 1122 z "},"ḝ":{"ha":751,"x_min":54,"x_max":706,"o":"m 388 868 q 217 929 279 868 q 150 1106 156 990 l 263 1106 q 299 999 269 1034 q 388 964 329 964 q 476 999 446 964 q 510 1106 506 1034 l 624 1106 q 557 929 618 990 q 388 868 496 868 m 706 324 l 237 324 q 265 207 240 251 q 340 144 289 164 q 475 125 390 125 q 665 151 558 125 l 665 13 q 450 -14 556 -14 l 438 -14 l 438 -65 q 520 -103 492 -73 q 549 -181 549 -133 q 507 -268 549 -237 q 385 -300 465 -300 q 319 -294 351 -300 q 262 -278 288 -288 l 262 -203 q 320 -220 289 -215 q 378 -226 351 -226 q 432 -214 414 -226 q 451 -174 451 -201 q 377 -120 451 -120 l 347 -120 l 347 -7 q 126 108 198 14 q 54 379 54 201 q 94 594 54 506 q 208 725 133 681 q 390 769 283 769 q 625 670 544 769 q 706 374 706 570 l 706 324 m 388 651 q 276 601 315 651 q 236 433 238 551 l 535 433 q 497 601 533 551 q 388 651 460 651 z "},"ê":{"ha":751,"x_min":54,"x_max":706,"o":"m 706 324 l 237 324 q 265 207 240 251 q 340 144 289 164 q 475 125 390 125 q 665 151 558 125 l 665 13 q 450 -14 556 -14 q 227 27 315 -14 q 97 155 140 68 q 54 379 54 241 q 94 594 54 506 q 208 725 133 681 q 390 769 283 769 q 625 670 544 769 q 706 374 706 570 l 706 324 m 388 651 q 276 601 315 651 q 236 433 238 551 l 535 433 q 497 601 533 551 q 388 651 460 651 m 622 861 l 488 861 l 387 1035 l 285 861 l 151 861 l 311 1122 l 463 1122 l 622 861 z "},"ế":{"ha":751,"x_min":54,"x_max":822,"o":"m 706 324 l 237 324 q 265 207 240 251 q 340 144 289 164 q 475 125 390 125 q 665 151 558 125 l 665 13 q 450 -14 556 -14 q 227 27 315 -14 q 97 155 140 68 q 54 379 54 241 q 94 594 54 506 q 208 725 133 681 q 390 769 283 769 q 625 670 544 769 q 706 374 706 570 l 706 324 m 388 651 q 276 601 315 651 q 236 433 238 551 l 535 433 q 497 601 533 551 q 388 651 460 651 m 665 1297 l 822 1297 l 670 1109 l 541 1109 l 665 1297 m 311 1122 l 463 1122 l 622 861 l 488 861 l 387 1035 l 285 861 l 151 861 l 311 1122 z "},"ệ":{"ha":751,"x_min":54,"x_max":706,"o":"m 706 324 l 237 324 q 265 207 240 251 q 340 144 289 164 q 475 125 390 125 q 665 151 558 125 l 665 13 q 450 -14 556 -14 q 227 27 315 -14 q 97 155 140 68 q 54 379 54 241 q 94 594 54 506 q 208 725 133 681 q 390 769 283 769 q 625 670 544 769 q 706 374 706 570 l 706 324 m 388 651 q 276 601 315 651 q 236 433 238 551 l 535 433 q 497 601 533 551 q 388 651 460 651 m 387 -286 q 311 -261 338 -286 q 285 -192 285 -236 q 311 -123 285 -149 q 387 -98 338 -98 q 462 -123 435 -98 q 489 -192 489 -149 q 462 -261 489 -236 q 387 -286 435 -286 m 622 861 l 488 861 l 387 1035 l 285 861 l 151 861 l 311 1122 l 463 1122 l 622 861 z "},"ề":{"ha":751,"x_min":54,"x_max":706,"o":"m 706 324 l 237 324 q 265 207 240 251 q 340 144 289 164 q 475 125 390 125 q 665 151 558 125 l 665 13 q 450 -14 556 -14 q 227 27 315 -14 q 97 155 140 68 q 54 379 54 241 q 94 594 54 506 q 208 725 133 681 q 390 769 283 769 q 625 670 544 769 q 706 374 706 570 l 706 324 m 388 651 q 276 601 315 651 q 236 433 238 551 l 535 433 q 497 601 533 551 q 388 651 460 651 m 689 1109 l 560 1109 l 408 1297 l 565 1297 l 689 1109 m 311 1122 l 463 1122 l 622 861 l 488 861 l 387 1035 l 285 861 l 151 861 l 311 1122 z "},"ể":{"ha":751,"x_min":54,"x_max":742,"o":"m 706 324 l 237 324 q 265 207 240 251 q 340 144 289 164 q 475 125 390 125 q 665 151 558 125 l 665 13 q 450 -14 556 -14 q 227 27 315 -14 q 97 155 140 68 q 54 379 54 241 q 94 594 54 506 q 208 725 133 681 q 390 769 283 769 q 625 670 544 769 q 706 374 706 570 l 706 324 m 388 651 q 276 601 315 651 q 236 433 238 551 l 535 433 q 497 601 533 551 q 388 651 460 651 m 585 1307 q 742 1226 742 1307 q 727 1188 742 1201 q 682 1160 712 1174 q 643 1137 657 1147 q 628 1109 630 1126 l 538 1109 q 558 1155 540 1139 q 608 1184 576 1170 q 637 1200 628 1194 q 646 1215 646 1206 q 629 1236 646 1229 q 572 1242 612 1242 q 444 1224 503 1242 l 444 1288 q 510 1302 471 1297 q 585 1307 549 1307 m 311 1122 l 463 1122 l 622 861 l 488 861 l 387 1035 l 285 861 l 151 861 l 311 1122 z "},"ễ":{"ha":751,"x_min":54,"x_max":706,"o":"m 706 324 l 237 324 q 265 207 240 251 q 340 144 289 164 q 475 125 390 125 q 665 151 558 125 l 665 13 q 450 -14 556 -14 q 227 27 315 -14 q 97 155 140 68 q 54 379 54 241 q 94 594 54 506 q 208 725 133 681 q 390 769 283 769 q 625 670 544 769 q 706 374 706 570 l 706 324 m 388 651 q 276 601 315 651 q 236 433 238 551 l 535 433 q 497 601 533 551 q 388 651 460 651 m 499 1134 q 441 1141 468 1134 q 376 1160 414 1147 q 319 1177 342 1172 q 272 1183 296 1183 q 203 1172 233 1183 q 142 1138 174 1161 l 142 1234 q 201 1267 169 1256 q 275 1278 233 1278 q 332 1272 306 1278 q 398 1252 358 1265 q 454 1234 430 1240 q 501 1228 478 1228 q 570 1240 540 1228 q 631 1274 600 1251 l 631 1178 q 574 1145 606 1156 q 499 1134 542 1134 m 634 862 l 494 862 l 387 1021 l 279 862 l 140 862 l 308 1093 l 466 1093 l 634 862 z "},"ȅ":{"ha":751,"x_min":54,"x_max":706,"o":"m 706 324 l 237 324 q 265 207 240 251 q 340 144 289 164 q 475 125 390 125 q 665 151 558 125 l 665 13 q 450 -14 556 -14 q 227 27 315 -14 q 97 155 140 68 q 54 379 54 241 q 94 594 54 506 q 208 725 133 681 q 390 769 283 769 q 625 670 544 769 q 706 374 706 570 l 706 324 m 388 651 q 276 601 315 651 q 236 433 238 551 l 535 433 q 497 601 533 551 q 388 651 460 651 m 188 861 l 78 1122 l 225 1122 l 323 861 l 188 861 m 451 861 l 342 1122 l 488 1122 l 586 861 l 451 861 z "},"ë":{"ha":751,"x_min":54,"x_max":706,"o":"m 706 324 l 237 324 q 265 207 240 251 q 340 144 289 164 q 475 125 390 125 q 665 151 558 125 l 665 13 q 450 -14 556 -14 q 227 27 315 -14 q 97 155 140 68 q 54 379 54 241 q 94 594 54 506 q 208 725 133 681 q 390 769 283 769 q 625 670 544 769 q 706 374 706 570 l 706 324 m 388 651 q 276 601 315 651 q 236 433 238 551 l 535 433 q 497 601 533 551 q 388 651 460 651 m 224 890 q 149 916 176 890 q 122 986 122 941 q 149 1057 122 1031 q 224 1083 176 1083 q 300 1057 274 1083 q 326 986 326 1031 q 300 916 326 941 q 224 890 274 890 m 549 890 q 474 916 500 890 q 447 986 447 941 q 474 1057 447 1031 q 549 1083 500 1083 q 625 1057 598 1083 q 651 986 651 1031 q 625 916 651 941 q 549 890 598 890 z "},"ė":{"ha":751,"x_min":54,"x_max":706,"o":"m 706 324 l 237 324 q 265 207 240 251 q 340 144 289 164 q 475 125 390 125 q 665 151 558 125 l 665 13 q 450 -14 556 -14 q 227 27 315 -14 q 97 155 140 68 q 54 379 54 241 q 94 594 54 506 q 208 725 133 681 q 390 769 283 769 q 625 670 544 769 q 706 374 706 570 l 706 324 m 388 651 q 276 601 315 651 q 236 433 238 551 l 535 433 q 497 601 533 551 q 388 651 460 651 m 387 888 q 300 913 329 888 q 272 986 272 938 q 300 1060 272 1034 q 387 1085 329 1085 q 473 1060 444 1085 q 502 986 502 1034 q 473 913 502 938 q 387 888 444 888 z "},"ẹ":{"ha":751,"x_min":54,"x_max":706,"o":"m 706 324 l 237 324 q 265 207 240 251 q 340 144 289 164 q 475 125 390 125 q 665 151 558 125 l 665 13 q 450 -14 556 -14 q 227 27 315 -14 q 97 155 140 68 q 54 379 54 241 q 94 594 54 506 q 208 725 133 681 q 390 769 283 769 q 625 670 544 769 q 706 374 706 570 l 706 324 m 388 651 q 276 601 315 651 q 236 433 238 551 l 535 433 q 497 601 533 551 q 388 651 460 651 m 387 -286 q 311 -261 338 -286 q 285 -192 285 -236 q 311 -123 285 -149 q 387 -98 338 -98 q 462 -123 435 -98 q 489 -192 489 -149 q 462 -261 489 -236 q 387 -286 435 -286 z "},"è":{"ha":751,"x_min":54,"x_max":706,"o":"m 706 324 l 237 324 q 265 207 240 251 q 340 144 289 164 q 475 125 390 125 q 665 151 558 125 l 665 13 q 450 -14 556 -14 q 227 27 315 -14 q 97 155 140 68 q 54 379 54 241 q 94 594 54 506 q 208 725 133 681 q 390 769 283 769 q 625 670 544 769 q 706 374 706 570 l 706 324 m 388 651 q 276 601 315 651 q 236 433 238 551 l 535 433 q 497 601 533 551 q 388 651 460 651 m 303 861 l 123 1122 l 317 1122 l 470 861 l 303 861 z "},"ẻ":{"ha":751,"x_min":54,"x_max":706,"o":"m 706 324 l 237 324 q 265 207 240 251 q 340 144 289 164 q 475 125 390 125 q 665 151 558 125 l 665 13 q 450 -14 556 -14 q 227 27 315 -14 q 97 155 140 68 q 54 379 54 241 q 94 594 54 506 q 208 725 133 681 q 390 769 283 769 q 625 670 544 769 q 706 374 706 570 l 706 324 m 388 651 q 276 601 315 651 q 236 433 238 551 l 535 433 q 497 601 533 551 q 388 651 460 651 m 339 861 q 359 923 341 900 q 407 968 376 946 q 436 993 426 983 q 445 1017 445 1003 q 428 1046 445 1037 q 372 1056 410 1056 q 260 1039 316 1056 l 260 1113 q 318 1126 284 1122 q 384 1131 353 1131 q 505 1105 466 1131 q 544 1028 544 1079 q 530 974 544 994 q 487 934 515 955 q 449 900 462 915 q 435 861 437 885 l 339 861 z "},"ȇ":{"ha":751,"x_min":54,"x_max":706,"o":"m 706 324 l 237 324 q 265 207 240 251 q 340 144 289 164 q 475 125 390 125 q 665 151 558 125 l 665 13 q 450 -14 556 -14 q 227 27 315 -14 q 97 155 140 68 q 54 379 54 241 q 94 594 54 506 q 208 725 133 681 q 390 769 283 769 q 625 670 544 769 q 706 374 706 570 l 706 324 m 388 651 q 276 601 315 651 q 236 433 238 551 l 535 433 q 497 601 533 551 q 388 651 460 651 m 150 881 q 216 1058 156 997 q 386 1119 277 1119 q 556 1057 494 1119 q 624 881 618 996 l 510 881 q 475 988 505 953 q 386 1023 444 1023 q 298 988 327 1023 q 263 881 268 953 l 150 881 z "},"ē":{"ha":751,"x_min":54,"x_max":706,"o":"m 706 324 l 237 324 q 265 207 240 251 q 340 144 289 164 q 475 125 390 125 q 665 151 558 125 l 665 13 q 450 -14 556 -14 q 227 27 315 -14 q 97 155 140 68 q 54 379 54 241 q 94 594 54 506 q 208 725 133 681 q 390 769 283 769 q 625 670 544 769 q 706 374 706 570 l 706 324 m 388 651 q 276 601 315 651 q 236 433 238 551 l 535 433 q 497 601 533 551 q 388 651 460 651 m 152 931 l 152 1043 l 622 1043 l 622 931 l 152 931 z "},"ḗ":{"ha":751,"x_min":54,"x_max":706,"o":"m 706 324 l 237 324 q 265 207 240 251 q 340 144 289 164 q 475 125 390 125 q 665 151 558 125 l 665 13 q 450 -14 556 -14 q 227 27 315 -14 q 97 155 140 68 q 54 379 54 241 q 94 594 54 506 q 208 725 133 681 q 390 769 283 769 q 625 670 544 769 q 706 374 706 570 l 706 324 m 388 651 q 276 601 315 651 q 236 433 238 551 l 535 433 q 497 601 533 551 q 388 651 460 651 m 152 931 l 152 1043 l 622 1043 l 622 931 l 152 931 m 304 1141 l 428 1347 l 620 1347 l 468 1141 l 304 1141 z "},"ḕ":{"ha":751,"x_min":54,"x_max":706,"o":"m 706 324 l 237 324 q 265 207 240 251 q 340 144 289 164 q 475 125 390 125 q 665 151 558 125 l 665 13 q 450 -14 556 -14 q 227 27 315 -14 q 97 155 140 68 q 54 379 54 241 q 94 594 54 506 q 208 725 133 681 q 390 769 283 769 q 625 670 544 769 q 706 374 706 570 l 706 324 m 388 651 q 276 601 315 651 q 236 433 238 551 l 535 433 q 497 601 533 551 q 388 651 460 651 m 152 931 l 152 1043 l 622 1043 l 622 931 l 152 931 m 305 1141 l 153 1347 l 345 1347 l 469 1141 l 305 1141 z "},"ę":{"ha":751,"x_min":54,"x_max":706,"o":"m 706 324 l 237 324 q 265 207 240 251 q 340 144 289 164 q 475 125 390 125 q 665 151 558 125 l 665 13 q 526 -62 565 -21 q 487 -150 487 -103 q 509 -204 487 -185 q 572 -224 531 -224 q 665 -200 616 -224 l 665 -276 q 550 -300 613 -300 q 424 -263 468 -300 q 380 -162 380 -226 q 465 -14 380 -71 l 450 -14 q 227 27 315 -14 q 97 155 140 68 q 54 379 54 241 q 94 594 54 506 q 208 725 133 681 q 390 769 283 769 q 625 670 544 769 q 706 374 706 570 l 706 324 m 388 647 q 277 597 315 647 q 236 430 239 547 l 535 430 q 497 597 533 547 q 388 647 460 647 z "},"ẽ":{"ha":751,"x_min":54,"x_max":706,"o":"m 706 324 l 237 324 q 265 207 240 251 q 340 144 289 164 q 475 125 390 125 q 665 151 558 125 l 665 13 q 450 -14 556 -14 q 227 27 315 -14 q 97 155 140 68 q 54 379 54 241 q 94 594 54 506 q 208 725 133 681 q 390 769 283 769 q 625 670 544 769 q 706 374 706 570 l 706 324 m 388 651 q 276 601 315 651 q 236 433 238 551 l 535 433 q 497 601 533 551 q 388 651 460 651 m 492 908 q 438 916 464 908 q 376 940 413 924 q 322 962 344 955 q 278 969 300 969 q 212 956 242 969 q 152 913 182 942 l 152 1030 q 209 1068 177 1056 q 281 1081 240 1081 q 335 1072 310 1081 q 398 1048 361 1064 q 452 1026 431 1033 q 496 1019 474 1019 q 562 1033 533 1019 q 622 1076 592 1047 l 622 959 q 565 920 597 933 q 492 908 533 908 z "},"ə":{"ha":751,"x_min":45,"x_max":697,"o":"m 301 772 q 523 731 436 772 q 653 603 610 690 q 697 378 697 517 q 657 164 697 251 q 542 32 617 76 q 361 -12 467 -12 q 126 88 206 -12 q 45 384 45 188 l 45 433 l 514 433 q 486 550 510 507 q 411 613 462 594 q 276 633 360 633 q 85 606 192 633 l 85 744 q 301 772 194 772 m 363 107 q 474 157 436 107 q 515 324 513 207 l 215 324 q 254 157 217 207 q 363 107 290 107 z "},"f":{"ha":536,"x_min":16,"x_max":570,"o":"m 488 990 q 366 955 405 990 q 327 842 327 919 l 327 758 l 540 758 l 540 613 l 327 613 l 327 0 l 147 0 l 147 613 l 16 613 l 16 758 l 147 758 l 147 835 q 228 1058 147 979 q 463 1136 309 1136 q 570 1128 518 1136 l 570 983 q 488 990 523 990 z "},"g":{"ha":829,"x_min":54,"x_max":739,"o":"m 349 -319 q 225 -311 288 -319 q 106 -287 161 -303 l 106 -143 q 335 -178 227 -178 q 462 -158 413 -178 q 534 -94 510 -138 q 557 21 557 -51 l 557 81 l 548 81 q 461 17 513 40 q 347 -6 410 -6 q 199 33 265 -6 q 94 155 133 72 q 54 363 54 238 q 158 666 54 563 q 468 769 263 769 q 609 759 536 769 q 739 730 682 749 l 739 53 q 696 -160 739 -78 q 567 -281 653 -242 q 349 -319 481 -319 m 412 143 q 492 158 453 143 q 557 204 531 174 l 557 617 q 453 629 504 629 q 291 569 345 629 q 238 379 238 510 q 283 196 238 249 q 412 143 328 143 z "},"ǵ":{"ha":829,"x_min":54,"x_max":739,"o":"m 349 -319 q 225 -311 288 -319 q 106 -287 161 -303 l 106 -143 q 335 -178 227 -178 q 462 -158 413 -178 q 534 -94 510 -138 q 557 21 557 -51 l 557 81 l 548 81 q 461 17 513 40 q 347 -6 410 -6 q 199 33 265 -6 q 94 155 133 72 q 54 363 54 238 q 158 666 54 563 q 468 769 263 769 q 609 759 536 769 q 739 730 682 749 l 739 53 q 696 -160 739 -78 q 567 -281 653 -242 q 349 -319 481 -319 m 412 143 q 492 158 453 143 q 557 204 531 174 l 557 617 q 453 629 504 629 q 291 569 345 629 q 238 379 238 510 q 283 196 238 249 q 412 143 328 143 m 347 861 l 500 1122 l 694 1122 l 514 861 l 347 861 z "},"ğ":{"ha":829,"x_min":54,"x_max":739,"o":"m 349 -319 q 225 -311 288 -319 q 106 -287 161 -303 l 106 -143 q 335 -178 227 -178 q 462 -158 413 -178 q 534 -94 510 -138 q 557 21 557 -51 l 557 81 l 548 81 q 461 17 513 40 q 347 -6 410 -6 q 199 33 265 -6 q 94 155 133 72 q 54 363 54 238 q 158 666 54 563 q 468 769 263 769 q 609 759 536 769 q 739 730 682 749 l 739 53 q 696 -160 739 -78 q 567 -281 653 -242 q 349 -319 481 -319 m 412 143 q 492 158 453 143 q 557 204 531 174 l 557 617 q 453 629 504 629 q 291 569 345 629 q 238 379 238 510 q 283 196 238 249 q 412 143 328 143 m 431 868 q 261 929 323 868 q 194 1106 199 990 l 307 1106 q 343 999 313 1034 q 431 964 373 964 q 519 999 490 964 q 554 1106 549 1034 l 667 1106 q 601 929 662 990 q 431 868 540 868 z "},"ǧ":{"ha":829,"x_min":54,"x_max":739,"o":"m 349 -319 q 225 -311 288 -319 q 106 -287 161 -303 l 106 -143 q 335 -178 227 -178 q 462 -158 413 -178 q 534 -94 510 -138 q 557 21 557 -51 l 557 81 l 548 81 q 461 17 513 40 q 347 -6 410 -6 q 199 33 265 -6 q 94 155 133 72 q 54 363 54 238 q 158 666 54 563 q 468 769 263 769 q 609 759 536 769 q 739 730 682 749 l 739 53 q 696 -160 739 -78 q 567 -281 653 -242 q 349 -319 481 -319 m 412 143 q 492 158 453 143 q 557 204 531 174 l 557 617 q 453 629 504 629 q 291 569 345 629 q 238 379 238 510 q 283 196 238 249 q 412 143 328 143 m 533 1122 l 667 1122 l 506 861 l 355 861 l 194 1122 l 328 1122 l 431 948 l 533 1122 z "},"ĝ":{"ha":829,"x_min":54,"x_max":739,"o":"m 349 -319 q 225 -311 288 -319 q 106 -287 161 -303 l 106 -143 q 335 -178 227 -178 q 462 -158 413 -178 q 534 -94 510 -138 q 557 21 557 -51 l 557 81 l 548 81 q 461 17 513 40 q 347 -6 410 -6 q 199 33 265 -6 q 94 155 133 72 q 54 363 54 238 q 158 666 54 563 q 468 769 263 769 q 609 759 536 769 q 739 730 682 749 l 739 53 q 696 -160 739 -78 q 567 -281 653 -242 q 349 -319 481 -319 m 412 143 q 492 158 453 143 q 557 204 531 174 l 557 617 q 453 629 504 629 q 291 569 345 629 q 238 379 238 510 q 283 196 238 249 q 412 143 328 143 m 666 861 l 532 861 l 431 1035 l 329 861 l 195 861 l 355 1122 l 506 1122 l 666 861 z "},"ģ":{"ha":829,"x_min":54,"x_max":739,"o":"m 349 -319 q 225 -311 288 -319 q 106 -287 161 -303 l 106 -143 q 335 -178 227 -178 q 462 -158 413 -178 q 534 -94 510 -138 q 557 21 557 -51 l 557 81 l 548 81 q 461 17 513 40 q 347 -6 410 -6 q 199 33 265 -6 q 94 155 133 72 q 54 363 54 238 q 158 666 54 563 q 468 769 263 769 q 609 759 536 769 q 739 730 682 749 l 739 53 q 696 -160 739 -78 q 567 -281 653 -242 q 349 -319 481 -319 m 412 143 q 492 158 453 143 q 557 204 531 174 l 557 617 q 453 629 504 629 q 291 569 345 629 q 238 379 238 510 q 283 196 238 249 q 412 143 328 143 m 451 1029 q 515 1007 494 1026 q 536 959 536 989 q 510 907 536 926 q 432 889 484 889 q 325 983 325 889 q 338 1057 325 1017 q 374 1128 351 1097 l 486 1128 q 451 1029 458 1071 z "},"ġ":{"ha":829,"x_min":54,"x_max":739,"o":"m 349 -319 q 225 -311 288 -319 q 106 -287 161 -303 l 106 -143 q 335 -178 227 -178 q 462 -158 413 -178 q 534 -94 510 -138 q 557 21 557 -51 l 557 81 l 548 81 q 461 17 513 40 q 347 -6 410 -6 q 199 33 265 -6 q 94 155 133 72 q 54 363 54 238 q 158 666 54 563 q 468 769 263 769 q 609 759 536 769 q 739 730 682 749 l 739 53 q 696 -160 739 -78 q 567 -281 653 -242 q 349 -319 481 -319 m 412 143 q 492 158 453 143 q 557 204 531 174 l 557 617 q 453 629 504 629 q 291 569 345 629 q 238 379 238 510 q 283 196 238 249 q 412 143 328 143 m 431 888 q 344 913 373 888 q 315 986 315 938 q 344 1060 315 1034 q 431 1085 373 1085 q 517 1060 488 1085 q 546 986 546 1034 q 517 913 546 938 q 431 888 488 888 z "},"ḡ":{"ha":829,"x_min":54,"x_max":739,"o":"m 349 -319 q 225 -311 288 -319 q 106 -287 161 -303 l 106 -143 q 335 -178 227 -178 q 462 -158 413 -178 q 534 -94 510 -138 q 557 21 557 -51 l 557 81 l 548 81 q 461 17 513 40 q 347 -6 410 -6 q 199 33 265 -6 q 94 155 133 72 q 54 363 54 238 q 158 666 54 563 q 468 769 263 769 q 609 759 536 769 q 739 730 682 749 l 739 53 q 696 -160 739 -78 q 567 -281 653 -242 q 349 -319 481 -319 m 412 143 q 492 158 453 143 q 557 204 531 174 l 557 617 q 453 629 504 629 q 291 569 345 629 q 238 379 238 510 q 283 196 238 249 q 412 143 328 143 m 196 931 l 196 1043 l 665 1043 l 665 931 l 196 931 z "},"h":{"ha":828,"x_min":90,"x_max":744,"o":"m 90 1122 l 272 1122 l 272 678 l 281 678 q 378 746 323 723 q 499 769 433 769 q 677 700 611 769 q 744 483 744 631 l 744 0 l 562 0 l 562 472 q 530 579 562 547 q 437 611 498 611 q 347 592 391 611 q 272 535 302 573 l 272 0 l 90 0 l 90 1122 z "},"ħ":{"ha":828,"x_min":3,"x_max":744,"o":"m 499 769 q 677 700 611 769 q 744 483 744 631 l 744 0 l 562 0 l 562 472 q 530 579 562 547 q 437 611 498 611 q 347 592 391 611 q 272 535 302 573 l 272 0 l 90 0 l 90 881 l 3 881 l 3 998 l 90 998 l 90 1122 l 272 1122 l 272 998 l 512 998 l 512 881 l 272 881 l 272 678 l 281 678 q 378 746 323 723 q 499 769 433 769 z "},"ḫ":{"ha":828,"x_min":90,"x_max":744,"o":"m 90 1122 l 272 1122 l 272 678 l 281 678 q 378 746 323 723 q 499 769 433 769 q 677 700 611 769 q 744 483 744 631 l 744 0 l 562 0 l 562 472 q 530 579 562 547 q 437 611 498 611 q 347 592 391 611 q 272 535 302 573 l 272 0 l 90 0 l 90 1122 m 419 -308 q 247 -254 309 -308 q 181 -103 185 -199 l 294 -103 q 419 -212 300 -212 q 542 -103 536 -212 l 655 -103 q 590 -254 651 -200 q 419 -308 528 -308 z "},"ĥ":{"ha":828,"x_min":90,"x_max":744,"o":"m 90 1122 l 272 1122 l 272 678 l 281 678 q 378 746 323 723 q 499 769 433 769 q 677 700 611 769 q 744 483 744 631 l 744 0 l 562 0 l 562 472 q 530 579 562 547 q 437 611 498 611 q 347 592 391 611 q 272 535 302 573 l 272 0 l 90 0 l 90 1122 m 672 1178 l 529 1178 l 418 1313 l 307 1178 l 164 1178 l 339 1383 l 497 1383 l 672 1178 z "},"ḥ":{"ha":828,"x_min":90,"x_max":744,"o":"m 90 1122 l 272 1122 l 272 678 l 281 678 q 378 746 323 723 q 499 769 433 769 q 677 700 611 769 q 744 483 744 631 l 744 0 l 562 0 l 562 472 q 530 579 562 547 q 437 611 498 611 q 347 592 391 611 q 272 535 302 573 l 272 0 l 90 0 l 90 1122 m 418 -286 q 343 -261 369 -286 q 316 -192 316 -236 q 343 -123 316 -149 q 418 -98 369 -98 q 493 -123 467 -98 q 520 -192 520 -149 q 493 -261 520 -236 q 418 -286 467 -286 z "},"i":{"ha":363,"x_min":67,"x_max":297,"o":"m 90 0 l 90 758 l 273 758 l 273 0 l 90 0 m 182 888 q 95 913 124 888 q 67 986 67 938 q 95 1060 67 1034 q 182 1085 124 1085 q 268 1060 240 1085 q 297 986 297 1034 q 268 913 297 938 q 182 888 240 888 z "},"ı":{"ha":363,"x_min":90,"x_max":273,"o":"m 90 0 l 90 758 l 273 758 l 273 0 l 90 0 z "},"í":{"ha":363,"x_min":90,"x_max":446,"o":"m 90 0 l 90 758 l 273 758 l 273 0 l 90 0 m 99 861 l 251 1122 l 446 1122 l 265 861 l 99 861 z "},"ĭ":{"ha":363,"x_min":-55,"x_max":419,"o":"m 90 0 l 90 758 l 273 758 l 273 0 l 90 0 m 183 868 q 13 929 74 868 q -55 1106 -49 990 l 58 1106 q 94 999 64 1034 q 183 964 124 964 q 271 999 241 964 q 306 1106 301 1034 l 419 1106 q 352 929 413 990 q 183 868 291 868 z "},"î":{"ha":363,"x_min":-53,"x_max":417,"o":"m 90 0 l 90 758 l 273 758 l 273 0 l 90 0 m 417 861 l 283 861 l 182 1035 l 81 861 l -53 861 l 106 1122 l 258 1122 l 417 861 z "},"ȉ":{"ha":363,"x_min":-126,"x_max":381,"o":"m 90 0 l 90 758 l 273 758 l 273 0 l 90 0 m -17 861 l -126 1122 l 20 1122 l 118 861 l -17 861 m 246 861 l 137 1122 l 283 1122 l 381 861 l 246 861 z "},"ï":{"ha":363,"x_min":-83,"x_max":447,"o":"m 90 0 l 90 758 l 273 758 l 273 0 l 90 0 m 19 890 q -56 916 -29 890 q -83 986 -83 941 q -56 1057 -83 1031 q 19 1083 -29 1083 q 95 1057 69 1083 q 122 986 122 1031 q 95 916 122 941 q 19 890 69 890 m 344 890 q 269 916 295 890 q 242 986 242 941 q 269 1057 242 1031 q 344 1083 295 1083 q 420 1057 393 1083 q 447 986 447 1031 q 420 916 447 941 q 344 890 393 890 z "},"ḯ":{"ha":363,"x_min":-83,"x_max":476,"o":"m 90 0 l 90 758 l 273 758 l 273 0 l 90 0 m 19 890 q -56 916 -29 890 q -83 986 -83 941 q -56 1057 -83 1031 q 19 1083 -29 1083 q 95 1057 69 1083 q 122 986 122 1031 q 95 916 122 941 q 19 890 69 890 m 344 890 q 269 916 295 890 q 242 986 242 941 q 269 1057 242 1031 q 344 1083 295 1083 q 420 1057 393 1083 q 447 986 447 1031 q 420 916 447 941 q 344 890 393 890 m 160 1293 l 283 1499 l 476 1499 l 324 1293 l 160 1293 z "},"ị":{"ha":363,"x_min":67,"x_max":297,"o":"m 90 0 l 90 758 l 273 758 l 273 0 l 90 0 m 182 888 q 95 913 124 888 q 67 986 67 938 q 95 1060 67 1034 q 182 1085 124 1085 q 268 1060 240 1085 q 297 986 297 1034 q 268 913 297 938 q 182 888 240 888 m 182 -286 q 107 -261 133 -286 q 80 -192 80 -236 q 107 -123 80 -149 q 182 -98 133 -98 q 257 -123 231 -98 q 284 -192 284 -149 q 257 -261 284 -236 q 182 -286 231 -286 z "},"ì":{"ha":363,"x_min":-82,"x_max":273,"o":"m 90 0 l 90 758 l 273 758 l 273 0 l 90 0 m 99 861 l -82 1122 l 113 1122 l 265 861 l 99 861 z "},"ỉ":{"ha":363,"x_min":55,"x_max":340,"o":"m 90 0 l 90 758 l 273 758 l 273 0 l 90 0 m 134 861 q 154 923 136 900 q 202 968 172 946 q 231 993 222 983 q 240 1017 240 1003 q 223 1046 240 1037 q 167 1056 206 1056 q 55 1039 111 1056 l 55 1113 q 114 1126 79 1122 q 179 1131 148 1131 q 300 1105 261 1131 q 340 1028 340 1079 q 325 974 340 994 q 282 934 310 955 q 244 900 257 915 q 230 861 232 885 l 134 861 z "},"ȋ":{"ha":363,"x_min":-55,"x_max":419,"o":"m 90 0 l 90 758 l 273 758 l 273 0 l 90 0 m -55 881 q 11 1058 -49 997 q 181 1119 72 1119 q 351 1057 289 1119 q 419 881 413 996 l 306 881 q 270 988 300 953 q 181 1023 240 1023 q 93 988 122 1023 q 58 881 63 953 l -55 881 z "},"ī":{"ha":363,"x_min":-53,"x_max":417,"o":"m 90 0 l 90 758 l 273 758 l 273 0 l 90 0 m -53 931 l -53 1043 l 417 1043 l 417 931 l -53 931 z "},"į":{"ha":363,"x_min":26,"x_max":311,"o":"m 182 888 q 95 913 124 888 q 67 986 67 938 q 95 1060 67 1034 q 182 1085 124 1085 q 268 1060 240 1085 q 297 986 297 1034 q 268 913 297 938 q 182 888 240 888 m 218 -224 q 311 -200 263 -224 l 311 -276 q 196 -300 259 -300 q 70 -263 114 -300 q 26 -162 26 -226 q 50 -74 26 -114 q 128 0 74 -34 l 90 0 l 90 758 l 273 758 l 273 0 q 164 -72 196 -35 q 133 -151 133 -108 q 155 -204 133 -185 q 218 -224 177 -224 z "},"ĩ":{"ha":363,"x_min":-53,"x_max":417,"o":"m 90 0 l 90 758 l 273 758 l 273 0 l 90 0 m 288 908 q 233 916 259 908 q 171 940 208 924 q 117 962 140 955 q 73 969 95 969 q 7 956 37 969 q -53 913 -23 942 l -53 1030 q 4 1068 -28 1056 q 76 1081 35 1081 q 131 1072 105 1081 q 193 1048 156 1064 q 248 1026 226 1033 q 291 1019 269 1019 q 357 1033 328 1019 q 417 1076 387 1047 l 417 959 q 360 920 392 933 q 288 908 328 908 z "},"j":{"ha":363,"x_min":-24,"x_max":295,"o":"m -24 -247 q 65 -79 39 -162 q 90 121 90 4 l 90 758 l 273 758 l 273 129 q 232 -112 273 -6 q 94 -326 190 -218 l -24 -247 m 180 890 q 93 915 122 890 q 65 988 65 940 q 93 1062 65 1036 q 180 1088 122 1088 q 266 1062 238 1088 q 295 988 295 1036 q 266 915 295 940 q 180 890 238 890 z "},"ȷ":{"ha":363,"x_min":-24,"x_max":273,"o":"m -24 -247 q 65 -79 39 -162 q 90 121 90 4 l 90 758 l 273 758 l 273 129 q 232 -112 273 -6 q 94 -326 190 -218 l -24 -247 z "},"ĵ":{"ha":363,"x_min":-56,"x_max":415,"o":"m -24 -247 q 65 -79 39 -162 q 90 121 90 4 l 90 758 l 273 758 l 273 129 q 232 -112 273 -6 q 94 -326 190 -218 l -24 -247 m 415 863 l 281 863 l 180 1038 l 78 863 l -56 863 l 104 1124 l 256 1124 l 415 863 z "},"k":{"ha":785,"x_min":90,"x_max":805,"o":"m 605 0 l 377 315 l 272 315 l 272 0 l 90 0 l 90 1122 l 272 1122 l 272 463 l 376 463 l 585 758 l 781 758 l 526 392 l 805 0 l 605 0 z "},"ķ":{"ha":785,"x_min":90,"x_max":805,"o":"m 605 0 l 377 315 l 272 315 l 272 0 l 90 0 l 90 1122 l 272 1122 l 272 463 l 376 463 l 585 758 l 781 758 l 526 392 l 805 0 l 605 0 m 415 -98 q 522 -191 522 -98 q 509 -266 522 -226 q 474 -337 496 -306 l 361 -337 q 396 -238 390 -279 q 332 -216 353 -235 q 311 -168 311 -198 q 337 -116 311 -135 q 415 -98 363 -98 z "},"ĸ":{"ha":785,"x_min":90,"x_max":805,"o":"m 605 0 l 377 315 l 272 315 l 272 0 l 90 0 l 90 758 l 272 758 l 272 463 l 376 463 l 585 758 l 781 758 l 526 392 l 805 0 l 605 0 z "},"l":{"ha":363,"x_min":90,"x_max":272,"o":"m 90 0 l 90 1122 l 272 1122 l 272 0 l 90 0 z "},"ĺ":{"ha":363,"x_min":90,"x_max":415,"o":"m 90 0 l 90 1122 l 272 1122 l 272 0 l 90 0 m 99 1178 l 223 1383 l 415 1383 l 263 1178 l 99 1178 z "},"ľ":{"ha":363,"x_min":90,"x_max":469,"o":"m 90 0 l 90 1122 l 272 1122 l 272 0 l 90 0 m 326 819 q 344 1122 344 951 l 469 1122 q 458 963 469 1042 q 426 819 447 884 l 326 819 z "},"ļ":{"ha":363,"x_min":76,"x_max":287,"o":"m 90 0 l 90 1122 l 272 1122 l 272 0 l 90 0 m 180 -98 q 287 -191 287 -98 q 274 -266 287 -226 q 238 -337 260 -306 l 126 -337 q 160 -238 154 -279 q 97 -216 117 -235 q 76 -168 76 -198 q 102 -116 76 -135 q 180 -98 128 -98 z "},"ŀ":{"ha":526,"x_min":90,"x_max":556,"o":"m 90 0 l 90 1122 l 272 1122 l 272 0 l 90 0 m 441 452 q 355 477 383 452 q 326 551 326 503 q 355 624 326 599 q 441 650 383 650 q 527 624 499 650 q 556 551 556 599 q 527 477 556 503 q 441 452 499 452 z "},"ḷ":{"ha":363,"x_min":79,"x_max":283,"o":"m 90 0 l 90 1122 l 272 1122 l 272 0 l 90 0 m 181 -286 q 106 -261 133 -286 q 79 -192 79 -236 q 106 -123 79 -149 q 181 -98 133 -98 q 257 -123 230 -98 q 283 -192 283 -149 q 257 -261 283 -236 q 181 -286 230 -286 z "},"ǉ":{"ha":726,"x_min":90,"x_max":658,"o":"m 90 0 l 90 1122 l 272 1122 l 272 0 l 90 0 m 340 -247 q 428 -79 402 -162 q 453 121 453 4 l 453 758 l 636 758 l 636 129 q 595 -112 636 -6 q 458 -326 553 -218 l 340 -247 m 543 890 q 457 915 485 890 q 428 988 428 940 q 457 1062 428 1036 q 543 1088 485 1088 q 630 1062 601 1088 q 658 988 658 1036 q 630 915 658 940 q 543 890 601 890 z "},"ḻ":{"ha":363,"x_min":-43,"x_max":406,"o":"m 90 0 l 90 1122 l 272 1122 l 272 0 l 90 0 m -43 -247 l -43 -135 l 406 -135 l 406 -247 l -43 -247 z "},"ł":{"ha":363,"x_min":-29,"x_max":393,"o":"m 393 556 l 272 483 l 272 0 l 90 0 l 90 374 l 26 335 l -29 436 l 90 508 l 90 1122 l 272 1122 l 272 617 l 338 656 l 393 556 z "},"m":{"ha":1227,"x_min":90,"x_max":1143,"o":"m 899 769 q 1078 700 1013 769 q 1143 482 1143 631 l 1143 0 l 962 0 l 962 472 q 932 580 962 547 q 847 612 901 612 q 771 595 808 612 q 706 544 733 578 q 709 487 709 521 l 709 0 l 531 0 l 531 472 q 502 580 531 548 q 419 612 474 612 q 338 592 378 612 q 272 533 299 572 l 272 0 l 90 0 l 90 758 l 241 758 l 253 677 l 263 677 q 359 746 304 723 q 478 769 413 769 q 591 745 542 769 q 670 668 640 720 q 777 745 718 720 q 899 769 837 769 z "},"ṃ":{"ha":1227,"x_min":90,"x_max":1143,"o":"m 899 769 q 1078 700 1013 769 q 1143 482 1143 631 l 1143 0 l 962 0 l 962 472 q 932 580 962 547 q 847 612 901 612 q 771 595 808 612 q 706 544 733 578 q 709 487 709 521 l 709 0 l 531 0 l 531 472 q 502 580 531 548 q 419 612 474 612 q 338 592 378 612 q 272 533 299 572 l 272 0 l 90 0 l 90 758 l 241 758 l 253 677 l 263 677 q 359 746 304 723 q 478 769 413 769 q 591 745 542 769 q 670 668 640 720 q 777 745 718 720 q 899 769 837 769 m 620 -286 q 545 -261 572 -286 q 518 -192 518 -236 q 545 -123 518 -149 q 620 -98 572 -98 q 695 -123 669 -98 q 722 -192 722 -149 q 695 -261 722 -236 q 620 -286 669 -286 z "},"n":{"ha":828,"x_min":90,"x_max":744,"o":"m 90 758 l 241 758 l 253 678 l 263 678 q 365 746 306 722 q 490 769 424 769 q 676 700 608 769 q 744 482 744 631 l 744 0 l 562 0 l 562 472 q 530 580 562 547 q 437 612 498 612 q 347 593 391 612 q 272 535 302 574 l 272 0 l 90 0 l 90 758 z "},"ń":{"ha":828,"x_min":90,"x_max":744,"o":"m 90 758 l 241 758 l 253 678 l 263 678 q 365 746 306 722 q 490 769 424 769 q 676 700 608 769 q 744 482 744 631 l 744 0 l 562 0 l 562 472 q 530 580 562 547 q 437 612 498 612 q 347 593 391 612 q 272 535 302 574 l 272 0 l 90 0 l 90 758 m 335 861 l 488 1122 l 682 1122 l 501 861 l 335 861 z "},"ŉ":{"ha":828,"x_min":8,"x_max":744,"o":"m 90 758 l 241 758 l 253 678 l 263 678 q 365 746 306 722 q 490 769 424 769 q 676 700 608 769 q 744 482 744 631 l 744 0 l 562 0 l 562 472 q 530 580 562 547 q 437 612 498 612 q 347 593 391 612 q 272 535 302 574 l 272 0 l 90 0 l 90 758 m 113 1128 q 220 1035 220 1128 q 207 961 220 1001 q 172 889 194 921 l 58 889 q 93 989 87 947 q 29 1010 50 992 q 8 1058 8 1028 q 34 1110 8 1092 q 113 1128 60 1128 z "},"ň":{"ha":828,"x_min":90,"x_max":744,"o":"m 90 758 l 241 758 l 253 678 l 263 678 q 365 746 306 722 q 490 769 424 769 q 676 700 608 769 q 744 482 744 631 l 744 0 l 562 0 l 562 472 q 530 580 562 547 q 437 612 498 612 q 347 593 391 612 q 272 535 302 574 l 272 0 l 90 0 l 90 758 m 521 1122 l 655 1122 l 494 861 l 342 861 l 181 1122 l 315 1122 l 418 948 l 521 1122 z "},"ņ":{"ha":828,"x_min":90,"x_max":744,"o":"m 90 758 l 241 758 l 253 678 l 263 678 q 365 746 306 722 q 490 769 424 769 q 676 700 608 769 q 744 482 744 631 l 744 0 l 562 0 l 562 472 q 530 580 562 547 q 437 612 498 612 q 347 593 391 612 q 272 535 302 574 l 272 0 l 90 0 l 90 758 m 417 -98 q 524 -191 524 -98 q 510 -266 524 -226 q 475 -337 497 -306 l 363 -337 q 397 -238 391 -279 q 333 -216 354 -235 q 313 -168 313 -198 q 339 -116 313 -135 q 417 -98 365 -98 z "},"ṅ":{"ha":828,"x_min":90,"x_max":744,"o":"m 90 758 l 241 758 l 253 678 l 263 678 q 365 746 306 722 q 490 769 424 769 q 676 700 608 769 q 744 482 744 631 l 744 0 l 562 0 l 562 472 q 530 580 562 547 q 437 612 498 612 q 347 593 391 612 q 272 535 302 574 l 272 0 l 90 0 l 90 758 m 418 888 q 332 913 360 888 q 303 986 303 938 q 332 1060 303 1034 q 418 1085 360 1085 q 505 1060 476 1085 q 533 986 533 1034 q 505 913 533 938 q 418 888 476 888 z "},"ṇ":{"ha":828,"x_min":90,"x_max":744,"o":"m 90 758 l 241 758 l 253 678 l 263 678 q 365 746 306 722 q 490 769 424 769 q 676 700 608 769 q 744 482 744 631 l 744 0 l 562 0 l 562 472 q 530 580 562 547 q 437 612 498 612 q 347 593 391 612 q 272 535 302 574 l 272 0 l 90 0 l 90 758 m 418 -286 q 343 -261 369 -286 q 316 -192 316 -236 q 343 -123 316 -149 q 418 -98 369 -98 q 493 -123 467 -98 q 520 -192 520 -149 q 493 -261 520 -236 q 418 -286 467 -286 z "},"ŋ":{"ha":828,"x_min":90,"x_max":744,"o":"m 448 -247 q 536 -79 510 -162 q 562 121 562 4 l 562 473 q 530 581 562 549 q 437 613 498 613 q 347 594 391 613 q 272 537 302 575 l 272 0 l 90 0 l 90 758 l 241 758 l 253 678 l 263 678 q 365 746 307 723 q 491 769 424 769 q 676 701 608 769 q 744 483 744 632 l 744 116 q 701 -116 741 -13 q 566 -326 660 -219 l 448 -247 z "},"ǌ":{"ha":1191,"x_min":90,"x_max":1123,"o":"m 90 758 l 241 758 l 253 678 l 263 678 q 365 746 306 722 q 490 769 424 769 q 676 700 608 769 q 744 482 744 631 l 744 0 l 562 0 l 562 472 q 530 580 562 547 q 437 612 498 612 q 347 593 391 612 q 272 535 302 574 l 272 0 l 90 0 l 90 758 m 804 -247 q 892 -79 867 -162 q 918 121 918 4 l 918 758 l 1101 758 l 1101 129 q 1059 -112 1101 -6 q 922 -326 1018 -218 l 804 -247 m 1008 890 q 921 915 950 890 q 892 988 892 940 q 921 1062 892 1036 q 1008 1088 950 1088 q 1094 1062 1065 1088 q 1123 988 1123 1036 q 1094 915 1123 940 q 1008 890 1065 890 z "},"ṉ":{"ha":828,"x_min":90,"x_max":744,"o":"m 90 758 l 241 758 l 253 678 l 263 678 q 365 746 306 722 q 490 769 424 769 q 676 700 608 769 q 744 482 744 631 l 744 0 l 562 0 l 562 472 q 530 580 562 547 q 437 612 498 612 q 347 593 391 612 q 272 535 302 574 l 272 0 l 90 0 l 90 758 m 194 -247 l 194 -135 l 642 -135 l 642 -247 l 194 -247 z "},"ñ":{"ha":828,"x_min":90,"x_max":744,"o":"m 90 758 l 241 758 l 253 678 l 263 678 q 365 746 306 722 q 490 769 424 769 q 676 700 608 769 q 744 482 744 631 l 744 0 l 562 0 l 562 472 q 530 580 562 547 q 437 612 498 612 q 347 593 391 612 q 272 535 302 574 l 272 0 l 90 0 l 90 758 m 524 908 q 469 916 495 908 q 407 940 444 924 q 353 962 376 955 q 309 969 331 969 q 243 956 273 969 q 183 913 213 942 l 183 1030 q 240 1068 208 1056 q 313 1081 272 1081 q 367 1072 341 1081 q 429 1048 392 1064 q 484 1026 462 1033 q 527 1019 506 1019 q 593 1033 564 1019 q 653 1076 623 1047 l 653 959 q 596 920 628 933 q 524 908 565 908 z "},"o":{"ha":814,"x_min":54,"x_max":760,"o":"m 407 -14 q 148 84 241 -14 q 54 377 54 182 q 146 672 54 574 q 407 769 238 769 q 668 672 576 769 q 760 378 760 574 q 717 160 760 247 q 595 29 674 72 q 407 -14 516 -14 m 407 126 q 534 183 491 126 q 576 376 576 240 q 534 572 576 515 q 407 629 491 629 q 280 572 323 629 q 238 379 238 515 q 257 230 238 285 q 314 150 277 174 q 407 126 351 126 z "},"ó":{"ha":814,"x_min":54,"x_max":760,"o":"m 407 -14 q 148 84 241 -14 q 54 377 54 182 q 146 672 54 574 q 407 769 238 769 q 668 672 576 769 q 760 378 760 574 q 717 160 760 247 q 595 29 674 72 q 407 -14 516 -14 m 407 126 q 534 183 491 126 q 576 376 576 240 q 534 572 576 515 q 407 629 491 629 q 280 572 323 629 q 238 379 238 515 q 257 230 238 285 q 314 150 277 174 q 407 126 351 126 m 324 861 l 476 1122 l 671 1122 l 490 861 l 324 861 z "},"ŏ":{"ha":814,"x_min":54,"x_max":760,"o":"m 407 -14 q 148 84 241 -14 q 54 377 54 182 q 146 672 54 574 q 407 769 238 769 q 668 672 576 769 q 760 378 760 574 q 717 160 760 247 q 595 29 674 72 q 407 -14 516 -14 m 407 126 q 534 183 491 126 q 576 376 576 240 q 534 572 576 515 q 407 629 491 629 q 280 572 323 629 q 238 379 238 515 q 257 230 238 285 q 314 150 277 174 q 407 126 351 126 m 408 868 q 238 929 299 868 q 170 1106 176 990 l 283 1106 q 319 999 289 1034 q 408 964 349 964 q 496 999 466 964 q 531 1106 526 1034 l 644 1106 q 577 929 638 990 q 408 868 516 868 z "},"ô":{"ha":814,"x_min":54,"x_max":760,"o":"m 407 -14 q 148 84 241 -14 q 54 377 54 182 q 146 672 54 574 q 407 769 238 769 q 668 672 576 769 q 760 378 760 574 q 717 160 760 247 q 595 29 674 72 q 407 -14 516 -14 m 407 126 q 534 183 491 126 q 576 376 576 240 q 534 572 576 515 q 407 629 491 629 q 280 572 323 629 q 238 379 238 515 q 257 230 238 285 q 314 150 277 174 q 407 126 351 126 m 642 861 l 508 861 l 407 1035 l 306 861 l 172 861 l 331 1122 l 483 1122 l 642 861 z "},"ố":{"ha":814,"x_min":54,"x_max":842,"o":"m 407 -14 q 148 84 241 -14 q 54 377 54 182 q 146 672 54 574 q 407 769 238 769 q 668 672 576 769 q 760 378 760 574 q 717 160 760 247 q 595 29 674 72 q 407 -14 516 -14 m 407 126 q 534 183 491 126 q 576 376 576 240 q 534 572 576 515 q 407 629 491 629 q 280 572 323 629 q 238 379 238 515 q 257 230 238 285 q 314 150 277 174 q 407 126 351 126 m 685 1297 l 842 1297 l 690 1109 l 561 1109 l 685 1297 m 331 1122 l 483 1122 l 642 861 l 508 861 l 407 1035 l 306 861 l 172 861 l 331 1122 z "},"ộ":{"ha":814,"x_min":54,"x_max":760,"o":"m 407 -14 q 148 84 241 -14 q 54 377 54 182 q 146 672 54 574 q 407 769 238 769 q 668 672 576 769 q 760 378 760 574 q 717 160 760 247 q 595 29 674 72 q 407 -14 516 -14 m 407 126 q 534 183 491 126 q 576 376 576 240 q 534 572 576 515 q 407 629 491 629 q 280 572 323 629 q 238 379 238 515 q 257 230 238 285 q 314 150 277 174 q 407 126 351 126 m 407 -286 q 332 -261 358 -286 q 305 -192 305 -236 q 332 -123 305 -149 q 407 -98 358 -98 q 482 -123 456 -98 q 509 -192 509 -149 q 482 -261 509 -236 q 407 -286 456 -286 m 642 861 l 508 861 l 407 1035 l 306 861 l 172 861 l 331 1122 l 483 1122 l 642 861 z "},"ồ":{"ha":814,"x_min":54,"x_max":760,"o":"m 407 -14 q 148 84 241 -14 q 54 377 54 182 q 146 672 54 574 q 407 769 238 769 q 668 672 576 769 q 760 378 760 574 q 717 160 760 247 q 595 29 674 72 q 407 -14 516 -14 m 407 126 q 534 183 491 126 q 576 376 576 240 q 534 572 576 515 q 407 629 491 629 q 280 572 323 629 q 238 379 238 515 q 257 230 238 285 q 314 150 277 174 q 407 126 351 126 m 709 1109 l 580 1109 l 428 1297 l 585 1297 l 709 1109 m 331 1122 l 483 1122 l 642 861 l 508 861 l 407 1035 l 306 861 l 172 861 l 331 1122 z "},"ổ":{"ha":814,"x_min":54,"x_max":763,"o":"m 407 -14 q 148 84 241 -14 q 54 377 54 182 q 146 672 54 574 q 407 769 238 769 q 668 672 576 769 q 760 378 760 574 q 717 160 760 247 q 595 29 674 72 q 407 -14 516 -14 m 407 126 q 534 183 491 126 q 576 376 576 240 q 534 572 576 515 q 407 629 491 629 q 280 572 323 629 q 238 379 238 515 q 257 230 238 285 q 314 150 277 174 q 407 126 351 126 m 606 1307 q 763 1226 763 1307 q 747 1188 763 1201 q 702 1160 732 1174 q 664 1137 677 1147 q 648 1109 650 1126 l 558 1109 q 578 1155 560 1139 q 628 1184 597 1170 q 657 1200 649 1194 q 666 1215 666 1206 q 649 1236 666 1229 q 592 1242 632 1242 q 464 1224 523 1242 l 464 1288 q 530 1302 491 1297 q 606 1307 569 1307 m 331 1122 l 483 1122 l 642 861 l 508 861 l 407 1035 l 306 861 l 172 861 l 331 1122 z "},"ỗ":{"ha":814,"x_min":54,"x_max":760,"o":"m 407 -14 q 148 84 241 -14 q 54 377 54 182 q 146 672 54 574 q 407 769 238 769 q 668 672 576 769 q 760 378 760 574 q 717 160 760 247 q 595 29 674 72 q 407 -14 516 -14 m 407 126 q 534 183 491 126 q 576 376 576 240 q 534 572 576 515 q 407 629 491 629 q 280 572 323 629 q 238 379 238 515 q 257 230 238 285 q 314 150 277 174 q 407 126 351 126 m 519 1134 q 461 1141 488 1134 q 396 1160 434 1147 q 339 1177 362 1172 q 292 1183 316 1183 q 224 1172 253 1183 q 163 1138 194 1161 l 163 1234 q 221 1267 189 1256 q 295 1278 253 1278 q 352 1272 326 1278 q 418 1252 378 1265 q 474 1234 450 1240 q 522 1228 498 1228 q 590 1240 560 1228 q 651 1274 620 1251 l 651 1178 q 594 1145 626 1156 q 519 1134 562 1134 m 654 862 l 515 862 l 407 1021 l 299 862 l 160 862 l 328 1093 l 486 1093 l 654 862 z "},"ȍ":{"ha":814,"x_min":54,"x_max":760,"o":"m 407 -14 q 148 84 241 -14 q 54 377 54 182 q 146 672 54 574 q 407 769 238 769 q 668 672 576 769 q 760 378 760 574 q 717 160 760 247 q 595 29 674 72 q 407 -14 516 -14 m 407 126 q 534 183 491 126 q 576 376 576 240 q 534 572 576 515 q 407 629 491 629 q 280 572 323 629 q 238 379 238 515 q 257 230 238 285 q 314 150 277 174 q 407 126 351 126 m 208 861 l 99 1122 l 245 1122 l 343 861 l 208 861 m 471 861 l 362 1122 l 508 1122 l 606 861 l 471 861 z "},"ö":{"ha":814,"x_min":54,"x_max":760,"o":"m 407 -14 q 148 84 241 -14 q 54 377 54 182 q 146 672 54 574 q 407 769 238 769 q 668 672 576 769 q 760 378 760 574 q 717 160 760 247 q 595 29 674 72 q 407 -14 516 -14 m 407 126 q 534 183 491 126 q 576 376 576 240 q 534 572 576 515 q 407 629 491 629 q 280 572 323 629 q 238 379 238 515 q 257 230 238 285 q 314 150 277 174 q 407 126 351 126 m 244 890 q 169 916 196 890 q 142 986 142 941 q 169 1057 142 1031 q 244 1083 196 1083 q 320 1057 294 1083 q 347 986 347 1031 q 320 916 347 941 q 244 890 294 890 m 569 890 q 494 916 520 890 q 467 986 467 941 q 494 1057 467 1031 q 569 1083 520 1083 q 645 1057 618 1083 q 672 986 672 1031 q 645 916 672 941 q 569 890 618 890 z "},"ȫ":{"ha":814,"x_min":54,"x_max":760,"o":"m 407 -14 q 148 84 241 -14 q 54 377 54 182 q 146 672 54 574 q 407 769 238 769 q 668 672 576 769 q 760 378 760 574 q 717 160 760 247 q 595 29 674 72 q 407 -14 516 -14 m 407 126 q 534 183 491 126 q 576 376 576 240 q 534 572 576 515 q 407 629 491 629 q 280 572 323 629 q 238 379 238 515 q 257 230 238 285 q 314 150 277 174 q 407 126 351 126 m 244 890 q 169 916 196 890 q 142 986 142 941 q 169 1057 142 1031 q 244 1083 196 1083 q 320 1057 294 1083 q 347 986 347 1031 q 320 916 347 941 q 244 890 294 890 m 569 890 q 494 916 520 890 q 467 986 467 941 q 494 1057 467 1031 q 569 1083 520 1083 q 645 1057 618 1083 q 672 986 672 1031 q 645 916 672 941 q 569 890 618 890 m 172 1172 l 172 1283 l 642 1283 l 642 1172 l 172 1172 z "},"ȱ":{"ha":814,"x_min":54,"x_max":760,"o":"m 407 -14 q 148 84 241 -14 q 54 377 54 182 q 146 672 54 574 q 407 769 238 769 q 668 672 576 769 q 760 378 760 574 q 717 160 760 247 q 595 29 674 72 q 407 -14 516 -14 m 407 126 q 534 183 491 126 q 576 376 576 240 q 534 572 576 515 q 407 629 491 629 q 280 572 323 629 q 238 379 238 515 q 257 230 238 285 q 314 150 277 174 q 407 126 351 126 m 407 888 q 320 913 349 888 q 292 986 292 938 q 320 1060 292 1034 q 407 1085 349 1085 q 493 1060 465 1085 q 522 986 522 1034 q 493 913 522 938 q 407 888 465 888 m 172 1173 l 172 1285 l 642 1285 l 642 1173 l 172 1173 z "},"ọ":{"ha":814,"x_min":54,"x_max":760,"o":"m 407 -14 q 148 84 241 -14 q 54 377 54 182 q 146 672 54 574 q 407 769 238 769 q 668 672 576 769 q 760 378 760 574 q 717 160 760 247 q 595 29 674 72 q 407 -14 516 -14 m 407 126 q 534 183 491 126 q 576 376 576 240 q 534 572 576 515 q 407 629 491 629 q 280 572 323 629 q 238 379 238 515 q 257 230 238 285 q 314 150 277 174 q 407 126 351 126 m 407 -286 q 332 -261 358 -286 q 305 -192 305 -236 q 332 -123 305 -149 q 407 -98 358 -98 q 482 -123 456 -98 q 509 -192 509 -149 q 482 -261 509 -236 q 407 -286 456 -286 z "},"ò":{"ha":814,"x_min":54,"x_max":760,"o":"m 407 -14 q 148 84 241 -14 q 54 377 54 182 q 146 672 54 574 q 407 769 238 769 q 668 672 576 769 q 760 378 760 574 q 717 160 760 247 q 595 29 674 72 q 407 -14 516 -14 m 407 126 q 534 183 491 126 q 576 376 576 240 q 534 572 576 515 q 407 629 491 629 q 280 572 323 629 q 238 379 238 515 q 257 230 238 285 q 314 150 277 174 q 407 126 351 126 m 324 861 l 143 1122 l 338 1122 l 490 861 l 324 861 z "},"ỏ":{"ha":814,"x_min":54,"x_max":760,"o":"m 407 -14 q 148 84 241 -14 q 54 377 54 182 q 146 672 54 574 q 407 769 238 769 q 668 672 576 769 q 760 378 760 574 q 717 160 760 247 q 595 29 674 72 q 407 -14 516 -14 m 407 126 q 534 183 491 126 q 576 376 576 240 q 534 572 576 515 q 407 629 491 629 q 280 572 323 629 q 238 379 238 515 q 257 230 238 285 q 314 150 277 174 q 407 126 351 126 m 359 861 q 379 923 361 900 q 427 968 397 946 q 456 993 447 983 q 465 1017 465 1003 q 448 1046 465 1037 q 392 1056 431 1056 q 280 1039 336 1056 l 280 1113 q 339 1126 304 1122 q 404 1131 373 1131 q 525 1105 486 1131 q 565 1028 565 1079 q 550 974 565 994 q 507 934 535 955 q 469 900 482 915 q 455 861 457 885 l 359 861 z "},"ơ":{"ha":814,"x_min":54,"x_max":788,"o":"m 658 681 q 760 378 760 583 q 717 160 760 247 q 595 29 674 72 q 407 -14 516 -14 q 148 84 241 -14 q 54 377 54 182 q 147 672 54 574 q 411 769 240 769 q 492 765 446 769 q 540 763 528 763 q 635 789 602 763 q 667 872 667 815 q 654 969 667 916 l 773 969 q 788 865 788 920 q 754 745 788 792 q 658 681 719 699 m 407 126 q 534 183 491 126 q 576 376 576 240 q 534 572 576 515 q 407 629 491 629 q 280 572 323 629 q 238 379 238 515 q 257 230 238 285 q 314 150 277 174 q 407 126 351 126 z "},"ớ":{"ha":814,"x_min":54,"x_max":788,"o":"m 657 1122 l 483 861 l 323 861 l 470 1122 l 657 1122 m 658 681 q 760 378 760 583 q 717 160 760 247 q 595 29 674 72 q 407 -14 516 -14 q 148 84 241 -14 q 54 377 54 182 q 147 672 54 574 q 411 769 240 769 q 492 765 446 769 q 540 763 528 763 q 635 789 602 763 q 667 872 667 815 q 654 969 667 916 l 773 969 q 788 865 788 920 q 754 745 788 792 q 658 681 719 699 m 407 126 q 534 183 491 126 q 576 376 576 240 q 534 572 576 515 q 407 629 491 629 q 280 572 323 629 q 238 379 238 515 q 257 230 238 285 q 314 150 277 174 q 407 126 351 126 z "},"ợ":{"ha":814,"x_min":54,"x_max":788,"o":"m 658 681 q 760 378 760 583 q 717 160 760 247 q 595 29 674 72 q 407 -14 516 -14 q 148 84 241 -14 q 54 377 54 182 q 147 672 54 574 q 411 769 240 769 q 492 765 446 769 q 540 763 528 763 q 635 789 602 763 q 667 872 667 815 q 654 969 667 916 l 773 969 q 788 865 788 920 q 754 745 788 792 q 658 681 719 699 m 407 126 q 534 183 491 126 q 576 376 576 240 q 534 572 576 515 q 407 629 491 629 q 280 572 323 629 q 238 379 238 515 q 257 230 238 285 q 314 150 277 174 q 407 126 351 126 m 406 -286 q 331 -261 358 -286 q 304 -192 304 -236 q 331 -123 304 -149 q 406 -98 358 -98 q 482 -123 455 -98 q 508 -192 508 -149 q 482 -261 508 -236 q 406 -286 455 -286 z "},"ờ":{"ha":814,"x_min":54,"x_max":788,"o":"m 658 681 q 760 378 760 583 q 717 160 760 247 q 595 29 674 72 q 407 -14 516 -14 q 148 84 241 -14 q 54 377 54 182 q 147 672 54 574 q 411 769 240 769 q 492 765 446 769 q 540 763 528 763 q 635 789 602 763 q 667 872 667 815 q 654 969 667 916 l 773 969 q 788 865 788 920 q 754 745 788 792 q 658 681 719 699 m 407 126 q 534 183 491 126 q 576 376 576 240 q 534 572 576 515 q 407 629 491 629 q 280 572 323 629 q 238 379 238 515 q 257 230 238 285 q 314 150 277 174 q 407 126 351 126 m 319 861 l 139 1122 l 333 1122 l 486 861 l 319 861 z "},"ở":{"ha":814,"x_min":54,"x_max":788,"o":"m 658 681 q 760 378 760 583 q 717 160 760 247 q 595 29 674 72 q 407 -14 516 -14 q 148 84 241 -14 q 54 377 54 182 q 147 672 54 574 q 411 769 240 769 q 492 765 446 769 q 540 763 528 763 q 635 789 602 763 q 667 872 667 815 q 654 969 667 916 l 773 969 q 788 865 788 920 q 754 745 788 792 q 658 681 719 699 m 407 126 q 534 183 491 126 q 576 376 576 240 q 534 572 576 515 q 407 629 491 629 q 280 572 323 629 q 238 379 238 515 q 257 230 238 285 q 314 150 277 174 q 407 126 351 126 m 355 861 q 375 923 357 900 q 423 968 392 946 q 452 993 442 983 q 461 1017 461 1003 q 444 1046 461 1037 q 388 1056 426 1056 q 276 1039 332 1056 l 276 1113 q 334 1126 300 1122 q 400 1131 369 1131 q 521 1105 482 1131 q 560 1028 560 1079 q 546 974 560 994 q 503 934 531 955 q 465 900 478 915 q 451 861 453 885 l 355 861 z "},"ỡ":{"ha":814,"x_min":54,"x_max":788,"o":"m 497 908 q 443 916 468 908 q 385 941 418 925 q 334 962 355 955 q 292 969 314 969 q 230 956 259 969 q 172 913 201 942 l 172 1030 q 295 1081 220 1081 q 348 1072 324 1081 q 407 1048 372 1064 q 457 1026 437 1033 q 499 1019 477 1019 q 562 1033 533 1019 q 619 1076 591 1047 l 619 959 q 497 908 571 908 m 658 681 q 760 378 760 583 q 717 160 760 247 q 595 29 674 72 q 407 -14 516 -14 q 148 84 241 -14 q 54 377 54 182 q 147 672 54 574 q 411 769 240 769 q 492 765 446 769 q 540 763 528 763 q 635 789 602 763 q 667 872 667 815 q 654 969 667 916 l 773 969 q 788 865 788 920 q 754 745 788 792 q 658 681 719 699 m 407 126 q 534 183 491 126 q 576 376 576 240 q 534 572 576 515 q 407 629 491 629 q 280 572 323 629 q 238 379 238 515 q 257 230 238 285 q 314 150 277 174 q 407 126 351 126 z "},"ő":{"ha":814,"x_min":54,"x_max":760,"o":"m 407 -14 q 148 84 241 -14 q 54 377 54 182 q 146 672 54 574 q 407 769 238 769 q 668 672 576 769 q 760 378 760 574 q 717 160 760 247 q 595 29 674 72 q 407 -14 516 -14 m 407 126 q 534 183 491 126 q 576 376 576 240 q 534 572 576 515 q 407 629 491 629 q 280 572 323 629 q 238 379 238 515 q 257 230 238 285 q 314 150 277 174 q 407 126 351 126 m 208 861 l 307 1122 l 452 1122 l 343 861 l 208 861 m 471 861 l 569 1122 l 715 1122 l 606 861 l 471 861 z "},"ȏ":{"ha":814,"x_min":54,"x_max":760,"o":"m 407 -14 q 148 84 241 -14 q 54 377 54 182 q 146 672 54 574 q 407 769 238 769 q 668 672 576 769 q 760 378 760 574 q 717 160 760 247 q 595 29 674 72 q 407 -14 516 -14 m 407 126 q 534 183 491 126 q 576 376 576 240 q 534 572 576 515 q 407 629 491 629 q 280 572 323 629 q 238 379 238 515 q 257 230 238 285 q 314 150 277 174 q 407 126 351 126 m 170 881 q 236 1058 176 997 q 406 1119 297 1119 q 576 1057 514 1119 q 644 881 638 996 l 531 881 q 495 988 525 953 q 406 1023 465 1023 q 318 988 347 1023 q 283 881 288 953 l 170 881 z "},"ō":{"ha":814,"x_min":54,"x_max":760,"o":"m 407 -14 q 148 84 241 -14 q 54 377 54 182 q 146 672 54 574 q 407 769 238 769 q 668 672 576 769 q 760 378 760 574 q 717 160 760 247 q 595 29 674 72 q 407 -14 516 -14 m 407 126 q 534 183 491 126 q 576 376 576 240 q 534 572 576 515 q 407 629 491 629 q 280 572 323 629 q 238 379 238 515 q 257 230 238 285 q 314 150 277 174 q 407 126 351 126 m 172 931 l 172 1043 l 642 1043 l 642 931 l 172 931 z "},"ṓ":{"ha":814,"x_min":54,"x_max":760,"o":"m 407 -14 q 148 84 241 -14 q 54 377 54 182 q 146 672 54 574 q 407 769 238 769 q 668 672 576 769 q 760 378 760 574 q 717 160 760 247 q 595 29 674 72 q 407 -14 516 -14 m 407 126 q 534 183 491 126 q 576 376 576 240 q 534 572 576 515 q 407 629 491 629 q 280 572 323 629 q 238 379 238 515 q 257 230 238 285 q 314 150 277 174 q 407 126 351 126 m 172 931 l 172 1043 l 642 1043 l 642 931 l 172 931 m 324 1141 l 448 1347 l 640 1347 l 488 1141 l 324 1141 z "},"ṑ":{"ha":814,"x_min":54,"x_max":760,"o":"m 407 -14 q 148 84 241 -14 q 54 377 54 182 q 146 672 54 574 q 407 769 238 769 q 668 672 576 769 q 760 378 760 574 q 717 160 760 247 q 595 29 674 72 q 407 -14 516 -14 m 407 126 q 534 183 491 126 q 576 376 576 240 q 534 572 576 515 q 407 629 491 629 q 280 572 323 629 q 238 379 238 515 q 257 230 238 285 q 314 150 277 174 q 407 126 351 126 m 172 931 l 172 1043 l 642 1043 l 642 931 l 172 931 m 325 1141 l 173 1347 l 365 1347 l 489 1141 l 325 1141 z "},"ǫ":{"ha":814,"x_min":54,"x_max":760,"o":"m 544 6 q 417 -64 453 -26 q 381 -148 381 -103 q 403 -204 381 -184 q 466 -224 426 -224 q 553 -203 508 -224 l 559 -276 q 444 -300 505 -300 q 318 -264 363 -300 q 274 -162 274 -227 q 295 -79 274 -117 q 361 -12 316 -42 q 135 99 215 1 q 54 377 54 197 q 146 672 54 574 q 407 769 238 769 q 668 672 576 769 q 760 378 760 574 q 704 134 760 226 q 544 6 649 42 m 238 379 q 257 230 238 285 q 314 150 277 174 q 407 126 351 126 q 534 183 491 126 q 576 376 576 240 q 534 572 576 515 q 407 629 491 629 q 280 572 323 629 q 238 379 238 515 z "},"ø":{"ha":814,"x_min":54,"x_max":760,"o":"m 672 667 q 760 378 760 566 q 717 160 760 247 q 595 29 674 72 q 407 -14 516 -14 q 216 31 294 -14 l 169 -34 l 92 24 l 141 92 q 54 377 54 192 q 146 672 54 574 q 407 769 238 769 q 597 726 519 769 l 644 792 l 721 734 l 672 667 m 407 631 q 277 574 321 631 q 233 379 233 517 q 252 233 233 289 l 513 599 q 407 631 475 631 m 407 124 q 537 182 493 124 q 581 376 581 239 q 561 526 581 469 l 299 158 q 407 124 338 124 z "},"ǿ":{"ha":814,"x_min":54,"x_max":760,"o":"m 672 667 q 760 378 760 566 q 717 160 760 247 q 595 29 674 72 q 407 -14 516 -14 q 216 31 294 -14 l 169 -34 l 92 24 l 141 92 q 54 377 54 192 q 146 672 54 574 q 407 769 238 769 q 597 726 519 769 l 644 792 l 721 734 l 672 667 m 407 631 q 277 574 321 631 q 233 379 233 517 q 252 233 233 289 l 513 599 q 407 631 475 631 m 407 124 q 537 182 493 124 q 581 376 581 239 q 561 526 581 469 l 299 158 q 407 124 338 124 m 321 861 l 474 1122 l 668 1122 l 488 861 l 321 861 z "},"õ":{"ha":814,"x_min":54,"x_max":760,"o":"m 407 -14 q 148 84 241 -14 q 54 377 54 182 q 146 672 54 574 q 407 769 238 769 q 668 672 576 769 q 760 378 760 574 q 717 160 760 247 q 595 29 674 72 q 407 -14 516 -14 m 407 126 q 534 183 491 126 q 576 376 576 240 q 534 572 576 515 q 407 629 491 629 q 280 572 323 629 q 238 379 238 515 q 257 230 238 285 q 314 150 277 174 q 407 126 351 126 m 513 908 q 458 916 484 908 q 396 940 433 924 q 342 962 365 955 q 298 969 320 969 q 232 956 262 969 q 172 913 202 942 l 172 1030 q 229 1068 197 1056 q 301 1081 260 1081 q 356 1072 330 1081 q 418 1048 381 1064 q 473 1026 451 1033 q 516 1019 494 1019 q 582 1033 553 1019 q 642 1076 612 1047 l 642 959 q 585 920 617 933 q 513 908 553 908 z "},"ṍ":{"ha":814,"x_min":54,"x_max":760,"o":"m 407 -14 q 148 84 241 -14 q 54 377 54 182 q 146 672 54 574 q 407 769 238 769 q 668 672 576 769 q 760 378 760 574 q 717 160 760 247 q 595 29 674 72 q 407 -14 516 -14 m 407 126 q 534 183 491 126 q 576 376 576 240 q 534 572 576 515 q 407 629 491 629 q 280 572 323 629 q 238 379 238 515 q 257 230 238 285 q 314 150 277 174 q 407 126 351 126 m 513 908 q 458 916 484 908 q 396 940 433 924 q 342 962 365 955 q 298 969 320 969 q 232 956 262 969 q 172 913 202 942 l 172 1030 q 229 1068 197 1056 q 301 1081 260 1081 q 356 1072 330 1081 q 418 1048 381 1064 q 473 1026 451 1033 q 516 1019 494 1019 q 582 1033 553 1019 q 642 1076 612 1047 l 642 959 q 585 920 617 933 q 513 908 553 908 m 385 1293 l 508 1499 l 701 1499 l 549 1293 l 385 1293 z "},"ṏ":{"ha":814,"x_min":54,"x_max":760,"o":"m 407 -14 q 148 84 241 -14 q 54 377 54 182 q 146 672 54 574 q 407 769 238 769 q 668 672 576 769 q 760 378 760 574 q 717 160 760 247 q 595 29 674 72 q 407 -14 516 -14 m 407 126 q 534 183 491 126 q 576 376 576 240 q 534 572 576 515 q 407 629 491 629 q 280 572 323 629 q 238 379 238 515 q 257 230 238 285 q 314 150 277 174 q 407 126 351 126 m 513 908 q 458 916 484 908 q 396 940 433 924 q 342 962 365 955 q 298 969 320 969 q 232 956 262 969 q 172 913 202 942 l 172 1030 q 229 1068 197 1056 q 301 1081 260 1081 q 356 1072 330 1081 q 418 1048 381 1064 q 473 1026 451 1033 q 516 1019 494 1019 q 582 1033 553 1019 q 642 1076 612 1047 l 642 959 q 585 920 617 933 q 513 908 553 908 m 244 1131 q 169 1156 196 1131 q 142 1226 142 1181 q 169 1297 142 1272 q 244 1323 196 1323 q 320 1297 294 1323 q 347 1226 347 1272 q 320 1156 347 1181 q 244 1131 294 1131 m 569 1131 q 494 1156 520 1131 q 467 1226 467 1181 q 494 1297 467 1272 q 569 1323 520 1323 q 645 1297 618 1323 q 672 1226 672 1272 q 645 1156 672 1181 q 569 1131 618 1131 z "},"ȭ":{"ha":814,"x_min":54,"x_max":760,"o":"m 407 -14 q 148 84 241 -14 q 54 377 54 182 q 146 672 54 574 q 407 769 238 769 q 668 672 576 769 q 760 378 760 574 q 717 160 760 247 q 595 29 674 72 q 407 -14 516 -14 m 407 126 q 534 183 491 126 q 576 376 576 240 q 534 572 576 515 q 407 629 491 629 q 280 572 323 629 q 238 379 238 515 q 257 230 238 285 q 314 150 277 174 q 407 126 351 126 m 513 908 q 458 916 484 908 q 396 940 433 924 q 342 962 365 955 q 298 969 320 969 q 232 956 262 969 q 172 913 202 942 l 172 1030 q 229 1068 197 1056 q 301 1081 260 1081 q 356 1072 330 1081 q 418 1048 381 1064 q 473 1026 451 1033 q 516 1019 494 1019 q 582 1033 553 1019 q 642 1076 612 1047 l 642 959 q 585 920 617 933 q 513 908 553 908 m 172 1172 l 172 1283 l 642 1283 l 642 1172 l 172 1172 z "},"œ":{"ha":1266,"x_min":54,"x_max":1221,"o":"m 1221 324 l 758 324 q 785 207 761 251 q 859 144 810 164 q 992 125 909 125 q 1180 151 1074 125 l 1180 13 q 967 -14 1072 -14 q 778 16 854 -14 q 658 109 701 47 q 398 -14 574 -14 q 216 29 293 -14 q 97 159 139 72 q 54 377 54 247 q 145 671 54 573 q 398 769 235 769 q 665 638 583 769 q 768 736 704 702 q 915 769 831 769 q 1141 670 1061 769 q 1221 374 1221 570 l 1221 324 m 905 651 q 796 601 833 651 q 757 433 759 551 l 1050 433 q 1011 601 1047 551 q 905 651 976 651 m 406 126 q 531 183 489 126 q 574 376 574 240 q 531 572 574 515 q 406 629 489 629 q 280 572 323 629 q 238 379 238 515 q 280 184 238 241 q 406 126 322 126 z "},"p":{"ha":829,"x_min":90,"x_max":775,"o":"m 90 758 l 244 758 l 256 676 l 265 676 q 351 744 299 719 q 469 769 403 769 q 625 731 556 769 q 734 608 694 692 q 775 393 775 524 q 673 90 775 193 q 374 -14 571 -14 q 272 -7 333 -14 l 272 -306 l 90 -306 l 90 758 m 374 127 q 538 186 484 127 q 592 378 592 246 q 547 565 592 511 q 418 619 501 619 q 337 602 376 619 q 272 552 298 585 l 272 137 q 374 127 321 127 z "},"þ":{"ha":829,"x_min":90,"x_max":775,"o":"m 90 1122 l 272 1122 l 272 682 l 281 682 q 367 747 316 724 q 483 769 419 769 q 632 730 566 769 q 736 607 697 691 q 775 393 775 522 q 673 90 775 193 q 374 -14 571 -14 q 272 -7 333 -14 l 272 -306 l 90 -306 l 90 1122 m 374 127 q 538 186 484 127 q 592 378 592 246 q 547 565 592 511 q 418 619 501 619 q 337 603 376 619 q 272 554 298 587 l 272 137 q 374 127 321 127 z "},"q":{"ha":829,"x_min":54,"x_max":739,"o":"m 557 73 l 548 73 q 461 9 513 32 q 347 -14 410 -14 q 198 26 264 -14 q 93 149 132 65 q 54 362 54 233 q 158 667 54 565 q 467 769 262 769 q 609 759 536 769 q 739 730 681 749 l 739 -306 l 557 -306 l 557 73 m 412 137 q 492 152 453 137 q 557 198 531 167 l 557 617 q 452 629 504 629 q 291 569 345 629 q 238 376 238 509 q 283 191 238 244 q 412 137 328 137 z "},"r":{"ha":540,"x_min":90,"x_max":532,"o":"m 90 758 l 240 758 l 254 659 l 264 659 q 352 740 297 713 q 472 767 406 767 q 532 762 501 767 l 532 597 q 461 601 505 601 q 355 579 407 601 q 272 516 302 557 l 272 0 l 90 0 l 90 758 z "},"ŕ":{"ha":540,"x_min":90,"x_max":571,"o":"m 90 758 l 240 758 l 254 659 l 264 659 q 352 740 297 713 q 472 767 406 767 q 532 762 501 767 l 532 597 q 461 601 505 601 q 355 579 407 601 q 272 516 302 557 l 272 0 l 90 0 l 90 758 m 224 861 l 376 1122 l 571 1122 l 390 861 l 224 861 z "},"ř":{"ha":540,"x_min":70,"x_max":544,"o":"m 90 758 l 240 758 l 254 659 l 264 659 q 352 740 297 713 q 472 767 406 767 q 532 762 501 767 l 532 597 q 461 601 505 601 q 355 579 407 601 q 272 516 302 557 l 272 0 l 90 0 l 90 758 m 410 1122 l 544 1122 l 383 861 l 231 861 l 70 1122 l 204 1122 l 307 948 l 410 1122 z "},"ŗ":{"ha":540,"x_min":76,"x_max":532,"o":"m 90 758 l 240 758 l 254 659 l 264 659 q 352 740 297 713 q 472 767 406 767 q 532 762 501 767 l 532 597 q 461 601 505 601 q 355 579 407 601 q 272 516 302 557 l 272 0 l 90 0 l 90 758 m 181 -98 q 288 -191 288 -98 q 274 -266 288 -226 q 239 -337 261 -306 l 126 -337 q 161 -238 155 -279 q 97 -216 118 -235 q 76 -168 76 -198 q 102 -116 76 -135 q 181 -98 128 -98 z "},"ȑ":{"ha":540,"x_min":-1,"x_max":532,"o":"m 90 758 l 240 758 l 254 659 l 264 659 q 352 740 297 713 q 472 767 406 767 q 532 762 501 767 l 532 597 q 461 601 505 601 q 355 579 407 601 q 272 516 302 557 l 272 0 l 90 0 l 90 758 m 108 861 l -1 1122 l 145 1122 l 243 861 l 108 861 m 371 861 l 262 1122 l 408 1122 l 506 861 l 371 861 z "},"ṛ":{"ha":540,"x_min":80,"x_max":532,"o":"m 90 758 l 240 758 l 254 659 l 264 659 q 352 740 297 713 q 472 767 406 767 q 532 762 501 767 l 532 597 q 461 601 505 601 q 355 579 407 601 q 272 516 302 557 l 272 0 l 90 0 l 90 758 m 182 -286 q 107 -261 133 -286 q 80 -192 80 -236 q 107 -123 80 -149 q 182 -98 133 -98 q 257 -123 231 -98 q 284 -192 284 -149 q 257 -261 284 -236 q 182 -286 231 -286 z "},"ȓ":{"ha":540,"x_min":70,"x_max":544,"o":"m 90 758 l 240 758 l 254 659 l 264 659 q 352 740 297 713 q 472 767 406 767 q 532 762 501 767 l 532 597 q 461 601 505 601 q 355 579 407 601 q 272 516 302 557 l 272 0 l 90 0 l 90 758 m 70 881 q 136 1058 76 997 q 306 1119 197 1119 q 476 1057 414 1119 q 544 881 538 996 l 431 881 q 395 988 425 953 q 306 1023 365 1023 q 218 988 247 1023 q 183 881 188 953 l 70 881 z "},"ṟ":{"ha":540,"x_min":-42,"x_max":532,"o":"m 90 758 l 240 758 l 254 659 l 264 659 q 352 740 297 713 q 472 767 406 767 q 532 762 501 767 l 532 597 q 461 601 505 601 q 355 579 407 601 q 272 516 302 557 l 272 0 l 90 0 l 90 758 m -42 -247 l -42 -135 l 406 -135 l 406 -247 l -42 -247 z "},"s":{"ha":661,"x_min":49,"x_max":622,"o":"m 299 -14 q 67 18 169 -14 l 67 154 q 297 121 178 121 q 414 145 377 121 q 451 215 451 169 q 432 271 451 251 q 365 300 413 290 l 250 322 q 97 395 145 342 q 49 535 49 447 q 86 659 49 606 q 199 740 124 711 q 387 769 275 769 q 581 746 492 769 l 581 610 q 392 635 491 635 q 220 540 220 635 q 239 487 220 507 q 304 458 258 467 l 419 436 q 573 365 524 415 q 622 222 622 315 q 584 96 622 149 q 474 15 547 43 q 299 -14 401 -14 z "},"ś":{"ha":661,"x_min":49,"x_max":622,"o":"m 299 -14 q 67 18 169 -14 l 67 154 q 297 121 178 121 q 414 145 377 121 q 451 215 451 169 q 432 271 451 251 q 365 300 413 290 l 250 322 q 97 395 145 342 q 49 535 49 447 q 86 659 49 606 q 199 740 124 711 q 387 769 275 769 q 581 746 492 769 l 581 610 q 392 635 491 635 q 220 540 220 635 q 239 487 220 507 q 304 458 258 467 l 419 436 q 573 365 524 415 q 622 222 622 315 q 584 96 622 149 q 474 15 547 43 q 299 -14 401 -14 m 251 861 l 403 1122 l 598 1122 l 417 861 l 251 861 z "},"ṥ":{"ha":661,"x_min":49,"x_max":622,"o":"m 299 -14 q 67 18 169 -14 l 67 154 q 297 121 178 121 q 414 145 377 121 q 451 215 451 169 q 432 271 451 251 q 365 300 413 290 l 250 322 q 97 395 145 342 q 49 535 49 447 q 86 659 49 606 q 199 740 124 711 q 387 769 275 769 q 581 746 492 769 l 581 610 q 392 635 491 635 q 220 540 220 635 q 239 487 220 507 q 304 458 258 467 l 419 436 q 573 365 524 415 q 622 222 622 315 q 584 96 622 149 q 474 15 547 43 q 299 -14 401 -14 m 238 1094 q 167 1114 192 1094 q 143 1168 143 1133 q 167 1223 143 1203 q 238 1242 192 1242 q 309 1223 285 1242 q 334 1168 334 1203 q 309 1114 334 1133 q 238 1094 285 1094 m 251 861 l 403 1122 l 598 1122 l 417 861 l 251 861 z "},"š":{"ha":661,"x_min":49,"x_max":622,"o":"m 299 -14 q 67 18 169 -14 l 67 154 q 297 121 178 121 q 414 145 377 121 q 451 215 451 169 q 432 271 451 251 q 365 300 413 290 l 250 322 q 97 395 145 342 q 49 535 49 447 q 86 659 49 606 q 199 740 124 711 q 387 769 275 769 q 581 746 492 769 l 581 610 q 392 635 491 635 q 220 540 220 635 q 239 487 220 507 q 304 458 258 467 l 419 436 q 573 365 524 415 q 622 222 622 315 q 584 96 622 149 q 474 15 547 43 q 299 -14 401 -14 m 437 1122 l 571 1122 l 410 861 l 258 861 l 97 1122 l 231 1122 l 334 948 l 437 1122 z "},"ṧ":{"ha":661,"x_min":49,"x_max":622,"o":"m 299 -14 q 67 18 169 -14 l 67 154 q 297 121 178 121 q 414 145 377 121 q 451 215 451 169 q 432 271 451 251 q 365 300 413 290 l 250 322 q 97 395 145 342 q 49 535 49 447 q 86 659 49 606 q 199 740 124 711 q 387 769 275 769 q 581 746 492 769 l 581 610 q 392 635 491 635 q 220 540 220 635 q 239 487 220 507 q 304 458 258 467 l 419 436 q 573 365 524 415 q 622 222 622 315 q 584 96 622 149 q 474 15 547 43 q 299 -14 401 -14 m 334 1137 q 263 1156 288 1137 q 239 1210 239 1176 q 263 1265 239 1245 q 334 1285 288 1285 q 405 1265 381 1285 q 429 1210 429 1245 q 405 1156 429 1176 q 334 1137 381 1137 m 437 1122 l 571 1122 l 410 861 l 258 861 l 97 1122 l 231 1122 l 334 948 l 437 1122 z "},"ş":{"ha":661,"x_min":49,"x_max":622,"o":"m 622 222 q 560 68 622 128 q 385 -8 499 8 l 385 -65 q 467 -103 439 -73 q 496 -181 496 -133 q 454 -268 496 -237 q 332 -300 413 -300 q 267 -294 299 -300 q 209 -278 235 -288 l 209 -203 q 267 -220 236 -215 q 325 -226 298 -226 q 380 -214 361 -226 q 398 -174 398 -201 q 324 -120 398 -120 l 294 -120 l 294 -14 q 67 18 167 -12 l 67 154 q 297 121 178 121 q 414 145 377 121 q 451 215 451 169 q 432 271 451 251 q 365 300 413 290 l 250 322 q 97 395 145 342 q 49 535 49 447 q 86 659 49 606 q 199 740 124 711 q 387 769 275 769 q 581 746 492 769 l 581 610 q 392 635 491 635 q 220 540 220 635 q 239 487 220 507 q 304 458 258 467 l 419 436 q 573 365 524 415 q 622 222 622 315 z "},"ŝ":{"ha":661,"x_min":49,"x_max":622,"o":"m 299 -14 q 67 18 169 -14 l 67 154 q 297 121 178 121 q 414 145 377 121 q 451 215 451 169 q 432 271 451 251 q 365 300 413 290 l 250 322 q 97 395 145 342 q 49 535 49 447 q 86 659 49 606 q 199 740 124 711 q 387 769 275 769 q 581 746 492 769 l 581 610 q 392 635 491 635 q 220 540 220 635 q 239 487 220 507 q 304 458 258 467 l 419 436 q 573 365 524 415 q 622 222 622 315 q 584 96 622 149 q 474 15 547 43 q 299 -14 401 -14 m 569 861 l 435 861 l 334 1035 l 233 861 l 99 861 l 258 1122 l 410 1122 l 569 861 z "},"ș":{"ha":661,"x_min":49,"x_max":622,"o":"m 299 -14 q 67 18 169 -14 l 67 154 q 297 121 178 121 q 414 145 377 121 q 451 215 451 169 q 432 271 451 251 q 365 300 413 290 l 250 322 q 97 395 145 342 q 49 535 49 447 q 86 659 49 606 q 199 740 124 711 q 387 769 275 769 q 581 746 492 769 l 581 610 q 392 635 491 635 q 220 540 220 635 q 239 487 220 507 q 304 458 258 467 l 419 436 q 573 365 524 415 q 622 222 622 315 q 584 96 622 149 q 474 15 547 43 q 299 -14 401 -14 m 333 -98 q 440 -191 440 -98 q 426 -266 440 -226 q 391 -337 413 -306 l 278 -337 q 313 -238 307 -279 q 249 -216 270 -235 q 228 -168 228 -198 q 255 -116 228 -135 q 333 -98 281 -98 z "}}}
